{"glyphs":{"0":{"ha":878,"x_min":0,"x_max":0,"o":"m 1 307 l 1 294 b 14 224 1 271 4 246 b 40 183 19 208 28 194 b 128 147 68 160 96 147 b 189 164 147 147 167 153 b 289 235 225 182 258 207 b 557 622 407 344 494 475 b 597 767 578 668 593 715 b 599 785 597 772 599 779 b 582 846 599 807 594 828 b 451 938 551 894 506 922 b 433 940 446 939 439 940 b 394 921 418 940 406 933 b 383 910 392 917 388 913 b 246 783 328 876 286 831 b 74 528 178 706 121 619 b 1 307 38 458 7 386 z m 554 793 l 554 783 b 538 693 554 750 547 721 b 358 369 500 574 438 467 b 214 226 317 317 269 267 b 113 176 183 203 151 183 b 93 174 106 175 99 174 b 60 204 78 174 68 182 b 49 261 51 222 49 242 b 51 294 49 272 50 283 b 122 493 61 365 90 431 b 308 768 175 592 236 683 b 392 854 335 797 361 828 b 422 876 401 863 414 867 b 433 893 426 883 433 885 l 433 896 b 449 910 433 904 442 907 b 468 913 456 913 461 913 b 506 899 482 913 494 908 b 556 808 538 874 556 843 b 554 793 556 803 554 799 z "},"1":{"ha":767,"x_min":0,"x_max":0,"o":"m 397 858 b 385 832 397 847 390 840 b 167 464 311 711 238 589 b 24 204 117 379 67 293 b 4 160 17 190 11 175 b 3 150 3 157 3 153 b 14 133 3 143 6 138 b 26 126 18 131 22 128 b 40 121 33 124 38 121 b 51 135 46 121 47 125 b 99 228 65 167 82 199 b 343 646 178 369 260 508 b 475 868 389 719 433 792 b 483 890 481 878 483 885 b 464 910 483 897 478 901 b 460 911 463 910 461 911 b 443 917 454 915 449 917 b 426 910 438 917 432 915 b 351 878 406 892 381 881 b 347 874 350 878 347 876 b 397 858 361 858 361 858 z "},"2":{"ha":1025,"x_min":0,"x_max":0,"o":"m 394 708 b 386 731 389 719 386 725 b 397 750 386 736 390 740 b 401 756 399 751 400 754 b 644 890 465 832 546 878 b 658 892 650 890 654 892 b 696 856 683 892 696 879 b 693 836 696 850 694 843 b 656 749 688 804 672 776 b 489 544 610 672 550 608 b 224 304 406 458 317 379 b 44 185 168 260 114 210 b 8 161 31 181 19 171 b 3 150 4 157 3 153 b 10 139 3 146 4 143 b 40 128 19 132 31 128 b 64 135 47 128 56 131 b 138 179 89 149 114 163 b 206 200 158 194 181 199 l 213 200 b 314 175 247 200 281 189 b 443 133 356 157 397 142 b 471 132 451 132 461 132 b 636 225 536 132 601 167 b 640 236 638 229 640 232 b 632 247 640 240 638 243 b 621 253 628 250 624 253 b 608 244 617 253 613 250 b 593 225 603 238 599 231 b 451 154 556 179 508 154 b 433 156 446 154 439 156 b 319 189 393 160 356 172 b 222 219 288 201 257 215 b 211 228 218 221 213 219 b 239 250 219 235 229 242 b 621 601 378 354 508 468 b 721 744 660 646 694 692 b 743 814 731 767 740 789 b 744 828 743 818 744 822 b 713 888 744 851 733 872 b 618 919 683 910 651 919 b 576 914 604 919 590 917 b 379 792 497 896 432 854 b 354 751 368 779 360 765 b 351 739 353 747 351 743 b 358 724 351 733 353 729 b 394 708 367 715 378 708 z "},"3":{"ha":985,"x_min":0,"x_max":0,"o":"m 469 642 b 483 653 472 650 478 651 b 601 726 524 675 563 700 b 676 790 628 746 654 767 b 700 828 686 801 694 814 b 704 846 703 835 704 840 b 686 878 704 858 699 868 b 618 914 667 893 644 907 b 557 922 597 919 578 922 b 419 885 510 922 464 907 b 404 874 414 882 408 878 b 396 861 400 871 396 867 b 397 857 396 860 397 858 b 414 844 400 849 407 846 l 417 844 b 429 851 422 844 425 849 b 578 894 476 881 525 894 b 635 889 596 894 615 893 b 656 868 650 886 656 879 b 653 853 656 864 654 858 b 636 826 649 843 643 835 b 590 782 622 810 607 796 b 457 693 549 750 504 719 b 317 632 413 669 368 643 b 301 625 313 631 307 628 b 297 618 299 624 297 621 b 300 613 297 617 299 614 b 344 592 308 601 329 592 b 357 594 350 592 353 593 b 447 610 386 607 415 610 l 461 610 b 560 596 494 610 526 606 b 607 542 586 588 601 568 b 608 522 608 535 608 529 b 599 476 608 507 606 492 b 567 421 590 457 579 438 b 256 189 483 315 379 239 b 149 167 221 175 186 167 b 125 168 140 167 133 167 b 69 196 103 171 83 178 b 53 244 58 210 53 226 b 64 285 53 258 57 272 b 115 339 76 307 94 324 b 143 360 124 346 133 353 b 147 367 144 361 147 364 b 146 369 147 367 147 368 b 114 386 142 378 125 386 b 108 385 113 386 110 385 b 19 304 74 364 40 340 b 7 260 11 289 7 274 b 35 201 7 239 17 219 b 139 142 64 172 100 153 b 186 135 154 138 171 135 b 254 146 210 135 232 139 b 553 318 368 178 465 239 b 640 422 586 349 617 382 b 664 496 656 449 664 474 b 596 596 664 535 640 568 b 469 642 557 619 515 635 z "},"4":{"ha":925,"x_min":0,"x_max":0,"o":"m 493 538 b 497 535 494 538 496 536 b 492 522 494 531 493 526 b 396 347 460 464 426 406 b 315 181 367 293 338 239 b 310 158 311 171 310 164 b 332 135 310 149 315 143 b 344 131 338 132 342 131 b 356 144 349 131 351 135 b 383 204 363 165 372 185 b 574 549 443 321 510 435 b 638 667 594 588 617 626 b 644 683 640 672 644 678 b 643 689 644 685 644 688 b 607 711 635 701 621 708 l 604 711 b 588 696 594 711 592 701 b 415 515 539 626 482 567 b 150 390 336 453 249 408 b 110 388 136 388 122 388 b 76 389 99 388 88 388 b 53 410 61 392 53 397 b 56 424 53 414 54 418 b 74 460 58 436 65 449 b 124 517 89 481 106 499 b 360 726 199 590 279 658 b 529 881 417 776 476 825 b 561 917 540 892 550 904 b 567 929 563 921 567 925 b 564 935 567 931 565 933 b 529 956 556 946 542 951 b 524 957 528 957 525 957 b 504 943 515 957 510 949 b 444 883 485 924 465 903 b 164 640 351 801 254 724 b 32 503 117 597 71 553 b 7 454 21 488 13 471 b 4 436 6 447 4 442 b 21 401 4 422 10 410 b 118 360 49 378 81 361 l 126 360 b 242 383 167 360 204 369 b 454 508 319 413 390 456 b 493 538 467 518 481 528 z "},"5":{"ha":967,"x_min":0,"x_max":0,"o":"m 100 475 l 100 479 b 104 493 100 485 101 489 b 122 531 110 506 115 518 b 354 825 186 639 265 736 b 389 843 364 835 375 840 b 539 865 438 853 489 861 b 578 867 551 867 565 867 b 624 864 593 867 608 867 b 635 858 632 863 635 861 b 632 849 635 856 635 853 b 628 835 629 842 628 838 b 640 822 628 831 631 828 b 660 814 646 818 653 814 l 664 814 b 686 839 676 817 682 828 b 688 846 688 842 688 843 b 678 863 688 853 685 858 b 613 894 657 876 638 889 b 535 900 588 899 561 900 b 465 897 511 900 489 899 b 444 896 458 896 451 896 b 393 911 426 896 410 900 b 379 917 389 915 383 917 b 363 910 374 917 368 914 b 329 885 351 901 340 894 b 163 711 267 833 213 775 b 58 540 122 658 83 603 b 46 490 51 524 46 508 b 53 468 46 482 47 475 b 113 440 63 451 90 440 b 126 442 118 440 122 440 b 193 465 149 449 171 457 b 376 528 253 488 314 511 b 457 542 403 535 429 542 l 465 542 b 489 517 485 540 489 536 b 474 460 489 496 482 478 b 401 360 456 422 431 390 b 203 208 344 299 275 251 b 86 161 167 188 128 172 b 60 158 78 160 68 158 b 47 169 50 158 47 163 l 47 174 b 69 217 51 190 60 204 b 75 229 74 221 75 225 b 68 242 75 233 74 238 b 47 251 58 247 51 251 b 35 243 42 251 39 249 b 6 196 22 229 13 214 b 3 181 4 190 3 186 b 21 151 3 169 8 160 b 93 126 43 135 67 126 b 119 129 101 126 111 128 b 326 224 196 146 263 181 b 503 399 394 272 457 326 b 533 467 517 419 528 443 b 538 497 535 476 538 488 b 525 529 538 508 535 519 b 436 571 500 554 471 571 l 425 571 b 357 560 401 569 379 565 b 149 489 286 542 217 514 b 100 475 133 483 118 476 z "},"6":{"ha":942,"x_min":0,"x_max":0,"o":"m 224 569 b 285 639 247 592 264 618 b 432 775 332 686 381 732 b 578 871 476 811 526 843 b 601 882 585 875 593 879 b 613 885 607 883 610 885 b 622 871 619 885 622 881 l 622 865 b 617 839 621 856 618 847 b 628 821 617 831 621 825 b 633 819 629 821 631 819 b 644 828 638 819 642 824 b 663 864 653 839 660 850 l 663 871 b 653 893 663 879 661 888 b 588 919 633 907 614 919 l 579 919 b 531 906 563 917 547 913 b 364 799 469 881 415 840 b 243 686 322 764 281 726 b 78 476 181 621 125 553 b 6 300 43 422 15 364 b 3 264 4 288 3 275 b 21 189 3 238 7 213 b 143 126 40 157 92 126 b 171 129 153 126 163 128 b 215 140 186 132 200 136 b 311 186 250 150 281 169 b 439 274 357 211 400 239 b 529 363 471 301 503 329 b 588 451 550 392 569 421 b 618 543 604 481 614 511 l 618 553 b 601 600 618 569 614 588 b 504 646 575 626 543 644 b 439 640 483 646 461 644 b 331 615 403 635 367 628 b 224 569 294 601 260 586 z m 131 154 l 115 154 b 53 206 75 154 63 167 b 50 236 50 217 50 226 b 60 294 50 256 53 275 b 133 451 78 350 104 401 b 143 467 138 457 140 461 b 157 476 147 472 151 476 b 169 472 161 476 165 475 b 185 464 175 467 181 464 b 200 481 190 464 196 469 b 247 532 208 503 226 518 b 424 603 300 569 361 588 b 508 617 451 608 479 614 b 526 618 515 618 521 618 b 574 569 558 618 574 603 b 572 554 574 565 572 560 b 558 499 569 536 565 517 b 486 375 540 453 517 413 b 356 253 449 328 403 289 b 228 182 315 224 274 200 b 172 160 210 175 192 165 b 131 154 157 157 143 154 z "},"7":{"ha":910,"x_min":0,"x_max":0,"o":"m 201 472 b 182 442 196 460 189 450 b 44 263 133 385 88 325 b 15 213 33 246 24 229 b 3 175 8 201 6 189 b 1 167 3 172 1 169 b 17 143 1 157 7 149 b 36 132 24 139 31 135 b 44 129 39 131 42 129 b 51 140 49 129 51 133 b 63 179 51 154 57 167 b 100 242 74 201 86 222 b 178 342 126 275 150 310 b 483 694 276 463 376 581 b 599 819 522 736 561 778 b 628 861 610 832 621 846 b 631 874 629 865 631 869 b 624 886 631 879 628 883 b 557 918 604 901 583 917 b 525 919 546 918 536 919 b 411 911 488 919 449 915 b 229 889 350 906 290 897 b 124 868 193 883 158 879 b 86 839 108 864 89 860 l 86 835 b 114 806 86 819 103 814 b 163 769 131 794 147 783 b 182 753 168 764 175 753 b 189 757 185 753 186 754 b 190 761 190 758 190 760 b 174 781 190 768 181 775 b 140 804 163 789 151 796 b 129 818 133 810 129 814 b 143 829 129 822 133 825 b 172 840 153 833 163 838 b 367 871 236 856 301 864 b 494 885 410 876 451 881 b 535 886 507 886 521 886 b 568 883 546 886 557 886 b 533 839 560 865 546 851 b 449 749 506 808 476 779 b 263 538 385 679 321 611 b 204 503 246 517 228 503 b 193 504 200 503 197 504 l 185 504 b 126 489 164 504 146 496 b 118 479 124 486 118 485 b 119 475 118 478 119 476 b 157 457 124 465 143 457 b 164 458 160 457 163 458 b 201 472 175 464 186 469 z "},"8":{"ha":1013,"x_min":0,"x_max":0,"o":"m 286 571 b 233 536 268 558 251 547 b 51 360 163 489 101 429 b 7 261 31 329 13 297 b 6 242 6 254 6 247 b 43 169 6 213 18 189 b 174 126 83 139 126 126 b 215 129 188 126 201 126 b 535 283 338 150 443 204 b 621 403 574 317 606 354 b 629 451 626 421 629 436 b 578 536 629 490 610 515 b 457 599 540 563 501 585 b 443 608 453 600 446 600 b 468 629 450 617 458 624 b 554 689 496 650 525 669 b 688 790 600 721 646 753 b 725 840 703 806 715 822 b 732 863 729 849 732 856 b 719 885 732 871 728 879 b 629 922 694 907 665 922 b 576 915 613 921 594 919 b 304 781 472 897 381 853 b 235 679 274 751 247 721 b 231 651 232 669 231 660 b 269 585 231 624 243 603 b 286 571 275 581 281 579 z m 578 481 b 544 371 576 433 564 401 b 478 296 526 342 504 318 b 207 163 399 229 310 181 b 140 154 185 158 163 154 b 101 158 128 154 114 156 b 58 204 75 164 61 176 l 58 211 b 67 257 58 226 63 242 b 138 367 82 299 110 332 b 390 568 208 450 294 515 b 429 581 403 575 415 581 b 439 579 432 581 436 579 b 543 542 476 574 511 564 b 578 481 567 524 578 500 z m 272 621 l 272 638 b 282 674 272 651 276 663 b 364 771 300 714 331 743 b 603 883 435 826 514 867 b 658 890 622 886 640 889 l 664 890 b 675 883 671 890 675 889 b 671 871 675 881 674 876 b 607 801 656 843 632 821 b 406 653 543 749 475 700 b 319 596 376 633 350 611 b 296 589 310 592 301 589 b 272 621 282 589 274 599 z "},"9":{"ha":857,"x_min":0,"x_max":0,"o":"m 517 818 b 519 813 518 815 519 814 b 517 803 519 808 518 806 b 443 629 500 742 474 685 b 251 331 386 525 321 426 b 133 186 214 281 176 231 b 92 156 121 174 108 163 b 82 147 88 154 82 154 b 118 126 96 133 107 126 b 150 140 128 126 138 132 b 206 192 171 154 189 172 b 419 482 285 282 354 381 b 519 656 456 539 492 594 b 574 824 546 708 565 764 b 575 835 574 828 575 831 b 525 888 575 863 554 886 b 482 900 508 888 494 893 b 447 913 471 906 460 910 b 386 921 426 918 406 921 b 286 901 351 921 318 914 b 35 679 174 860 93 782 b 8 601 21 654 13 629 b 7 589 8 597 7 593 b 97 500 7 539 47 500 l 106 500 b 201 536 142 504 172 518 b 439 736 292 589 367 660 b 517 818 464 763 490 790 z m 54 551 l 54 561 b 68 618 54 582 60 600 b 379 882 135 750 235 843 b 435 890 397 888 415 890 b 468 886 446 890 457 889 b 488 881 475 885 481 883 b 493 872 492 879 493 876 b 492 867 493 871 493 869 b 485 860 489 864 488 861 b 313 665 431 793 375 725 b 144 546 261 618 207 576 b 85 526 125 538 106 529 b 74 525 81 526 78 525 b 54 551 60 525 56 532 z "}," ":{"ha":347,"x_min":0,"x_max":0,"o":""}," ":{"ha":347,"x_min":0,"x_max":0,"o":""},"!":{"ha":778,"x_min":0,"x_max":0,"o":"m 92 335 b 90 329 92 333 90 331 b 114 307 90 315 104 313 b 125 303 119 304 124 303 b 135 315 129 303 132 306 b 160 374 140 336 150 354 b 476 857 256 540 361 703 b 493 885 488 871 493 879 b 464 907 493 893 483 897 b 451 911 460 910 454 911 b 436 903 446 911 440 908 b 401 856 425 888 413 872 b 218 575 336 765 276 671 b 107 381 178 511 139 447 b 92 335 100 365 94 351 z m 104 228 b 78 261 104 244 96 251 b 68 264 74 263 71 264 b 49 251 60 264 54 257 b 10 197 33 235 19 218 b 3 178 6 189 3 183 b 14 160 3 171 7 165 b 38 150 22 153 31 150 b 58 158 44 150 50 153 b 94 200 72 169 86 183 b 104 228 100 208 104 218 z "},"\"":{"ha":526,"x_min":0,"x_max":0,"o":"m 3 754 b 1 749 3 751 1 750 l 1 747 b 47 707 4 726 26 707 b 65 713 54 707 60 710 b 124 790 93 731 115 756 b 125 801 125 794 125 799 b 89 849 125 822 110 842 b 83 850 88 849 85 850 b 68 840 76 850 72 846 b 53 800 57 828 53 814 b 56 779 53 793 53 786 b 60 767 57 775 60 771 b 57 761 60 765 58 763 b 36 742 51 753 44 746 b 32 740 35 740 33 740 b 22 744 28 740 25 743 b 3 754 17 749 13 754 z m 121 754 b 119 749 121 751 119 750 l 119 747 b 165 707 122 726 144 707 b 183 713 172 707 178 710 b 242 790 211 731 233 756 b 243 801 243 794 243 799 b 207 849 243 822 228 842 b 201 850 206 849 203 850 b 186 840 194 850 190 846 b 171 800 175 828 171 814 b 174 779 171 793 171 786 b 178 767 175 775 178 771 b 175 761 178 765 176 763 b 154 742 169 753 163 746 b 150 740 153 740 151 740 b 140 744 146 740 143 743 b 121 754 135 749 131 754 z "},"#":{"ha":1018,"x_min":0,"x_max":0,"o":"m 603 511 l 603 514 b 610 529 603 521 607 524 l 681 638 b 689 654 686 646 689 650 b 672 671 689 660 683 664 b 660 674 668 672 664 674 b 646 667 654 674 650 672 b 624 638 639 657 631 647 b 539 525 597 599 568 561 b 507 510 529 514 521 510 l 393 510 b 382 515 389 510 385 510 b 385 524 383 517 383 521 b 410 563 393 536 401 549 b 415 576 413 567 415 571 b 414 581 415 578 414 579 b 383 600 407 592 394 596 l 379 600 b 365 588 372 600 369 593 b 318 519 349 565 333 542 b 294 506 313 511 306 506 b 151 496 246 506 199 500 b 85 483 129 493 107 490 b 74 475 78 482 74 478 b 81 465 74 472 76 468 b 111 453 90 457 100 453 b 121 454 115 453 118 454 b 258 468 167 463 213 467 b 268 469 263 468 265 469 b 276 465 272 469 275 468 l 276 463 b 274 454 276 458 275 457 b 174 294 238 403 204 350 b 146 281 168 283 158 281 b 35 276 108 279 72 278 b 0 267 22 275 11 274 b 8 258 4 263 6 260 b 54 244 22 247 38 244 b 83 246 64 244 74 246 b 118 249 94 247 107 249 l 132 249 b 143 243 140 249 143 247 b 140 233 143 242 142 238 b 113 172 131 213 121 193 b 103 125 107 157 104 140 l 103 121 b 151 79 103 99 129 79 b 167 83 157 79 163 81 b 206 110 181 92 193 100 b 326 232 250 146 289 188 b 354 247 336 242 344 247 b 371 243 360 247 365 246 b 372 238 371 242 372 239 b 364 222 372 232 367 226 b 311 124 347 189 329 157 b 269 28 294 93 279 61 b 267 13 268 22 267 18 b 290 -12 267 0 275 -7 b 297 -14 293 -14 294 -14 b 304 -4 301 -14 303 -11 b 318 36 306 10 313 24 b 422 229 349 103 386 165 b 446 244 428 239 436 244 l 450 244 b 547 226 482 239 517 244 b 551 225 547 225 550 225 b 556 224 553 225 554 224 b 560 226 557 224 558 225 b 561 231 561 228 561 229 b 558 236 561 232 560 235 b 546 246 554 239 550 243 b 472 267 524 261 499 265 b 454 278 460 268 454 271 b 458 290 454 281 456 285 b 565 461 494 347 529 404 b 594 478 572 474 581 478 b 735 463 642 478 689 478 b 740 467 736 463 739 464 b 729 478 739 474 733 475 b 640 506 703 497 672 504 l 629 506 b 603 511 619 506 611 506 z m 232 278 l 232 281 b 239 299 232 290 236 293 b 339 453 271 351 304 403 b 374 474 347 467 357 472 b 471 478 406 476 438 478 b 482 479 475 478 478 479 b 492 475 485 479 489 478 b 493 471 492 474 493 472 b 488 463 493 468 490 465 b 343 292 439 406 390 349 b 314 276 335 282 325 276 l 261 276 b 232 278 251 276 242 276 z m 142 106 b 149 133 142 117 144 125 b 201 235 163 169 182 203 b 219 249 206 243 210 249 l 297 249 b 142 106 288 217 178 117 z m 435 351 b 399 283 426 326 413 306 b 389 276 396 278 393 276 b 372 279 385 276 381 278 b 435 351 390 306 413 328 z "},"$":{"ha":813,"x_min":0,"x_max":0,"o":"m 535 911 b 517 928 533 921 524 924 b 499 936 508 933 503 936 b 482 921 493 936 489 931 b 407 810 457 883 432 847 b 379 793 400 799 390 793 l 375 793 b 308 783 353 793 331 788 b 136 711 247 768 189 746 b 99 678 122 701 108 692 b 85 644 89 665 85 654 b 103 608 85 632 90 621 b 138 582 113 599 125 589 b 201 546 158 569 181 558 b 222 529 215 538 222 535 b 211 508 222 525 218 518 b 97 322 174 447 135 385 b 75 285 89 310 82 297 b 60 276 71 279 65 276 b 53 278 58 276 56 276 b 42 294 44 281 43 288 b 57 335 42 311 47 324 b 106 382 71 353 88 368 b 117 396 113 388 117 392 b 103 408 117 400 111 404 b 94 410 100 410 97 410 b 81 404 90 410 85 408 b 22 350 58 389 39 371 b 8 328 17 343 13 336 b 4 310 6 321 4 315 b 22 278 4 297 11 288 b 46 264 29 272 38 268 b 54 254 51 261 54 258 b 51 246 54 251 53 249 b 18 186 39 225 28 206 b 14 174 15 181 14 176 b 32 156 14 167 19 163 b 44 151 38 153 42 151 b 58 165 49 151 53 156 b 99 233 71 188 85 211 b 122 250 104 243 111 249 b 286 325 186 254 239 283 b 329 383 306 342 319 360 b 339 424 336 397 339 411 b 315 482 339 444 331 464 b 289 507 307 492 299 500 b 282 519 283 511 282 515 b 285 531 282 524 282 526 b 425 743 332 601 379 672 b 450 757 432 754 440 757 b 461 756 453 757 457 756 b 489 735 476 756 483 747 b 494 708 492 726 492 717 b 515 692 496 699 506 692 b 529 713 526 692 528 703 l 529 717 b 514 746 529 728 522 739 b 472 774 501 758 486 765 b 457 788 461 779 457 782 b 465 803 457 790 460 794 b 503 858 478 821 490 840 b 529 897 513 871 521 885 b 535 911 532 901 535 906 z m 357 746 b 358 740 357 744 358 742 b 351 728 358 735 354 731 b 246 564 317 672 282 618 b 231 549 239 553 236 549 b 214 556 226 549 222 551 b 164 583 197 564 179 574 b 140 615 149 593 140 604 b 154 644 140 624 144 633 b 169 660 158 650 164 654 b 357 746 225 701 289 726 z m 136 285 l 135 285 b 133 289 135 286 133 288 b 140 300 133 293 138 297 b 257 485 179 363 218 424 b 263 496 258 489 260 492 b 268 499 265 497 267 499 b 274 496 269 499 272 497 b 297 440 286 479 297 461 b 296 429 297 436 296 433 b 269 372 293 407 283 389 b 143 286 236 331 193 303 b 136 285 142 285 139 285 z "},"%":{"ha":842,"x_min":0,"x_max":0,"o":"m 486 908 l 504 908 b 521 899 515 908 521 906 b 518 888 521 896 519 892 b 501 854 514 875 508 865 b 406 729 472 810 439 769 b 88 318 297 593 189 458 b 13 201 60 281 33 243 b 6 179 8 193 6 185 b 32 151 6 167 14 158 b 38 150 35 150 36 150 b 47 158 42 150 46 153 b 82 225 54 183 68 203 l 128 288 b 400 639 215 408 308 524 b 526 806 444 693 488 749 b 558 868 539 825 551 846 b 563 886 561 874 563 881 b 551 908 563 894 558 901 b 486 935 532 925 510 935 l 481 935 b 257 882 403 928 329 910 b 206 853 239 875 221 865 b 181 807 190 839 181 825 b 185 786 181 800 182 793 b 201 747 190 774 194 760 b 204 736 204 743 204 740 b 197 719 204 731 203 725 b 153 644 179 697 165 671 b 142 600 146 631 142 617 l 142 597 b 178 554 142 572 160 564 b 197 549 185 550 190 549 b 225 561 207 549 217 553 b 264 642 250 583 264 610 b 263 661 264 649 264 654 b 258 694 260 672 258 683 b 281 735 258 710 263 724 b 286 743 283 738 286 740 b 282 750 286 744 285 747 b 250 764 275 758 261 764 b 239 761 246 764 242 763 b 231 758 236 760 233 758 b 221 769 225 758 222 764 b 215 794 217 778 215 786 b 235 835 215 810 222 822 b 264 854 244 843 253 849 b 486 908 335 886 410 901 z m 185 583 b 224 665 190 615 208 639 b 225 651 225 661 225 656 b 185 583 225 625 210 597 z m 397 410 l 397 411 b 389 438 397 418 389 428 b 357 467 389 458 369 458 b 349 469 354 468 351 469 b 328 456 342 469 335 463 b 268 374 306 431 285 404 b 256 335 263 361 258 349 b 254 322 254 331 254 326 b 269 292 254 310 258 300 b 301 281 279 285 290 281 b 322 286 308 281 315 282 b 397 410 367 313 390 353 z m 296 311 b 361 407 304 340 333 383 b 296 311 361 372 331 324 z "},"&":{"ha":761,"x_min":0,"x_max":0,"o":"m 92 313 b 85 304 89 310 86 307 b 83 301 85 303 85 303 b 18 204 61 269 39 238 b 6 178 10 192 6 183 b 13 168 6 174 8 171 b 32 156 17 164 22 160 b 49 149 39 151 44 149 b 65 164 56 149 61 154 b 94 213 75 179 85 196 l 122 260 b 133 289 129 272 133 282 b 129 297 133 293 132 296 b 118 304 126 299 122 301 l 108 310 b 103 314 106 311 104 313 b 133 313 113 314 124 314 l 144 313 b 340 381 218 313 283 335 b 386 426 358 393 374 408 b 392 432 388 428 390 431 b 393 438 393 433 393 435 b 392 442 393 439 393 440 b 382 453 390 446 386 450 b 367 456 378 454 372 456 b 350 449 360 456 354 453 b 174 347 301 396 243 363 b 113 340 153 343 133 340 b 89 342 106 340 97 340 b 63 364 71 343 63 351 b 65 379 63 368 64 374 b 100 439 72 403 83 422 b 332 557 164 506 242 544 l 336 557 b 347 560 340 558 343 558 b 357 567 351 561 354 563 b 304 594 342 582 324 590 b 258 607 289 596 274 600 b 236 618 250 610 243 614 b 225 639 229 622 226 629 l 225 642 b 235 663 225 650 228 657 b 254 674 240 667 247 671 b 371 697 293 689 332 697 l 385 697 b 415 661 406 697 415 685 b 410 631 415 650 414 640 b 408 624 408 629 408 626 b 415 613 408 619 411 615 b 422 611 418 611 421 611 b 435 617 426 611 431 613 b 454 654 447 629 454 642 b 431 694 454 669 446 682 b 378 724 415 706 397 715 b 365 733 369 726 365 729 b 371 744 365 736 367 740 b 408 800 383 764 396 782 b 419 815 413 804 415 810 b 453 864 431 832 442 849 b 468 885 458 871 464 878 b 479 906 475 894 479 901 b 475 914 479 908 478 911 b 461 922 472 915 468 918 b 460 924 460 922 460 922 l 457 924 b 440 932 450 929 444 932 b 433 929 438 932 435 931 b 425 918 432 926 429 922 b 333 778 393 872 363 826 b 321 754 328 771 324 763 l 321 751 b 324 744 321 749 322 746 b 328 740 325 743 326 742 b 333 736 329 739 332 738 b 336 731 335 735 335 732 l 303 731 b 219 715 274 731 246 725 b 188 696 208 711 197 704 b 172 668 178 688 172 678 b 181 644 172 661 175 653 b 210 617 188 632 197 624 b 221 610 214 615 217 613 b 253 590 232 604 243 597 l 250 588 b 236 583 244 586 240 585 b 56 478 165 565 106 531 b 14 407 36 458 22 435 b 13 392 13 401 13 396 b 36 347 13 374 21 360 b 99 317 54 333 75 324 b 92 313 96 315 93 314 z "},"'":{"ha":408,"x_min":0,"x_max":0,"o":"m 3 754 b 1 749 3 751 1 750 l 1 747 b 47 707 4 726 26 707 b 65 713 54 707 60 710 b 124 790 93 731 115 756 b 125 801 125 794 125 799 b 89 849 125 822 110 842 b 83 850 88 849 85 850 b 68 840 76 850 72 846 b 53 800 57 828 53 814 b 56 779 53 793 53 786 b 60 767 57 775 60 771 b 57 761 60 765 58 763 b 36 742 51 753 44 746 b 32 740 35 740 33 740 b 22 744 28 740 25 743 b 3 754 17 749 13 754 z "},"(":{"ha":806,"x_min":0,"x_max":0,"o":"m 0 440 b 25 296 4 390 10 342 b 125 169 42 240 72 197 b 176 157 142 161 158 157 b 214 164 189 157 201 160 b 235 179 221 167 232 168 b 203 196 235 185 214 196 l 201 196 b 190 192 199 196 194 193 b 149 182 174 185 160 182 b 89 229 124 182 107 196 b 86 233 89 231 88 232 b 49 397 61 286 49 340 b 54 458 49 417 51 438 b 178 717 69 556 118 640 b 371 872 231 783 294 836 b 456 893 399 883 425 893 l 460 893 b 490 874 475 893 483 888 b 511 850 494 864 501 856 b 518 849 514 849 515 849 b 522 850 519 849 521 849 b 528 858 526 851 528 856 b 526 863 528 860 526 861 b 506 892 524 875 517 885 b 457 919 490 903 475 913 b 415 928 443 925 431 928 b 400 926 411 928 406 928 b 243 861 342 921 290 894 b 17 539 131 781 58 671 b 0 440 6 507 3 472 z "},")":{"ha":806,"x_min":0,"x_max":0,"o":"m 528 644 b 504 789 524 694 519 743 b 403 914 486 843 456 888 b 351 928 386 924 368 928 b 314 921 339 928 326 925 b 294 906 307 918 296 917 b 324 889 294 899 313 889 l 326 889 b 338 892 329 889 333 890 b 381 903 354 899 368 903 b 439 856 404 903 421 888 b 442 851 440 854 440 853 b 479 688 467 799 479 744 b 474 626 479 668 476 647 b 350 368 458 529 410 444 b 157 213 297 301 235 249 b 72 190 131 200 103 192 b 38 211 56 190 44 196 b 17 235 33 221 26 229 b 10 236 14 236 13 236 b 6 235 8 236 7 236 b 0 226 1 233 0 229 b 1 222 0 225 1 224 b 22 193 4 210 11 200 b 71 165 38 182 53 172 b 118 157 86 160 101 157 l 128 157 b 285 224 186 164 238 189 b 511 546 399 304 469 414 b 528 644 522 578 525 611 z "},"*":{"ha":568,"x_min":0,"x_max":0,"o":"m 211 693 l 214 693 b 199 711 211 704 204 707 b 157 747 185 724 171 736 b 149 758 153 751 149 753 l 149 761 b 163 768 150 767 157 767 b 189 775 171 771 179 772 b 274 796 217 782 244 788 b 289 804 279 797 288 797 l 289 806 b 275 818 289 814 281 815 b 257 825 269 822 264 825 b 243 822 253 825 247 824 b 190 813 226 819 211 814 b 225 851 204 828 214 839 b 231 861 228 854 231 858 b 222 871 231 864 228 868 b 204 881 215 876 210 881 b 186 868 199 881 193 876 b 128 803 167 846 147 824 b 113 793 122 796 117 793 b 96 803 108 793 103 796 b 76 821 89 808 83 815 b 32 842 65 831 53 842 b 81 786 44 817 68 806 b 67 779 76 781 71 781 b 11 763 47 774 29 768 b 1 756 7 761 3 760 l 1 754 b 10 744 1 750 6 747 b 28 739 15 740 22 739 b 50 742 35 739 43 740 b 65 744 56 743 60 744 b 75 742 68 744 71 744 b 53 703 68 728 60 717 b 50 693 51 699 50 696 b 63 678 50 686 54 682 b 71 675 65 676 68 675 b 83 686 76 675 81 681 b 114 728 92 701 103 715 b 131 743 122 738 126 743 b 150 732 136 743 140 739 b 182 706 161 722 171 714 b 211 693 190 700 199 693 z "},"+":{"ha":606,"x_min":0,"x_max":0,"o":"m 207 350 b 256 418 224 378 240 399 b 264 431 258 422 264 426 b 263 435 264 432 264 433 b 233 454 257 446 244 450 b 228 456 232 456 231 456 b 214 443 222 456 217 449 b 164 368 197 419 179 394 b 133 350 157 356 147 350 l 36 350 b 0 340 24 350 11 349 b 44 308 13 325 31 318 b 81 299 56 300 68 299 l 99 299 b 117 297 104 299 111 299 l 117 294 b 108 271 117 285 113 278 b 97 226 103 257 97 242 b 119 204 97 217 107 207 l 124 204 b 133 219 132 204 132 214 b 163 283 140 243 153 263 b 193 303 169 297 178 303 l 313 303 b 328 308 318 303 324 303 b 207 350 296 343 254 346 z "},",":{"ha":401,"x_min":0,"x_max":0,"o":"m 68 261 b 44 251 57 261 49 260 b 43 249 44 250 43 250 b 49 239 43 246 46 242 b 57 225 54 232 57 228 b 44 210 57 221 53 217 b 8 182 32 201 21 192 b 3 174 6 179 3 176 b 6 167 3 171 4 169 b 28 157 11 160 19 157 b 43 161 33 157 38 158 b 106 206 64 175 86 190 b 121 222 111 211 117 217 b 122 229 122 225 122 226 b 119 236 122 232 122 235 b 68 261 103 249 86 260 z "},"-":{"ha":606,"x_min":0,"x_max":0,"o":"m 0 347 b 86 304 22 321 57 304 b 232 308 135 306 183 308 l 318 308 b 328 315 322 308 326 310 b 325 319 326 317 326 318 b 319 324 324 321 321 322 b 210 354 288 349 249 354 b 38 356 151 356 94 356 b 0 347 25 356 13 354 z "},"­":{"ha":606,"x_min":0,"x_max":0,"o":"m 0 347 b 86 304 22 321 57 304 b 232 308 135 306 183 308 l 318 308 b 328 315 322 308 326 310 b 325 319 326 317 326 318 b 319 324 324 321 321 322 b 210 354 288 349 249 354 b 38 356 151 356 94 356 b 0 347 25 356 13 354 z "},".":{"ha":354,"x_min":0,"x_max":0,"o":"m 32 186 b 47 193 38 186 43 189 b 67 217 54 200 61 208 b 72 235 71 224 72 229 b 57 254 72 242 67 249 b 39 261 49 258 44 261 b 22 246 33 261 29 257 b 8 222 17 239 13 231 b 6 211 7 218 6 215 b 32 186 6 199 17 188 z "},"/":{"ha":967,"x_min":0,"x_max":0,"o":"m 35 161 b 47 169 42 161 44 165 b 74 211 56 183 64 197 b 185 346 108 257 147 301 b 668 868 339 526 499 703 b 685 886 674 874 681 879 b 688 893 686 888 688 890 b 686 897 688 894 688 896 b 653 917 676 906 665 913 l 649 917 b 631 904 642 917 636 910 b 563 839 607 883 585 861 b 378 643 499 776 438 710 b 94 315 281 536 186 426 b 13 201 65 279 36 242 b 7 185 8 196 7 190 b 35 161 7 172 18 163 z "},":":{"ha":447,"x_min":0,"x_max":0,"o":"m 46 276 b 3 250 31 276 8 261 b 1 243 1 247 1 246 b 3 238 1 242 1 239 b 40 218 7 229 28 218 b 44 219 42 218 43 219 b 78 243 58 225 68 233 b 82 251 81 246 82 249 b 78 258 82 254 81 257 b 46 276 68 268 58 275 z m 169 421 b 165 428 168 422 167 426 b 132 442 157 438 144 442 b 90 417 114 442 97 433 b 89 411 89 414 89 413 b 92 403 89 408 90 406 b 124 389 100 393 113 389 b 167 415 142 389 160 399 b 169 421 168 417 168 418 z "},";":{"ha":486,"x_min":0,"x_max":0,"o":"m 208 421 b 204 428 207 422 206 426 b 171 442 196 438 183 442 b 129 417 153 442 136 433 b 128 411 128 414 128 413 b 131 403 128 408 129 406 b 163 389 139 393 151 389 b 206 415 181 389 199 399 b 208 421 207 417 207 418 z m 68 286 b 44 275 57 285 49 283 b 43 272 44 274 43 274 b 49 263 43 269 46 265 b 57 249 54 256 57 251 b 44 235 57 244 53 242 b 8 206 32 225 21 215 b 3 197 6 203 3 200 b 6 190 3 194 4 193 b 28 181 11 183 19 181 b 43 185 33 181 38 182 b 106 231 64 199 86 214 b 121 246 111 235 117 240 b 122 254 122 249 122 251 b 119 260 122 257 122 258 b 68 286 103 272 86 283 z "},"<":{"ha":579,"x_min":0,"x_max":0,"o":"m 300 204 b 272 222 293 217 282 218 b 172 253 239 232 206 242 b 85 288 142 263 113 272 b 63 307 75 292 63 296 l 63 308 b 85 331 63 321 75 325 b 236 406 135 356 186 381 b 292 436 256 415 274 425 b 299 443 296 439 299 442 b 290 451 299 447 296 449 b 257 458 279 456 268 458 b 222 447 244 458 233 456 b 186 429 211 440 199 436 b 26 351 133 403 79 379 b 0 319 14 343 0 338 b 26 290 0 304 14 297 b 92 263 47 278 68 269 b 265 207 149 243 207 225 b 288 201 272 206 279 201 b 300 204 292 201 296 203 z "},"=":{"ha":624,"x_min":0,"x_max":0,"o":"m 310 261 b 246 293 289 276 271 292 b 83 299 192 299 138 299 l 19 299 b 10 297 17 299 14 299 b 3 293 7 297 4 296 b 1 290 1 292 1 290 b 7 283 1 286 4 285 b 85 251 31 268 54 251 l 89 251 b 290 254 156 254 222 253 l 294 254 b 310 261 299 254 304 256 z m 344 357 b 346 363 344 358 346 361 b 257 400 319 383 292 399 b 101 406 206 403 153 406 l 53 406 b 46 401 50 406 47 406 b 44 399 44 400 44 399 b 50 392 44 394 47 393 b 132 358 75 375 100 358 l 136 358 b 206 360 160 360 183 360 b 301 358 238 360 269 360 b 344 357 315 358 331 357 z "},">":{"ha":579,"x_min":0,"x_max":0,"o":"m 1 456 b 29 439 8 443 19 442 b 129 408 63 428 96 418 b 217 374 160 399 189 388 b 239 353 226 368 239 364 l 239 351 b 217 329 239 339 226 335 b 65 254 167 304 115 279 b 10 224 46 244 28 235 b 3 217 6 222 3 219 b 11 208 3 214 6 211 b 46 203 24 206 35 203 b 79 213 57 203 68 206 b 115 231 90 219 103 225 b 275 310 168 258 222 281 b 301 340 288 317 301 324 b 275 369 301 356 288 363 b 210 397 254 382 233 390 b 36 453 153 417 94 435 b 14 458 29 454 22 458 b 1 456 10 458 6 457 z "},"?":{"ha":885,"x_min":0,"x_max":0,"o":"m 174 578 l 182 578 b 206 579 192 578 199 578 l 214 579 b 224 586 219 579 224 581 b 207 596 224 594 214 594 l 188 596 b 138 601 171 596 154 597 b 99 647 111 607 100 621 b 113 699 99 665 104 682 b 164 763 126 722 143 743 b 429 889 240 829 331 869 b 488 894 449 892 468 894 b 528 890 500 894 514 893 b 553 863 544 886 553 878 l 553 856 b 543 828 551 846 547 836 b 506 776 533 808 521 793 b 399 682 474 742 435 713 b 126 415 301 599 210 511 b 79 350 108 394 92 374 b 71 329 75 343 71 336 b 72 321 71 326 71 324 b 119 296 76 308 101 296 b 129 297 124 296 126 296 b 139 306 136 300 139 303 b 132 314 139 308 138 311 b 124 326 126 318 124 322 b 129 339 124 331 126 335 b 168 388 142 356 154 372 b 435 643 250 481 340 564 b 558 753 478 679 521 713 b 596 813 574 771 588 790 b 601 839 599 822 601 831 b 572 886 601 858 592 874 b 476 925 543 907 513 922 b 450 926 468 926 458 926 b 399 922 433 926 415 925 b 115 789 292 906 196 864 b 58 697 89 764 68 733 b 56 674 56 689 56 682 b 88 611 56 649 67 626 b 174 578 113 590 142 578 z m 1 182 l 1 178 b 22 154 1 167 11 161 b 35 151 26 151 31 151 b 51 158 40 151 46 153 b 76 188 60 168 68 176 b 92 219 85 196 90 207 b 93 226 92 222 93 225 b 79 249 93 236 88 243 b 57 260 72 254 65 260 b 47 257 54 260 50 258 b 1 182 26 247 1 207 z "},"@":{"ha":978,"x_min":0,"x_max":0,"o":"m 53 146 l 53 164 b 92 319 53 221 69 269 b 411 649 160 465 268 574 b 567 690 460 675 511 690 l 581 690 b 651 640 617 689 638 672 b 661 603 657 629 660 617 b 663 582 661 596 663 589 b 638 465 663 543 651 503 b 539 293 614 403 578 346 b 400 150 499 239 454 190 b 365 129 389 142 378 135 b 354 126 361 128 357 126 b 347 136 349 126 347 129 l 347 143 b 364 206 350 164 356 186 b 438 363 383 260 410 311 b 494 458 456 394 476 426 b 501 472 497 463 501 468 b 500 478 501 475 501 476 b 472 493 496 488 485 493 b 456 488 467 493 460 492 b 419 449 444 475 432 461 b 397 431 408 436 403 431 b 374 442 392 431 385 435 b 343 451 363 449 353 451 b 310 442 332 451 321 449 b 254 394 289 428 271 413 b 192 292 228 364 204 331 b 189 276 190 286 189 281 b 201 251 189 267 193 258 b 229 240 211 244 219 240 b 249 246 236 240 242 242 b 282 271 260 254 272 261 b 335 317 300 285 318 301 b 351 328 340 322 344 328 b 360 325 354 328 357 328 b 364 317 363 322 364 319 b 358 303 364 313 360 307 b 326 217 346 275 335 246 b 315 158 321 197 317 179 l 315 153 b 363 106 315 125 338 106 b 388 113 371 106 379 108 b 444 154 408 125 426 139 b 624 369 517 217 574 290 b 694 544 658 424 685 481 b 696 575 696 556 696 565 b 661 667 696 610 688 642 b 532 719 626 701 581 719 l 526 719 b 415 696 489 718 451 710 b 124 476 299 650 201 575 b 11 242 69 407 29 329 b 4 181 7 221 4 200 b 26 88 4 149 10 118 b 153 -29 56 35 100 -3 b 256 -57 188 -47 222 -57 b 368 -25 293 -57 331 -46 b 457 54 403 -6 432 22 b 463 64 458 57 463 60 b 461 68 463 65 463 67 b 439 82 457 78 447 82 b 421 75 432 82 425 79 b 379 33 407 61 394 46 b 228 -29 335 -6 285 -29 b 204 -28 219 -29 213 -29 b 132 -1 178 -25 153 -18 b 53 146 83 38 53 85 z m 351 408 b 336 360 351 390 349 372 b 244 278 308 329 278 300 b 236 274 242 275 239 274 l 233 274 b 351 408 243 315 308 392 z "},"A":{"ha":1133,"x_min":0,"x_max":0,"o":"m 861 367 b 863 363 861 365 863 364 b 858 353 863 360 860 356 b 821 268 846 325 833 296 b 708 -78 772 157 731 43 b 697 -164 703 -107 697 -135 b 700 -196 697 -175 699 -185 b 753 -247 706 -228 728 -247 b 789 -235 765 -247 778 -243 b 894 -111 832 -201 865 -158 b 899 -100 897 -107 899 -103 b 882 -85 899 -93 893 -86 l 878 -85 b 864 -97 871 -85 868 -92 b 817 -161 849 -119 833 -142 b 761 -214 800 -181 782 -199 b 743 -222 753 -219 747 -222 b 733 -201 738 -222 735 -215 b 732 -183 733 -194 732 -189 b 735 -157 732 -175 733 -165 b 768 7 740 -101 751 -47 b 924 386 808 138 865 263 b 949 408 929 397 938 404 b 1022 451 974 421 999 436 b 1033 463 1026 454 1033 457 b 1032 467 1033 464 1033 465 b 1014 478 1029 474 1022 478 b 1008 476 1013 478 1010 476 b 990 465 1001 474 996 468 b 956 447 979 460 969 450 b 968 478 957 460 964 469 b 1157 857 1031 604 1094 731 b 1208 982 1176 897 1196 939 b 1219 1028 1214 997 1218 1013 b 1221 1038 1219 1032 1221 1035 b 1156 1101 1221 1074 1192 1101 b 1142 1100 1151 1101 1147 1101 b 1078 1078 1119 1096 1099 1088 b 978 1019 1043 1061 1010 1042 b 960 1013 971 1015 965 1013 b 946 1018 956 1013 950 1014 b 935 1022 942 1021 939 1022 b 917 1011 928 1022 922 1018 b 885 968 907 997 896 983 b 842 919 872 951 860 933 b 592 682 753 846 668 768 b 425 482 535 617 476 551 b 296 294 379 422 336 358 b 260 275 286 281 276 275 b 146 285 221 275 183 279 b 61 367 99 293 72 322 b 56 407 57 381 56 393 b 65 465 56 426 60 446 b 124 565 76 503 94 536 b 131 576 128 571 131 574 b 119 588 131 581 126 583 b 100 596 111 593 106 596 b 78 582 93 596 86 592 b 21 475 50 551 31 515 b 15 428 17 458 15 443 b 131 272 15 356 56 301 b 238 253 165 260 201 256 l 247 253 b 263 250 253 253 258 253 l 263 247 b 260 238 263 243 261 240 b 203 138 239 204 221 171 b 110 -74 168 69 133 0 b 97 -137 103 -94 99 -115 l 97 -143 b 121 -182 97 -160 104 -172 b 140 -187 128 -186 135 -187 b 169 -176 151 -187 160 -183 b 228 -119 192 -160 211 -140 b 396 115 286 -44 343 35 b 482 250 425 160 454 206 b 513 272 490 263 499 269 b 844 363 626 290 738 321 b 857 368 849 365 853 368 b 861 367 858 368 860 367 z m 519 303 l 519 306 b 531 325 519 313 525 318 b 747 674 603 442 674 558 b 889 892 794 746 842 819 b 965 972 911 922 935 950 b 1124 1063 1015 1007 1067 1039 b 1156 1074 1133 1067 1144 1071 b 1168 1075 1161 1075 1165 1075 b 1183 1051 1181 1075 1183 1068 b 1175 1014 1182 1038 1178 1026 b 1132 906 1163 976 1149 940 l 978 601 b 893 429 949 544 919 488 b 868 401 888 417 881 407 b 532 300 758 357 647 324 l 526 300 b 519 303 525 300 522 300 z m 771 810 b 764 793 771 801 767 797 b 549 454 690 681 619 567 b 465 314 521 407 493 361 b 418 283 454 294 442 285 b 343 276 393 281 368 282 b 335 275 340 276 338 275 b 328 279 332 275 329 276 b 326 283 328 281 326 282 b 332 293 326 286 329 290 b 408 403 357 329 382 367 b 629 671 475 497 550 586 b 750 793 668 713 708 754 b 771 810 756 799 760 806 z m 424 256 b 417 238 424 247 421 243 b 175 -117 342 115 264 -4 b 135 -156 164 -131 150 -144 b 129 -142 131 -151 129 -147 b 131 -128 129 -137 131 -132 b 151 -51 135 -101 142 -76 b 233 126 175 10 203 69 b 293 233 253 163 272 199 b 324 253 300 246 310 253 l 344 253 b 392 257 361 253 376 254 b 407 258 397 258 401 258 b 424 256 413 258 418 258 z "},"B":{"ha":1228,"x_min":0,"x_max":0,"o":"m 215 96 b 214 100 214 97 214 99 b 217 108 214 103 215 106 b 343 449 246 226 288 340 b 538 739 396 554 460 651 b 693 886 585 793 636 842 b 988 1047 782 956 878 1014 b 1067 1068 1014 1056 1040 1064 b 1132 1075 1089 1072 1111 1075 b 1175 1071 1147 1075 1161 1074 b 1242 990 1217 1060 1239 1044 l 1242 982 b 1240 963 1242 975 1242 969 b 1176 821 1231 910 1206 864 b 960 582 1115 732 1040 654 b 835 478 919 544 878 510 b 707 406 796 447 758 415 b 678 393 697 403 688 397 b 664 385 674 390 668 388 b 656 372 658 381 656 376 b 665 358 656 367 660 363 b 696 346 675 351 685 346 b 715 351 701 346 708 347 b 747 368 726 357 738 361 b 806 397 767 379 783 393 b 897 407 836 403 867 407 b 936 404 910 407 924 406 b 981 363 963 399 974 390 b 983 340 982 356 983 349 b 982 328 983 336 983 332 b 942 229 976 292 961 258 b 818 83 907 175 865 126 b 486 -144 718 -10 608 -85 b 307 -210 429 -174 369 -196 b 222 -221 278 -214 250 -221 l 208 -221 b 115 -171 169 -218 138 -206 b 82 -110 103 -151 90 -132 b 56 36 64 -61 56 -12 b 76 169 56 81 63 125 b 256 403 108 268 168 346 b 271 417 261 407 271 410 l 271 418 b 250 438 269 429 258 432 b 243 439 247 439 246 439 b 232 435 239 439 236 438 b 208 418 224 429 217 424 b 18 122 103 346 39 247 b 11 43 14 96 11 69 b 79 -165 11 -31 32 -101 b 211 -247 113 -208 157 -236 b 256 -251 226 -250 240 -251 b 317 -246 276 -251 297 -249 b 529 -171 392 -233 463 -204 b 751 -32 608 -132 682 -86 b 917 118 811 14 867 63 b 992 222 946 150 971 185 b 1024 304 1007 247 1018 275 b 1025 324 1025 311 1025 317 b 979 401 1025 356 1010 383 b 871 436 946 421 911 436 l 861 436 b 857 439 860 436 858 436 b 865 447 858 443 861 444 b 990 551 908 481 950 515 b 1185 758 1061 614 1126 683 b 1258 881 1214 796 1239 838 b 1279 969 1271 908 1279 938 l 1279 982 b 1253 1043 1276 1006 1269 1028 b 1133 1097 1219 1075 1181 1094 b 1107 1099 1125 1097 1115 1099 b 1001 1085 1071 1099 1036 1093 b 778 989 922 1064 849 1032 b 518 772 681 931 594 858 b 392 607 471 721 429 665 b 189 140 300 461 233 306 b 171 51 182 111 174 82 b 197 14 171 31 178 21 b 204 13 200 13 203 13 b 226 31 215 13 221 22 b 246 58 233 39 240 49 b 358 238 285 118 322 176 b 535 503 414 328 475 415 b 683 707 583 572 632 640 b 836 900 732 772 782 838 b 847 917 840 906 847 910 l 847 919 b 822 936 844 931 832 933 b 818 938 821 936 819 938 b 803 931 813 938 807 933 b 776 906 793 922 785 914 b 628 722 725 846 676 785 b 431 444 560 632 493 539 b 344 313 400 401 372 357 b 226 108 304 244 265 176 b 215 96 224 104 222 97 z "},"C":{"ha":1026,"x_min":0,"x_max":0,"o":"m 1108 990 b 1106 992 1108 992 1107 992 b 1117 1025 1110 1003 1114 1014 b 1118 1040 1118 1031 1118 1036 b 1094 1078 1118 1056 1111 1067 b 1031 1099 1074 1093 1053 1099 b 997 1094 1019 1099 1008 1097 b 789 1015 922 1081 854 1050 b 124 374 508 863 285 650 b 8 56 67 275 21 171 b 7 24 7 44 7 35 b 97 -158 7 -49 33 -111 b 379 -250 183 -224 278 -250 b 436 -247 399 -250 417 -249 b 674 -169 521 -239 600 -211 b 942 50 775 -112 861 -33 b 944 54 942 51 943 53 b 949 63 947 57 949 60 b 943 71 949 65 947 68 b 926 79 936 76 932 79 b 907 67 921 79 915 75 b 765 -65 863 21 815 -25 b 356 -225 643 -160 511 -225 b 303 -222 339 -225 321 -224 b 153 -179 250 -217 199 -206 b 58 -64 107 -153 71 -117 b 50 4 53 -42 50 -18 b 54 63 50 24 51 43 b 124 267 65 133 92 201 b 429 685 200 424 306 561 b 640 864 494 750 565 810 b 936 1035 733 931 831 990 b 1047 1069 972 1050 1010 1063 b 1058 1071 1051 1069 1056 1071 b 1076 1054 1071 1071 1076 1065 b 1075 1040 1076 1050 1076 1046 b 1050 979 1069 1018 1060 999 b 932 807 1015 919 975 863 b 832 675 897 764 863 721 b 825 660 828 668 825 664 b 842 643 825 653 831 649 b 851 640 846 642 849 640 b 864 646 856 640 860 642 b 881 664 869 651 875 658 b 1158 974 972 767 1065 871 b 1201 1015 1171 989 1182 1006 b 1211 1032 1208 1019 1211 1025 b 1208 1042 1211 1036 1210 1039 b 1182 1056 1200 1051 1192 1056 b 1158 1043 1175 1056 1167 1051 b 1108 990 1142 1026 1125 1008 z "},"D":{"ha":1363,"x_min":0,"x_max":0,"o":"m 311 -50 b 307 -39 307 -46 307 -42 l 307 -29 b 306 214 306 53 306 133 l 306 314 b 349 528 306 388 321 460 b 614 857 406 663 499 769 b 771 958 663 896 715 929 b 1026 1056 851 1001 938 1033 b 1164 1072 1072 1067 1118 1072 b 1225 1069 1185 1072 1204 1071 b 1346 961 1285 1064 1329 1050 b 1350 925 1349 949 1350 938 b 1338 849 1350 899 1344 874 b 1268 683 1322 790 1297 735 b 1117 460 1224 604 1172 531 b 936 253 1060 388 1000 319 b 808 129 896 210 853 169 b 643 -10 756 81 700 33 b 494 -111 596 -46 546 -79 b 354 -181 450 -139 403 -162 b 193 -219 301 -200 249 -215 b 153 -221 179 -221 167 -221 b 89 -215 132 -221 110 -219 b 49 -169 65 -208 51 -193 b 46 -144 47 -161 46 -153 b 54 -100 46 -129 49 -114 b 85 -42 63 -79 74 -61 b 138 28 100 -17 118 6 b 146 44 142 32 146 38 l 146 47 b 122 67 143 57 131 61 l 119 67 b 107 58 114 67 110 63 b 36 -35 81 29 57 -3 b 10 -97 24 -54 14 -75 b 6 -132 7 -110 6 -121 b 43 -206 6 -160 15 -185 b 185 -253 86 -240 135 -253 b 219 -251 196 -253 208 -253 b 417 -203 288 -246 353 -226 b 619 -89 490 -175 556 -133 b 790 44 679 -47 735 -3 b 968 213 851 97 911 154 b 1111 371 1018 264 1065 317 b 1322 681 1190 468 1265 568 b 1389 872 1353 740 1379 804 b 1392 908 1390 885 1392 896 b 1350 1025 1392 951 1381 992 b 1231 1093 1318 1060 1276 1081 b 1146 1103 1203 1100 1174 1103 b 1060 1096 1117 1103 1089 1100 b 890 1053 1001 1086 946 1071 b 640 928 801 1022 719 979 b 408 713 551 869 474 799 b 269 306 317 593 271 457 b 275 63 269 225 275 144 l 275 -10 b 278 -83 275 -35 275 -60 b 307 -114 281 -99 292 -110 b 314 -115 310 -114 311 -115 b 336 -97 324 -115 331 -106 b 347 -81 340 -93 343 -87 l 456 128 b 699 576 533 279 613 431 b 907 894 764 686 831 793 b 938 938 917 908 928 924 b 942 949 939 942 942 944 b 940 954 942 950 942 953 b 918 968 935 964 926 968 b 899 960 911 968 904 965 b 811 849 867 925 839 886 b 601 515 733 742 665 631 b 324 -31 500 338 408 156 b 311 -50 321 -37 319 -46 z "},"E":{"ha":1133,"x_min":0,"x_max":0,"o":"m 1190 1096 l 1107 1096 b 924 1069 1043 1096 1000 1089 b 571 932 800 1039 682 993 b 483 875 540 917 511 896 b 453 840 471 865 461 854 b 443 813 447 831 443 821 b 460 779 443 800 449 789 b 486 761 468 772 478 767 b 594 707 518 736 557 722 b 689 663 626 693 658 678 b 706 642 700 657 706 650 b 696 622 706 635 703 629 b 672 601 689 614 679 608 b 546 519 632 569 588 546 b 390 418 494 486 442 453 b 164 243 311 365 235 308 b 56 117 124 206 86 164 b 13 14 36 85 19 51 b 8 -29 10 -1 8 -17 b 71 -144 8 -75 25 -111 b 279 -233 133 -190 204 -217 b 397 -250 318 -243 357 -246 b 454 -253 417 -251 435 -253 b 597 -240 501 -253 550 -247 b 857 -154 689 -226 775 -197 b 1006 -67 908 -128 957 -97 b 1021 -49 1011 -62 1021 -57 b 999 -31 1019 -37 1007 -36 b 992 -29 996 -29 994 -29 b 981 -33 988 -29 985 -31 b 950 -53 969 -40 960 -46 b 706 -176 874 -104 792 -146 b 433 -221 618 -207 526 -218 b 408 -222 425 -221 417 -222 b 296 -211 371 -222 332 -217 b 122 -160 235 -201 176 -187 b 56 -51 72 -135 56 -93 b 57 -32 56 -44 56 -37 b 94 72 61 6 75 40 b 226 228 129 132 175 182 b 425 379 289 283 356 332 b 617 504 488 422 553 463 b 710 565 647 524 679 544 b 739 590 721 572 731 581 b 754 621 750 601 754 611 b 735 651 754 631 749 642 b 718 663 729 656 724 660 b 588 726 676 688 633 710 b 515 760 563 736 539 747 b 493 792 500 768 493 779 b 503 817 493 799 496 808 b 524 838 510 825 517 831 b 642 914 557 872 600 892 b 932 1026 735 961 832 997 b 1132 1063 997 1044 1064 1057 b 1163 1064 1142 1064 1153 1064 b 1250 1056 1192 1064 1221 1061 b 1307 990 1289 1050 1303 1024 b 1308 976 1308 986 1308 982 b 1304 951 1308 968 1307 960 b 1265 879 1297 925 1283 901 b 1213 814 1247 858 1229 836 b 1208 803 1210 811 1208 807 b 1214 792 1208 799 1210 796 b 1222 789 1217 789 1219 789 b 1235 794 1226 789 1231 790 b 1319 885 1263 825 1293 853 b 1347 936 1332 900 1342 917 b 1351 967 1350 947 1351 957 b 1313 1042 1351 997 1339 1024 b 1190 1096 1276 1068 1236 1092 z "},"F":{"ha":914,"x_min":0,"x_max":0,"o":"m 688 994 b 675 972 685 985 679 979 b 428 608 586 856 504 733 b 272 344 375 521 322 433 b 249 322 267 335 261 325 b 157 310 218 315 188 310 l 147 310 b 96 347 117 310 104 319 b 90 381 92 358 90 369 b 103 432 90 399 94 415 b 108 447 106 439 108 443 b 94 463 108 453 104 456 b 82 469 90 464 86 467 b 72 472 79 471 75 472 b 60 463 68 472 64 469 b 46 411 51 446 47 429 b 44 394 44 406 44 400 b 72 328 44 369 53 346 b 188 278 106 299 144 278 b 214 281 196 278 206 279 b 222 282 217 281 219 282 b 231 278 225 282 228 281 l 231 272 b 219 253 228 265 224 258 b 44 -86 158 140 97 29 b 7 -189 29 -119 15 -154 b 4 -207 6 -196 4 -201 b 46 -246 4 -229 17 -239 b 56 -189 46 -226 49 -207 b 88 -111 65 -162 75 -136 b 296 281 150 24 222 151 b 321 300 301 292 308 297 b 649 382 431 328 539 356 b 668 385 654 383 661 385 b 675 392 671 386 674 388 b 671 399 675 394 674 397 b 638 413 661 407 649 413 b 629 411 635 413 632 411 b 592 404 617 408 604 407 b 353 347 511 385 432 365 b 343 344 350 346 346 344 b 338 347 340 344 339 344 l 338 350 b 344 365 338 356 342 360 b 476 583 389 438 432 511 b 757 993 563 725 656 863 b 794 1019 767 1007 778 1017 b 1010 1046 867 1032 938 1040 b 1118 1053 1046 1050 1082 1049 b 1171 1056 1136 1054 1153 1056 b 1289 1050 1210 1056 1250 1051 b 1319 1044 1299 1050 1310 1047 b 1333 1032 1329 1042 1333 1038 b 1331 1021 1333 1029 1332 1025 b 1306 989 1326 1007 1315 999 b 1253 953 1289 975 1271 964 b 1246 944 1250 950 1246 949 l 1247 942 b 1279 926 1250 933 1267 926 b 1286 928 1282 926 1285 926 b 1365 988 1315 944 1344 961 b 1376 1014 1374 997 1376 1006 b 1357 1043 1376 1024 1371 1033 b 1292 1072 1338 1057 1315 1068 b 1197 1083 1260 1079 1229 1083 l 1128 1083 b 990 1079 1082 1083 1036 1083 b 839 1064 940 1075 889 1071 l 829 1064 b 819 1067 825 1064 822 1064 l 819 1069 b 829 1083 819 1075 825 1078 b 831 1090 831 1085 831 1088 l 831 1094 b 801 1110 825 1104 814 1110 b 779 1101 793 1110 785 1107 b 747 1065 768 1090 757 1078 b 715 1047 739 1054 729 1049 b 538 1010 656 1036 596 1024 b 257 922 442 988 347 961 b 208 894 239 914 224 906 b 188 865 194 885 188 875 b 210 838 188 857 194 847 b 310 796 240 817 275 808 b 314 800 310 796 311 799 b 282 821 306 811 293 815 b 243 836 269 826 256 831 b 235 844 238 839 235 842 b 240 854 235 847 236 850 b 267 872 249 861 257 867 b 335 903 288 885 311 893 b 669 996 443 943 556 971 b 678 997 672 997 675 997 b 688 994 681 997 685 997 z "},"G":{"ha":1060,"x_min":0,"x_max":0,"o":"m 590 -56 b 607 -26 594 -42 601 -35 b 728 143 649 29 689 86 b 983 583 822 285 907 432 b 1017 653 996 606 1007 629 b 1021 668 1019 658 1021 664 b 1000 689 1021 675 1015 681 b 986 694 993 692 989 694 b 969 679 981 694 976 689 b 956 658 964 672 960 665 b 561 211 847 489 715 340 b 396 97 510 168 454 129 b 200 40 333 64 272 40 l 194 40 b 63 136 122 43 85 75 b 50 211 54 161 50 186 b 57 276 50 233 53 254 b 158 510 75 361 111 438 b 425 808 232 622 322 721 b 810 1033 540 904 667 983 b 1004 1069 874 1054 938 1069 l 1028 1069 b 1124 1051 1061 1068 1093 1064 b 1183 972 1163 1038 1183 1010 b 1182 951 1183 965 1183 958 b 1181 942 1182 949 1182 944 b 1193 925 1181 933 1185 928 l 1196 925 b 1207 935 1201 925 1204 929 b 1217 972 1213 947 1217 960 b 1203 1011 1217 985 1213 999 b 1171 1040 1194 1024 1183 1032 b 969 1101 1108 1085 1040 1101 b 893 1096 944 1101 919 1100 b 668 1025 814 1083 740 1058 b 194 657 482 939 325 815 b 44 414 133 582 81 503 b 6 242 22 358 6 301 b 7 210 6 231 6 221 b 192 18 18 92 114 32 b 225 15 203 17 214 15 b 318 32 257 15 288 22 b 521 142 393 54 458 96 b 819 418 631 222 728 318 b 839 439 826 425 833 432 b 843 436 840 438 842 438 b 829 410 839 428 835 418 b 719 228 794 349 758 288 b 528 -44 660 135 594 44 b 493 -61 518 -57 508 -61 l 435 -61 b 303 -100 388 -61 343 -74 b 136 -304 228 -151 172 -219 b 124 -351 129 -318 125 -335 b 147 -393 124 -369 131 -383 b 194 -410 163 -404 179 -410 b 232 -401 207 -410 219 -407 b 308 -354 260 -390 285 -374 b 531 -124 393 -287 463 -207 b 619 -78 565 -82 565 -82 b 753 -17 671 -74 717 -54 b 761 -7 757 -14 761 -11 b 758 -1 761 -6 760 -3 b 743 8 754 4 749 8 b 735 6 740 8 738 7 b 724 -4 731 3 728 -1 b 689 -31 713 -12 700 -22 b 590 -56 660 -47 628 -56 z m 490 -85 b 481 -104 490 -94 485 -99 b 313 -289 428 -169 374 -232 b 225 -360 285 -315 257 -339 b 189 -379 214 -367 201 -374 b 175 -382 183 -381 179 -382 b 161 -367 167 -382 161 -376 b 163 -358 161 -364 163 -361 b 174 -315 164 -343 168 -329 b 338 -117 208 -233 263 -165 b 460 -83 376 -92 417 -83 b 490 -85 469 -83 481 -83 z "},"H":{"ha":1251,"x_min":0,"x_max":0,"o":"m 847 -249 b 832 -200 835 -232 832 -217 b 833 -175 832 -192 832 -183 b 872 -28 839 -124 856 -75 b 1000 261 910 72 951 168 b 1117 489 1039 338 1076 414 b 1178 553 1131 517 1144 543 b 1189 560 1185 554 1189 557 b 1182 571 1189 563 1186 567 b 1171 585 1174 578 1171 581 b 1176 600 1171 588 1172 592 b 1232 696 1193 633 1214 664 b 1358 907 1275 767 1315 838 b 1457 1058 1389 958 1421 1010 b 1465 1074 1463 1065 1465 1069 b 1451 1089 1465 1079 1461 1083 b 1431 1099 1442 1094 1435 1099 b 1408 1081 1424 1099 1418 1093 b 1400 1069 1406 1078 1403 1074 b 1275 878 1356 1007 1314 943 b 1092 563 1211 774 1149 669 b 1065 539 1086 551 1078 543 b 992 514 1042 531 1017 521 b 743 456 911 488 828 471 b 539 432 676 444 607 439 b 529 431 536 432 532 431 b 515 435 525 431 519 432 b 531 465 521 446 525 456 b 650 689 571 540 611 614 b 783 956 696 776 740 867 b 815 1026 794 979 806 1003 b 819 1040 817 1031 819 1035 b 818 1046 819 1042 819 1043 b 785 1065 810 1056 799 1063 l 783 1065 b 768 1050 776 1065 774 1056 b 725 960 750 1022 739 990 b 603 714 686 878 644 796 b 521 557 576 661 549 610 b 460 443 500 519 481 481 b 440 426 456 436 451 426 l 376 426 l 376 429 b 382 439 376 435 379 436 b 389 451 386 444 389 449 b 376 464 389 457 385 460 b 367 467 372 467 369 467 b 353 461 361 467 357 465 l 329 438 b 313 429 325 433 319 429 l 310 429 b 224 442 281 431 251 435 b 146 554 171 456 146 508 b 158 601 146 572 150 589 b 175 632 165 611 169 622 b 178 640 176 635 178 638 b 175 647 178 643 176 644 b 149 661 167 657 157 661 b 125 644 140 661 132 656 b 115 625 121 639 118 632 b 104 572 107 608 104 590 b 163 458 104 529 125 486 b 274 410 196 435 232 418 b 286 401 282 407 286 406 b 279 389 286 399 283 394 l 271 381 b 143 232 221 338 182 285 b 38 40 99 174 65 108 b 7 -69 24 6 13 -31 l 7 -76 b 69 -135 7 -110 39 -135 b 96 -128 79 -135 88 -133 b 119 -114 104 -124 113 -119 b 231 -1 161 -82 197 -43 b 435 297 307 92 371 194 b 488 388 453 326 469 357 b 511 404 493 397 499 403 b 713 422 579 406 646 414 b 1035 494 821 438 929 460 b 1049 499 1039 496 1043 499 b 1054 497 1050 499 1053 499 l 1054 494 b 1047 479 1054 489 1050 485 b 924 232 1006 397 964 315 b 854 74 899 179 876 126 b 799 -94 832 18 813 -37 b 788 -176 793 -122 788 -149 l 788 -186 b 847 -249 789 -221 807 -240 z m 383 399 l 415 399 b 429 392 425 397 429 396 b 425 382 429 389 428 386 l 392 324 b 211 51 335 231 276 139 b 113 -61 182 11 149 -26 b 63 -99 97 -76 81 -89 b 54 -101 60 -100 57 -101 b 49 -90 50 -101 49 -97 l 49 -83 b 56 -36 49 -68 51 -51 b 125 129 72 22 96 76 b 321 379 178 222 244 304 b 364 400 335 393 346 400 l 372 400 b 383 399 376 399 381 399 z "},"I":{"ha":772,"x_min":0,"x_max":0,"o":"m 888 996 b 869 1060 888 1022 886 1044 b 782 1101 846 1083 817 1101 l 775 1101 b 613 1050 717 1096 663 1078 b 596 1035 606 1046 600 1042 b 590 1024 593 1032 590 1028 b 594 1015 590 1021 592 1018 b 603 1011 597 1013 600 1011 b 614 1017 607 1011 610 1014 b 678 1050 631 1035 654 1043 b 749 1068 701 1057 725 1064 b 800 1075 765 1072 782 1075 l 808 1075 b 838 1053 828 1074 832 1071 b 840 1028 840 1044 840 1036 b 839 1007 840 1021 840 1014 b 796 881 831 963 814 921 b 657 592 753 782 706 686 b 490 286 603 489 549 386 b 303 -1 432 188 374 90 b 176 -144 264 -51 225 -103 b 99 -203 153 -167 128 -187 b 61 -218 86 -210 74 -215 b 50 -221 57 -219 53 -221 b 42 -211 44 -221 42 -218 b 43 -203 42 -210 42 -207 b 57 -164 46 -189 50 -176 b 89 -118 67 -147 76 -132 b 119 -83 99 -106 108 -94 b 124 -75 122 -81 124 -78 b 121 -68 124 -72 122 -71 b 100 -58 115 -61 107 -58 b 82 -65 93 -58 88 -60 b 14 -157 57 -93 32 -122 b 1 -196 7 -169 4 -182 l 1 -201 b 13 -226 1 -211 4 -221 b 68 -250 29 -240 47 -250 b 85 -249 74 -250 79 -250 b 124 -236 99 -246 111 -240 b 240 -150 169 -217 206 -185 b 394 38 299 -93 349 -29 b 599 367 469 143 535 254 b 790 732 665 486 729 608 b 857 881 814 781 838 831 b 888 996 871 919 886 958 z "},"J":{"ha":1058,"x_min":0,"x_max":0,"o":"m 206 810 b 203 819 204 814 204 817 b 193 838 197 828 193 833 b 204 856 193 842 197 846 b 258 904 219 875 238 890 b 451 1011 318 947 383 983 b 750 1072 547 1049 647 1069 b 935 1047 813 1072 874 1063 b 1033 940 990 1032 1021 994 b 1038 893 1036 925 1038 908 b 1033 842 1038 876 1036 858 b 981 678 1025 783 1004 729 b 733 292 915 538 829 411 b 593 129 689 235 643 181 b 376 -72 525 58 454 -11 b 219 -182 326 -112 275 -150 b 100 -229 182 -204 143 -222 b 81 -232 93 -231 86 -232 b 50 -197 63 -232 56 -222 b 44 -153 46 -182 44 -168 b 49 -108 44 -137 46 -122 b 107 53 58 -50 79 3 b 331 303 164 153 238 236 b 356 322 339 310 347 315 b 367 335 363 328 367 332 b 354 347 367 339 363 343 b 343 350 350 349 347 350 b 332 346 339 350 336 349 b 294 321 319 338 307 331 b 94 111 217 263 149 193 b 21 -44 64 63 38 11 b 6 -137 13 -75 6 -106 b 8 -171 6 -149 6 -160 b 104 -260 17 -219 54 -256 b 117 -261 108 -260 113 -261 b 164 -251 132 -261 149 -257 b 290 -190 207 -235 250 -217 b 514 -19 369 -140 444 -82 b 685 150 574 35 631 92 b 818 311 732 201 776 256 b 968 532 874 381 924 454 b 1064 736 1006 597 1040 664 b 1088 868 1079 779 1088 824 l 1088 886 b 1044 994 1085 928 1072 964 b 894 1082 1003 1039 950 1065 b 728 1106 839 1099 783 1106 b 576 1090 678 1106 626 1100 b 317 992 485 1072 397 1039 b 215 924 282 971 247 949 b 163 864 194 907 175 889 b 157 847 160 858 157 853 b 164 833 157 843 158 838 b 206 810 175 824 186 813 z "},"K":{"ha":1044,"x_min":0,"x_max":0,"o":"m 560 583 b 558 590 558 586 558 588 b 561 599 558 593 560 596 b 729 894 615 697 671 797 b 760 950 739 913 750 931 b 764 961 763 953 764 957 b 761 969 764 964 764 967 b 738 986 753 981 746 986 b 715 968 731 986 722 979 b 708 958 713 965 710 963 b 451 504 617 810 532 658 b 431 476 446 493 440 485 b 167 225 339 397 249 315 b 38 56 119 172 74 118 b 3 -35 21 28 7 -1 l 3 -44 b 24 -94 3 -64 10 -81 b 106 -146 47 -118 75 -133 b 131 -151 115 -150 124 -151 b 175 -128 147 -151 161 -143 b 208 -79 189 -112 199 -96 b 310 113 244 -17 276 47 b 446 379 356 201 400 290 b 460 397 449 386 451 394 b 511 418 476 404 493 414 b 574 432 532 422 553 428 b 689 446 611 440 650 446 b 736 443 704 446 721 446 b 803 378 779 436 796 421 b 806 339 806 365 806 353 b 800 276 806 318 803 297 b 736 7 785 186 757 97 b 678 -290 713 -92 689 -190 b 676 -315 678 -299 676 -307 b 681 -358 676 -331 678 -344 b 732 -412 686 -387 707 -403 b 746 -415 736 -414 742 -415 b 771 -407 754 -415 763 -412 b 776 -399 774 -404 776 -401 b 775 -394 776 -397 776 -396 b 743 -381 771 -387 754 -381 l 739 -381 b 728 -383 733 -382 731 -383 b 721 -368 722 -383 722 -379 l 721 -349 b 729 -250 721 -315 724 -282 b 801 58 749 -146 775 -43 b 851 293 821 136 844 213 b 853 317 851 301 853 310 b 821 415 853 353 846 388 b 725 469 794 443 761 461 b 671 475 707 474 689 475 b 585 464 642 475 613 471 b 478 435 550 456 514 449 b 503 475 482 454 490 465 b 578 535 528 496 551 515 b 753 665 635 579 693 622 b 914 778 806 704 860 740 b 1124 911 983 824 1051 869 b 1347 1028 1196 953 1268 996 b 1369 1033 1354 1031 1361 1033 l 1374 1033 b 1354 979 1371 1013 1361 997 b 1351 969 1353 976 1351 972 b 1361 954 1351 964 1354 958 b 1378 944 1367 951 1372 947 b 1385 942 1381 943 1382 942 b 1394 950 1389 942 1392 944 b 1421 1019 1404 972 1415 994 b 1422 1029 1422 1022 1422 1026 b 1417 1043 1422 1035 1421 1040 b 1358 1074 1400 1058 1382 1074 b 1343 1071 1354 1074 1349 1072 b 1296 1056 1328 1067 1311 1061 b 1160 990 1249 1038 1204 1014 b 1024 911 1114 964 1068 939 b 856 800 967 875 910 838 b 658 658 789 753 722 707 b 560 583 625 633 593 608 z m 378 363 b 342 288 365 338 353 313 b 175 -56 286 174 231 58 b 146 -103 167 -72 157 -89 b 110 -126 135 -119 124 -126 b 83 -119 101 -126 93 -124 b 69 -112 78 -117 74 -115 b 35 -58 46 -99 35 -82 b 38 -39 35 -53 36 -46 b 67 29 43 -14 54 8 b 194 192 103 89 147 142 b 374 365 251 253 311 311 b 378 363 375 364 376 364 z "},"L":{"ha":676,"x_min":0,"x_max":0,"o":"m 960 1071 b 939 1015 956 1047 947 1031 b 793 831 900 946 850 886 b 776 813 788 825 782 818 b 772 804 775 810 772 807 b 774 800 772 803 772 801 b 782 794 776 797 779 794 b 789 797 785 794 786 796 b 800 807 793 800 797 804 b 899 901 836 836 867 868 b 979 1004 928 933 956 968 b 1001 1056 989 1021 997 1038 b 1003 1067 1003 1060 1003 1063 b 993 1086 1003 1075 1000 1082 b 947 1108 972 1101 961 1108 b 915 1097 939 1108 929 1104 b 885 1078 904 1092 894 1085 b 815 1019 860 1060 838 1040 b 614 768 739 943 674 857 b 438 468 549 672 492 571 b 253 83 368 343 304 215 b 217 -37 238 43 222 4 b 215 -47 217 -40 215 -44 b 263 -97 215 -74 236 -96 b 275 -92 268 -97 272 -97 l 276 -89 b 271 -82 276 -85 274 -83 b 261 -65 264 -78 261 -71 b 264 -51 261 -61 263 -56 b 292 38 269 -21 281 8 b 464 401 340 163 400 283 b 707 801 539 539 617 675 b 896 1024 764 881 824 958 b 960 1071 914 1042 933 1057 z m 888 -64 l 949 -64 b 1028 -74 975 -65 1001 -68 b 1051 -96 1044 -78 1051 -85 b 1047 -112 1051 -100 1050 -106 b 1033 -135 1044 -121 1039 -129 b 1000 -167 1022 -146 1011 -157 b 972 -187 990 -174 982 -181 b 968 -193 969 -189 968 -192 b 971 -200 968 -196 969 -197 b 997 -212 976 -207 988 -212 b 1010 -208 1001 -212 1006 -211 b 1076 -150 1035 -192 1058 -175 b 1094 -111 1089 -133 1094 -121 b 1064 -72 1094 -94 1082 -83 b 935 -36 1025 -47 981 -39 b 839 -35 903 -35 871 -35 l 799 -35 b 590 -53 729 -37 660 -43 b 271 -129 482 -67 375 -93 b 54 -229 196 -156 122 -186 b 10 -262 39 -239 24 -250 b 1 -272 7 -265 1 -268 b 3 -276 1 -274 3 -275 b 26 -290 4 -285 17 -290 b 38 -287 31 -290 35 -290 b 172 -212 76 -253 125 -232 b 888 -64 401 -115 639 -65 z "},"M":{"ha":1504,"x_min":0,"x_max":0,"o":"m 1628 1017 b 1614 986 1625 1001 1618 994 b 1478 767 1568 913 1522 840 b 1269 371 1403 639 1332 507 b 1156 43 1221 265 1181 157 b 1136 -118 1146 -10 1136 -64 l 1136 -137 b 1186 -233 1138 -178 1149 -212 b 1221 -243 1197 -239 1210 -243 b 1251 -233 1231 -243 1240 -240 b 1372 -108 1301 -201 1338 -156 b 1376 -101 1374 -107 1376 -104 b 1374 -96 1376 -99 1375 -97 b 1347 -79 1368 -87 1358 -82 l 1343 -79 b 1329 -90 1336 -79 1333 -86 b 1283 -146 1314 -110 1300 -129 b 1210 -207 1261 -168 1240 -193 b 1197 -210 1204 -208 1200 -210 b 1186 -196 1192 -210 1189 -206 b 1181 -147 1182 -181 1181 -164 b 1182 -124 1181 -139 1182 -132 b 1257 203 1192 -11 1219 97 b 1338 385 1281 265 1310 325 b 1500 699 1388 492 1442 596 b 1651 956 1550 785 1601 869 b 1683 1019 1664 976 1676 996 b 1685 1032 1685 1024 1685 1028 b 1671 1053 1685 1040 1681 1046 b 1643 1064 1661 1060 1651 1064 b 1618 1054 1635 1064 1626 1061 b 1558 1008 1597 1039 1578 1024 b 1449 908 1519 976 1485 942 b 1338 799 1411 872 1374 836 b 1126 574 1267 725 1194 650 b 1040 475 1097 540 1068 508 b 921 333 1000 428 960 381 b 796 185 879 285 838 235 b 710 89 768 153 740 119 b 699 81 707 85 704 81 l 696 81 b 714 124 703 96 708 111 b 829 344 750 199 789 272 b 972 610 876 433 924 521 b 1126 906 1025 707 1078 806 b 1172 1028 1144 944 1164 985 b 1174 1043 1174 1033 1174 1038 b 1104 1111 1174 1081 1143 1111 b 1090 1110 1100 1111 1094 1111 b 1047 1097 1076 1107 1061 1103 b 894 1007 993 1071 942 1042 b 804 940 864 986 833 964 b 719 869 776 917 744 897 b 650 808 699 847 672 829 b 397 539 561 722 475 635 b 256 354 347 479 300 418 b 89 81 193 267 136 176 b 15 -94 60 24 33 -33 b 1 -168 8 -118 1 -143 l 1 -175 b 24 -215 1 -193 8 -206 b 56 -225 35 -222 44 -225 b 85 -217 65 -225 75 -222 b 161 -154 115 -201 138 -178 b 293 11 210 -103 251 -46 b 529 379 379 129 457 253 b 771 826 615 525 696 674 b 790 871 778 840 786 856 b 811 901 793 885 800 893 b 954 1006 857 939 904 974 b 1096 1076 999 1033 1043 1063 b 1114 1081 1101 1078 1108 1081 b 1125 1076 1118 1081 1122 1079 b 1131 1064 1129 1074 1131 1069 b 1126 1044 1131 1058 1128 1051 b 1085 943 1117 1010 1101 976 b 917 621 1032 833 974 728 b 718 239 849 493 781 368 b 650 78 693 186 668 133 b 643 46 647 67 644 57 l 643 43 b 665 18 643 31 656 25 b 675 15 668 15 672 15 b 690 22 681 15 686 18 b 722 53 700 33 713 42 b 860 215 768 107 815 160 b 1081 478 932 304 1006 392 b 1272 688 1143 549 1207 619 b 1565 969 1367 786 1463 881 b 1628 1017 1585 985 1606 1000 z m 686 786 b 643 706 672 760 658 732 b 438 342 576 583 508 461 b 236 29 374 235 307 131 b 103 -147 194 -32 151 -92 b 54 -192 88 -164 71 -176 b 42 -199 50 -194 46 -199 b 36 -197 39 -199 38 -199 b 32 -186 32 -194 32 -190 l 32 -172 b 40 -119 32 -154 36 -137 b 122 78 58 -50 89 15 b 314 379 176 185 242 283 b 494 601 371 456 431 531 b 639 749 542 651 588 703 b 686 786 654 763 667 778 z "},"N":{"ha":1226,"x_min":0,"x_max":0,"o":"m 729 -183 b 742 -142 733 -168 738 -154 b 861 99 774 -57 815 22 b 1017 360 913 186 965 274 b 1165 608 1067 443 1117 525 b 1318 885 1221 699 1274 789 b 1358 1001 1336 921 1350 960 b 1361 1025 1360 1010 1361 1017 b 1288 1107 1361 1067 1332 1093 b 1258 1113 1278 1111 1268 1113 b 1199 1099 1239 1113 1218 1106 b 1054 1032 1147 1083 1100 1058 b 875 911 992 996 932 954 b 856 900 865 904 860 900 b 835 910 850 900 844 904 b 829 914 832 911 831 913 b 818 919 825 918 821 919 b 806 910 813 919 808 915 b 778 869 796 896 788 883 b 676 743 747 825 718 779 b 408 456 579 656 492 557 b 224 200 343 374 282 288 b 36 -135 154 92 89 -18 b 3 -228 22 -165 10 -196 l 3 -235 b 21 -265 3 -249 10 -258 b 36 -271 26 -269 32 -271 b 56 -262 42 -271 49 -268 b 82 -240 65 -256 74 -249 b 200 -96 126 -197 163 -146 b 403 197 271 0 338 99 b 606 507 471 300 538 404 b 803 804 671 607 736 706 b 819 825 807 811 813 819 b 881 874 840 840 860 858 b 1072 1001 942 919 1006 964 b 1233 1074 1124 1031 1176 1057 b 1283 1081 1250 1078 1267 1081 l 1294 1081 b 1315 1060 1310 1079 1314 1076 b 1317 1043 1317 1054 1317 1049 b 1314 1017 1317 1035 1315 1025 b 1278 918 1304 983 1293 950 b 1131 653 1235 826 1182 740 b 990 422 1085 576 1038 500 b 850 188 943 344 896 265 b 717 -75 800 103 753 17 b 686 -167 704 -104 694 -135 b 683 -186 685 -172 683 -179 b 692 -207 683 -193 686 -201 b 732 -231 706 -222 718 -231 b 767 -214 742 -231 753 -225 b 846 -132 794 -189 819 -160 b 890 -83 861 -117 875 -100 b 893 -75 893 -81 893 -78 b 888 -65 893 -72 892 -68 b 868 -57 879 -60 874 -57 b 847 -69 863 -57 857 -61 b 751 -169 815 -103 786 -139 b 729 -183 746 -174 740 -181 z m 621 639 b 571 560 603 610 586 585 b 483 426 542 515 511 471 b 375 258 447 371 411 314 b 265 89 339 201 303 146 b 131 -110 221 22 178 -44 b 51 -214 106 -144 79 -181 b 42 -221 49 -217 47 -221 b 39 -215 39 -219 39 -218 b 42 -206 39 -212 40 -208 b 113 -46 60 -150 85 -97 b 225 147 147 19 185 83 b 433 436 289 247 358 344 b 607 629 489 503 546 568 b 621 639 610 632 611 636 z "},"O":{"ha":1072,"x_min":0,"x_max":0,"o":"m 1 -31 l 1 -42 b 6 -93 1 -60 3 -76 b 200 -260 21 -193 108 -260 b 243 -254 214 -260 229 -257 b 393 -189 297 -242 346 -218 b 640 26 486 -129 567 -56 b 958 504 769 171 876 329 b 1047 804 1001 600 1036 699 b 1050 850 1049 819 1050 835 b 1015 996 1050 900 1040 949 b 1010 1010 1011 1001 1010 1007 b 1026 1019 1010 1015 1015 1017 b 1036 1021 1029 1021 1032 1021 b 1049 1015 1040 1021 1044 1019 b 1064 1008 1054 1010 1058 1008 b 1082 1015 1069 1008 1076 1011 b 1092 1025 1089 1019 1092 1022 b 1083 1036 1092 1028 1089 1032 b 1026 1056 1065 1050 1046 1056 b 992 1051 1015 1056 1003 1053 l 983 1051 b 961 1058 975 1051 968 1053 b 815 1110 915 1093 867 1110 b 729 1094 788 1110 758 1104 b 449 886 613 1056 519 986 b 389 719 413 836 389 782 b 392 688 389 710 390 699 l 392 682 b 378 651 392 669 388 661 b 221 476 322 597 269 539 b 40 167 147 381 83 279 b 1 -31 17 103 1 38 z m 1014 872 l 1014 863 b 978 654 1014 786 999 719 b 824 326 942 538 888 429 b 522 -44 739 190 642 64 b 274 -211 447 -112 368 -172 b 163 -232 238 -225 201 -232 l 151 -232 b 85 -194 124 -229 100 -219 b 61 -149 75 -181 67 -165 b 49 -61 51 -119 49 -90 b 54 10 49 -37 50 -14 b 168 292 72 111 115 204 b 396 586 232 399 310 496 l 400 590 b 414 600 407 596 410 600 b 424 588 417 600 419 596 b 507 506 442 551 471 525 b 586 486 533 493 560 486 b 635 493 601 486 618 489 b 724 538 667 503 696 518 b 732 549 729 542 732 546 b 721 560 732 551 728 556 b 710 563 717 563 714 563 b 694 557 704 563 700 560 b 624 519 672 542 649 529 b 564 508 604 513 585 508 b 533 513 554 508 543 510 b 481 544 511 517 494 528 b 446 606 465 563 454 583 b 442 622 443 611 442 617 b 453 644 442 629 446 638 b 599 772 500 689 549 732 b 888 963 689 844 785 908 b 960 996 911 975 935 986 b 976 1001 968 1000 972 1001 b 992 982 983 1001 986 996 b 1014 872 1007 944 1014 907 z m 429 708 l 429 717 b 439 772 429 736 433 754 b 531 918 460 826 490 875 b 721 1054 585 976 649 1021 b 828 1083 754 1069 790 1079 b 850 1085 835 1085 843 1085 b 914 1072 872 1085 893 1081 b 936 1058 922 1068 929 1064 b 947 1044 943 1053 947 1049 b 933 1035 947 1042 943 1039 b 632 867 825 993 726 933 b 450 721 568 822 507 774 b 429 708 444 715 439 708 z "},"P":{"ha":1342,"x_min":0,"x_max":0,"o":"m 249 622 b 222 639 242 632 233 639 b 214 638 219 639 217 639 b 43 546 149 624 89 596 b 1 447 18 518 1 486 l 1 443 b 46 333 1 400 18 364 b 249 219 101 274 169 238 b 265 206 263 217 265 215 l 265 196 b 261 146 264 179 261 163 b 260 92 260 128 260 110 b 313 -208 260 -11 279 -110 b 325 -235 315 -217 319 -226 b 353 -253 335 -246 344 -253 b 381 -229 364 -253 374 -244 b 388 -211 383 -224 385 -217 l 450 -74 b 629 254 504 39 568 146 b 681 296 642 276 658 288 b 1250 593 883 371 1074 469 b 1453 767 1324 644 1393 700 b 1532 897 1488 806 1518 846 b 1536 935 1535 910 1536 922 b 1482 1033 1536 974 1518 1007 b 1307 1092 1429 1071 1369 1088 b 1256 1093 1290 1093 1272 1093 b 1014 1056 1174 1093 1093 1079 b 542 754 829 997 674 896 b 278 267 413 614 318 456 b 258 246 275 250 272 246 l 250 246 b 69 340 174 247 114 281 b 38 428 47 368 38 399 b 85 533 38 465 54 501 b 224 611 124 572 171 596 b 249 622 232 614 242 614 z m 682 339 b 707 379 692 354 699 367 b 1008 797 801 524 899 665 b 1110 910 1042 836 1074 874 b 1122 924 1114 914 1118 919 l 1125 929 b 1122 935 1125 932 1124 933 b 1094 950 1115 944 1104 950 b 1071 942 1086 950 1078 947 b 990 858 1043 915 1015 888 b 611 328 847 693 725 514 b 568 293 601 310 588 300 b 396 253 511 276 454 263 b 328 246 372 250 350 246 b 314 256 319 246 314 249 b 315 261 314 257 315 258 b 336 338 319 288 328 313 b 511 656 375 454 435 560 b 889 968 615 786 740 892 b 1179 1061 981 1014 1076 1046 b 1282 1069 1214 1067 1247 1069 b 1401 1056 1322 1069 1363 1065 b 1440 1043 1414 1053 1428 1049 b 1500 950 1478 1026 1500 989 b 1499 931 1500 943 1500 938 b 1454 832 1492 894 1475 863 b 1293 674 1408 771 1353 721 b 1001 485 1201 601 1103 540 b 708 344 907 432 808 385 b 689 338 701 342 697 338 b 682 339 686 338 685 339 z m 569 257 b 347 -197 482 107 407 -42 b 335 -186 338 -197 338 -190 b 294 75 307 -100 294 -12 b 297 150 294 100 294 125 b 303 193 297 164 300 179 b 325 215 306 211 307 213 b 397 222 349 221 374 218 b 551 253 450 228 501 240 b 569 257 556 254 560 254 z "},"Q":{"ha":1068,"x_min":0,"x_max":0,"o":"m 1046 822 b 1040 893 1046 846 1044 869 b 850 1104 1021 1011 960 1074 b 794 1111 832 1108 814 1111 b 590 1044 721 1106 654 1081 b 403 881 518 1001 456 947 b 242 493 314 767 258 636 b 194 376 236 447 222 411 b 39 117 132 297 78 211 b 0 -67 14 58 0 -3 b 154 -243 3 -164 69 -224 b 192 -249 167 -246 179 -249 b 207 -247 197 -249 201 -249 b 317 -218 244 -243 282 -232 b 461 -137 368 -197 415 -168 b 476 -132 467 -135 471 -132 b 489 -137 481 -132 485 -133 b 626 -226 529 -175 576 -204 b 722 -249 657 -240 689 -249 b 743 -247 729 -249 736 -249 b 863 -197 788 -242 828 -225 b 911 -157 879 -185 896 -172 b 967 -92 932 -137 950 -115 b 971 -82 969 -87 971 -85 b 961 -71 971 -78 967 -74 b 947 -67 956 -68 951 -67 b 926 -81 940 -67 935 -71 b 826 -176 897 -118 865 -151 b 693 -221 785 -206 740 -221 b 629 -211 672 -221 651 -218 b 508 -131 581 -196 543 -165 b 497 -115 501 -124 497 -119 b 511 -101 497 -111 501 -108 b 654 29 564 -64 610 -17 b 806 213 711 85 761 147 b 983 542 876 317 938 425 b 1046 822 1019 632 1043 725 z m 294 508 b 292 517 292 511 292 514 b 294 529 292 521 293 525 b 393 782 313 619 346 703 b 553 964 436 851 489 913 b 683 1046 593 996 636 1025 b 832 1081 732 1067 779 1081 l 851 1081 b 956 1024 896 1078 931 1060 b 1006 875 986 979 1001 929 b 1007 839 1007 863 1007 851 b 946 550 1007 739 982 643 b 831 318 914 469 875 392 b 588 15 763 206 682 104 b 485 -75 554 -17 522 -49 b 469 -83 476 -81 472 -83 b 454 -71 465 -83 461 -79 b 378 43 425 -35 400 3 b 283 304 332 125 297 211 b 278 375 281 328 279 351 l 278 378 b 289 403 278 388 283 396 b 406 538 325 450 365 494 b 450 585 419 553 435 569 b 693 794 526 661 608 729 b 782 857 722 817 753 836 b 882 914 814 879 849 896 b 903 921 889 918 894 921 b 914 918 906 921 910 919 b 919 917 915 917 918 917 b 931 924 924 917 928 919 b 936 932 935 926 936 929 b 931 939 936 935 935 938 b 888 956 917 949 904 956 b 871 953 883 956 876 956 b 824 933 856 947 839 942 b 682 850 775 908 728 881 b 351 567 564 765 451 674 b 307 519 338 551 322 535 b 294 508 304 515 301 510 z m 239 331 b 260 239 244 300 250 268 b 432 -79 294 121 353 15 b 446 -100 440 -90 446 -96 b 428 -117 446 -106 440 -108 b 221 -214 364 -160 297 -196 b 164 -221 201 -218 183 -221 b 125 -217 151 -221 139 -219 b 81 -189 107 -212 92 -204 b 49 -99 60 -162 50 -132 b 47 -78 49 -92 47 -85 b 63 18 47 -44 53 -12 b 196 276 92 113 140 196 b 224 317 206 290 214 304 b 239 331 228 322 229 329 z "},"R":{"ha":1251,"x_min":0,"x_max":0,"o":"m 722 -244 b 858 -217 769 -244 815 -237 b 961 -117 904 -194 938 -160 b 965 -106 964 -112 965 -108 b 951 -89 965 -99 961 -94 b 943 -85 947 -86 944 -85 b 929 -97 936 -85 933 -90 b 913 -121 924 -106 918 -114 b 858 -174 897 -142 879 -158 b 707 -215 813 -206 761 -215 l 697 -215 b 524 -183 639 -215 581 -203 b 315 -82 450 -157 381 -124 b 300 -65 304 -75 300 -71 b 306 -49 300 -62 301 -57 l 368 72 b 463 250 399 132 431 190 b 488 269 468 261 475 268 b 636 281 538 272 586 274 b 844 336 707 292 776 310 b 958 392 883 351 921 371 b 1149 524 1026 429 1090 474 b 1318 704 1213 578 1271 636 b 1397 867 1354 753 1385 806 b 1403 913 1400 882 1403 897 b 1367 1013 1403 949 1392 982 b 1213 1101 1326 1063 1272 1088 b 1132 1111 1186 1108 1158 1111 b 1057 1106 1107 1111 1082 1108 b 814 1039 974 1094 893 1071 b 735 1003 788 1028 761 1017 b 564 901 676 972 618 939 b 410 775 510 863 458 821 b 319 676 378 744 349 711 b 219 536 283 632 250 586 b 139 368 188 483 161 426 b 122 349 135 354 131 349 b 106 351 118 349 113 350 b 50 358 88 356 68 358 l 42 358 b 6 329 19 357 10 350 b 1 301 3 319 1 311 b 7 267 1 290 4 278 b 79 114 21 210 49 161 b 88 97 83 108 88 103 l 88 94 b 86 85 88 92 86 89 b 89 60 86 76 89 68 b 150 -210 92 -33 111 -125 b 185 -249 158 -228 168 -240 b 199 -254 190 -253 196 -254 b 213 -243 204 -254 208 -251 b 239 -194 224 -228 231 -211 l 285 -94 b 294 -86 288 -89 290 -86 b 303 -89 297 -86 300 -86 b 333 -110 314 -96 324 -104 b 569 -218 408 -154 485 -193 b 722 -244 619 -233 669 -242 z m 1363 929 b 1319 790 1363 878 1343 833 b 1100 542 1263 694 1186 614 b 900 406 1038 490 971 444 b 800 360 868 389 835 374 b 625 311 743 338 685 324 b 510 300 588 304 549 301 b 494 307 500 300 494 301 b 499 317 494 310 496 313 b 599 486 532 374 565 431 b 701 654 632 543 667 599 b 786 779 729 696 757 738 b 894 925 821 828 856 878 b 904 936 897 929 900 932 b 915 957 911 946 915 951 b 896 975 915 963 910 968 b 886 978 892 978 889 978 b 869 968 879 978 874 974 b 800 883 844 942 821 913 b 675 707 757 826 715 767 b 564 531 638 649 600 590 b 489 403 539 488 514 446 b 440 315 472 374 456 344 b 418 300 435 306 428 300 l 414 300 b 276 315 368 304 322 306 b 183 333 246 322 215 326 b 169 343 174 335 169 338 b 172 354 169 346 171 349 b 276 554 200 424 233 492 b 383 692 308 603 344 649 b 476 785 413 725 443 756 b 678 932 539 840 606 890 b 768 981 707 949 738 965 b 922 1043 818 1004 869 1026 b 1142 1083 994 1067 1067 1082 l 1158 1083 b 1286 1058 1201 1083 1246 1078 b 1363 929 1342 1032 1363 988 z m 164 314 l 165 314 b 193 307 175 311 183 308 b 399 272 261 292 329 283 b 413 267 408 271 413 271 b 408 257 413 265 411 261 b 365 172 394 228 379 200 b 294 33 342 126 318 81 b 263 -32 285 13 274 -10 b 256 -39 260 -36 258 -39 b 247 -35 253 -39 250 -37 b 150 60 213 -6 178 24 b 146 65 149 61 147 64 b 121 121 126 81 121 100 b 122 140 121 128 122 133 b 156 301 129 194 138 249 b 164 314 157 308 158 314 z m 121 56 b 151 28 135 44 143 36 b 238 -44 178 1 207 -24 b 247 -60 244 -50 247 -54 b 244 -72 247 -64 246 -68 b 189 -207 225 -117 207 -162 b 182 -218 188 -210 185 -212 b 121 56 140 -131 124 -42 z m 90 154 b 43 290 64 197 43 240 l 43 294 b 76 331 44 321 53 331 l 81 331 b 121 317 111 328 121 326 b 114 288 121 311 118 301 b 94 185 104 254 97 219 b 90 154 94 175 92 165 z "},"S":{"ha":860,"x_min":0,"x_max":0,"o":"m 860 1106 l 797 1106 b 613 1061 733 1099 674 1081 b 286 913 499 1024 390 971 b 167 833 244 889 206 863 b 103 768 142 814 118 794 b 93 739 97 757 93 749 b 114 703 93 726 100 714 b 138 688 121 697 131 692 b 263 638 176 664 219 650 b 386 603 303 625 344 614 b 526 543 435 588 482 568 b 633 365 596 504 632 444 l 633 358 b 592 189 633 299 615 243 b 485 21 564 128 526 72 b 258 -175 421 -57 347 -125 b 117 -225 214 -200 168 -219 l 106 -225 b 61 -192 82 -225 71 -217 b 49 -122 53 -169 49 -146 l 49 -112 b 92 53 51 -54 68 0 b 315 315 142 161 219 246 b 451 399 358 346 404 375 b 469 414 458 403 469 404 b 450 429 469 424 457 425 b 440 432 447 431 443 432 b 425 426 435 432 431 429 b 213 286 349 388 276 343 b 46 65 142 224 83 151 b 4 -101 21 11 4 -43 b 6 -126 4 -110 6 -118 b 74 -236 10 -174 28 -214 b 143 -254 96 -247 118 -254 b 206 -246 165 -253 186 -250 b 358 -172 263 -232 311 -204 b 597 74 456 -107 535 -24 b 676 256 633 131 661 190 b 686 333 682 282 686 307 b 682 382 686 350 685 365 b 586 522 671 443 635 488 b 394 621 526 564 463 599 b 222 675 338 640 281 660 b 178 688 207 678 193 683 b 149 714 158 693 149 703 b 160 742 149 722 153 731 b 171 754 163 746 167 751 b 240 815 192 776 214 797 b 454 940 307 864 381 903 b 649 1024 517 972 582 1000 b 915 1076 736 1053 822 1076 l 931 1076 b 1007 1061 957 1075 982 1068 b 1042 1015 1028 1054 1039 1038 b 1043 1003 1043 1011 1043 1007 b 1033 968 1043 992 1040 979 b 1031 960 1032 965 1031 963 b 1036 950 1031 956 1032 953 b 1044 947 1039 947 1042 947 b 1056 953 1049 947 1053 950 b 1078 1000 1069 965 1078 983 b 1054 1047 1078 1017 1069 1035 b 943 1103 1022 1074 985 1094 b 890 1107 925 1106 908 1107 b 860 1106 881 1107 869 1106 z "},"T":{"ha":561,"x_min":0,"x_max":0,"o":"m 1025 1065 b 1043 1067 1031 1065 1036 1067 b 1138 1060 1069 1067 1104 1063 b 1240 1038 1172 1057 1207 1051 b 1267 999 1258 1031 1267 1018 l 1267 993 b 1250 942 1267 975 1260 958 b 1193 867 1233 915 1217 889 b 1165 836 1183 857 1175 846 b 1161 826 1163 833 1161 831 b 1163 821 1161 825 1161 822 b 1186 807 1168 813 1176 807 b 1204 815 1192 807 1199 810 b 1267 886 1226 838 1247 861 b 1304 956 1282 907 1297 929 b 1308 979 1307 964 1308 972 b 1278 1033 1308 1001 1297 1018 b 1126 1088 1233 1067 1181 1079 b 1035 1094 1096 1093 1065 1090 b 978 1097 1015 1097 996 1097 b 931 1096 961 1097 946 1097 b 801 1089 888 1092 844 1093 b 683 1076 763 1083 724 1076 l 674 1076 b 667 1075 671 1076 669 1076 b 528 1043 621 1065 574 1056 b 300 972 451 1021 375 1000 b 197 929 265 960 232 944 b 107 878 167 914 135 899 b 88 857 100 871 92 867 b 85 849 86 854 85 851 b 94 836 85 843 89 840 b 107 831 99 833 103 831 b 115 836 110 831 113 832 b 210 893 142 864 176 878 b 492 994 301 936 394 968 b 700 1039 560 1013 629 1029 b 713 1042 704 1040 708 1042 b 718 1039 714 1042 717 1040 b 721 1033 719 1038 721 1035 b 715 1019 721 1028 717 1024 b 710 1008 714 1015 713 1011 b 649 908 690 975 671 942 b 426 578 575 799 500 689 b 96 28 308 400 199 217 b 10 -157 64 -32 32 -92 b 0 -204 6 -172 0 -187 b 56 -257 0 -228 33 -257 l 57 -257 b 79 -244 65 -256 76 -254 b 81 -240 79 -243 81 -242 b 65 -228 81 -233 71 -232 b 46 -208 51 -219 46 -215 b 51 -189 46 -204 49 -199 b 107 -62 65 -146 86 -104 b 254 194 153 25 203 110 b 442 496 314 296 376 397 b 693 878 525 624 610 750 b 761 993 718 914 743 951 b 771 1028 767 1004 771 1015 l 771 1032 b 789 1051 771 1049 771 1050 b 1025 1065 863 1061 938 1065 z "},"U":{"ha":1031,"x_min":0,"x_max":0,"o":"m 819 458 b 824 456 821 457 822 457 b 821 449 822 453 822 451 b 807 415 817 438 811 426 b 686 57 754 300 713 181 b 672 -56 679 19 672 -18 b 674 -81 672 -64 672 -72 b 721 -140 676 -112 696 -128 b 736 -144 726 -143 732 -144 b 776 -126 751 -144 764 -135 b 846 -54 804 -106 825 -79 b 853 -42 849 -50 853 -46 b 846 -32 853 -39 850 -36 b 826 -22 838 -26 832 -22 b 814 -29 822 -22 818 -25 b 786 -62 804 -40 796 -51 b 736 -108 772 -81 754 -96 b 724 -112 731 -111 726 -112 b 715 -99 718 -112 717 -108 b 714 -69 715 -89 714 -79 b 718 -21 714 -53 715 -36 b 797 263 733 76 761 171 b 972 631 846 390 908 511 b 1082 803 1006 690 1042 749 b 1225 1006 1132 869 1181 936 b 1253 1057 1235 1022 1244 1040 b 1260 1074 1257 1065 1260 1069 b 1242 1092 1260 1081 1254 1085 b 1240 1093 1242 1092 1240 1092 b 1222 1100 1232 1097 1226 1100 b 1203 1086 1217 1100 1211 1096 b 1172 1049 1192 1075 1182 1061 b 981 750 1103 953 1040 851 b 864 568 944 688 910 624 b 704 365 810 501 758 432 b 356 -31 593 229 481 94 b 192 -172 304 -81 251 -129 b 101 -222 164 -193 135 -211 b 76 -228 92 -225 83 -228 b 49 -187 58 -228 50 -215 b 47 -162 47 -179 47 -171 b 63 -62 47 -128 54 -94 b 160 182 85 24 121 103 b 428 647 239 343 331 497 b 699 1021 511 776 604 899 b 713 1043 707 1032 713 1039 b 692 1061 713 1049 706 1053 b 686 1064 690 1063 689 1063 b 672 1068 681 1067 676 1068 b 657 1058 668 1068 664 1065 b 626 1021 647 1046 636 1033 b 103 194 419 767 246 490 b 15 -50 65 117 33 36 b 4 -140 10 -79 4 -110 b 7 -176 4 -151 6 -164 b 99 -253 13 -217 56 -253 b 129 -246 110 -253 119 -250 b 154 -235 138 -242 146 -239 b 253 -168 190 -217 222 -193 b 451 25 324 -108 389 -43 b 767 393 561 144 664 268 b 819 458 783 415 801 436 z "},"V":{"ha":749,"x_min":0,"x_max":0,"o":"m 39 872 b 76 922 42 896 58 910 b 201 975 114 951 157 965 b 219 978 208 976 214 978 b 258 935 242 978 256 963 l 258 901 b 251 821 258 874 256 847 b 197 583 238 740 217 663 b 81 22 153 399 104 213 b 72 -103 75 -19 72 -61 b 74 -157 72 -121 72 -139 b 99 -232 75 -183 79 -210 b 160 -265 117 -254 138 -265 b 213 -243 178 -265 194 -258 b 281 -169 238 -221 260 -197 b 424 64 336 -97 382 -17 b 611 426 488 185 549 306 b 864 907 693 588 775 750 b 971 1071 896 964 929 1021 b 1018 1115 985 1089 1001 1103 b 1029 1121 1024 1119 1026 1121 b 1036 1107 1035 1121 1036 1117 l 1036 1096 b 1035 1068 1036 1088 1036 1078 l 1035 1061 b 1058 1032 1035 1047 1043 1036 b 1063 1031 1060 1031 1061 1031 b 1071 1038 1067 1031 1069 1033 b 1078 1089 1072 1054 1078 1072 b 1075 1108 1078 1096 1076 1101 b 1015 1156 1068 1138 1042 1156 b 982 1146 1004 1156 992 1153 b 910 1075 953 1126 931 1101 b 831 943 879 1033 856 988 b 656 607 768 833 713 719 b 379 67 563 426 474 244 b 222 -171 333 -18 286 -100 b 151 -229 203 -194 181 -217 b 138 -233 146 -232 142 -233 b 126 -217 132 -233 129 -228 b 119 -157 122 -197 119 -176 b 157 144 121 -56 138 44 b 268 622 189 306 231 464 b 311 864 288 703 306 782 l 311 878 b 189 1004 311 963 246 1004 l 179 1004 b 22 925 117 999 64 969 b 10 900 14 915 10 907 b 39 872 10 889 19 879 z "},"W":{"ha":1567,"x_min":0,"x_max":0,"o":"m 654 164 l 742 268 b 746 265 743 267 744 267 b 736 231 743 254 740 243 b 708 38 719 168 708 104 l 708 17 b 814 -158 713 -61 742 -122 b 886 -176 838 -169 863 -176 b 921 -172 897 -176 910 -175 b 1031 -119 961 -164 997 -143 b 1197 44 1094 -72 1149 -17 b 1406 364 1278 144 1346 251 b 1504 610 1446 443 1482 524 b 1546 917 1531 710 1546 813 b 1543 989 1546 940 1544 965 b 1504 1144 1539 1043 1529 1096 b 1422 1217 1486 1179 1458 1203 b 1394 1224 1414 1221 1404 1224 b 1379 1222 1389 1224 1385 1224 b 1282 1167 1342 1214 1311 1192 b 1278 1160 1279 1164 1278 1163 b 1283 1151 1278 1157 1281 1154 b 1301 1143 1290 1146 1296 1143 b 1321 1151 1307 1143 1314 1146 b 1390 1193 1343 1168 1364 1185 b 1417 1199 1400 1197 1408 1199 b 1458 1169 1433 1199 1446 1189 b 1472 1144 1464 1163 1468 1153 b 1501 1000 1492 1099 1500 1050 b 1503 928 1503 976 1503 951 b 1499 825 1503 893 1501 860 b 1429 531 1488 724 1467 625 b 1197 115 1371 382 1292 244 b 1014 -79 1144 43 1085 -24 b 876 -146 974 -111 929 -137 b 853 -149 868 -147 860 -149 b 779 -97 819 -149 796 -132 b 765 -54 772 -83 768 -69 b 758 13 761 -32 758 -10 b 763 67 758 31 760 49 b 825 314 772 153 797 233 b 931 510 850 385 879 453 b 933 514 932 511 932 513 b 1049 696 975 572 1018 631 b 1060 731 1057 713 1060 722 b 1026 760 1060 743 1047 746 b 1013 764 1022 763 1017 764 b 996 757 1007 764 1001 761 b 972 732 988 749 979 740 b 922 660 954 710 938 685 b 796 406 871 579 831 494 b 768 360 789 389 779 374 b 606 160 717 292 661 225 b 332 -119 521 61 432 -35 b 179 -222 285 -160 236 -196 b 107 -242 157 -233 132 -240 l 103 -242 b 61 -212 82 -242 69 -231 b 50 -174 56 -200 51 -187 b 49 -137 49 -161 49 -149 b 51 -93 49 -122 49 -107 b 104 79 61 -33 81 24 b 293 421 157 199 222 311 b 624 854 392 574 501 719 b 856 1071 696 932 769 1008 b 864 1078 858 1074 861 1075 b 867 1083 867 1081 867 1082 b 864 1090 867 1086 867 1088 b 838 1100 857 1097 847 1100 b 818 1096 831 1100 824 1099 b 790 1078 808 1092 800 1085 b 671 978 749 1047 710 1013 b 432 715 585 896 507 808 b 85 171 299 546 179 367 b 6 -71 47 94 17 15 b 3 -117 4 -86 3 -101 b 11 -176 3 -136 4 -157 b 133 -265 29 -231 78 -265 b 154 -264 140 -265 147 -265 b 239 -229 185 -258 213 -244 b 375 -128 288 -200 332 -165 b 654 164 476 -37 567 61 z "},"X":{"ha":965,"x_min":0,"x_max":0,"o":"m 476 97 b 486 65 483 83 483 74 b 533 -103 497 8 513 -49 b 639 -242 556 -160 582 -211 b 679 -253 651 -249 665 -253 b 717 -242 692 -253 704 -250 b 793 -151 750 -218 772 -186 b 796 -143 796 -149 796 -146 b 778 -124 796 -136 790 -132 b 768 -119 774 -121 771 -119 b 757 -128 764 -119 760 -122 b 742 -150 751 -136 746 -143 b 676 -215 724 -176 704 -200 b 650 -225 667 -221 657 -225 b 621 -207 639 -225 629 -219 b 599 -169 613 -196 606 -183 b 515 131 553 -75 532 28 l 515 135 b 526 160 515 144 521 153 b 725 426 596 246 661 336 b 981 769 808 542 890 660 b 1208 999 1049 853 1121 933 b 1326 1065 1244 1025 1282 1051 b 1336 1067 1331 1067 1333 1067 b 1343 1053 1342 1067 1342 1064 l 1343 1029 b 1358 1013 1344 1021 1350 1014 b 1371 1026 1368 1013 1368 1021 b 1378 1049 1374 1033 1376 1042 b 1379 1057 1379 1051 1379 1054 b 1371 1074 1379 1064 1376 1069 b 1307 1103 1351 1090 1332 1103 b 1285 1099 1300 1103 1293 1101 b 1178 1047 1246 1088 1211 1068 b 996 886 1111 1001 1051 946 b 797 632 924 806 860 719 b 518 243 704 501 614 369 b 506 233 514 239 513 233 l 504 233 b 493 368 497 278 496 322 b 492 406 493 381 492 393 b 499 564 492 458 496 511 b 503 632 500 588 501 610 b 535 938 514 733 524 835 b 538 983 536 953 538 968 b 536 1017 538 994 536 1006 b 511 1060 535 1035 529 1050 b 493 1071 506 1063 500 1067 b 472 1078 486 1076 479 1078 b 450 1071 464 1078 457 1076 b 417 1043 439 1063 426 1053 b 267 868 360 990 313 929 b 243 825 257 854 249 840 b 242 814 242 821 242 818 b 250 797 242 807 243 801 b 261 793 254 794 258 793 b 269 803 265 793 267 796 b 294 842 275 817 285 829 b 415 978 332 889 372 935 b 469 1026 433 994 451 1010 b 479 1032 472 1029 476 1032 b 483 1031 481 1032 482 1031 b 486 1024 486 1029 486 1026 l 486 990 b 475 863 486 947 481 904 b 449 560 463 761 453 661 b 446 450 446 524 446 488 b 464 196 446 365 451 281 l 464 189 b 454 163 464 179 463 171 b 403 101 438 143 419 122 b 217 -79 346 36 286 -26 b 108 -121 183 -104 149 -121 b 90 -119 103 -121 97 -121 b 51 -93 71 -118 58 -111 b 44 -62 47 -83 46 -72 l 44 -53 b 81 67 44 -10 60 29 b 178 185 106 113 140 150 b 188 203 185 192 188 197 b 171 218 188 208 182 214 b 164 219 168 219 167 219 b 149 211 158 219 154 215 b 78 135 124 188 99 163 b 7 -12 43 90 17 43 b 4 -39 6 -21 4 -31 b 31 -106 4 -64 13 -86 b 99 -146 50 -125 72 -140 b 139 -154 113 -150 125 -154 l 144 -154 b 261 -110 186 -149 226 -135 b 421 36 319 -67 372 -18 b 476 97 439 56 456 75 z "},"Y":{"ha":1013,"x_min":0,"x_max":0,"o":"m 190 -428 l 210 -428 b 256 -386 225 -414 240 -401 b 360 -262 294 -349 326 -304 b 592 54 440 -160 517 -53 b 717 236 633 114 675 175 b 918 556 788 340 856 446 b 1075 854 972 653 1026 753 b 1108 935 1088 881 1100 907 b 1113 953 1111 943 1113 949 b 1094 972 1113 960 1108 964 l 1092 972 b 1074 979 1083 976 1079 979 b 1057 967 1068 979 1064 975 b 1032 935 1049 957 1039 946 b 806 631 961 829 885 729 b 593 389 739 546 668 465 b 396 213 532 326 467 267 b 239 111 347 175 296 139 b 154 82 213 97 185 86 b 131 81 146 81 138 81 b 64 131 93 81 79 96 b 54 164 60 142 57 153 b 50 204 51 178 50 192 b 58 276 50 229 54 253 b 153 533 76 368 113 451 b 435 993 233 696 329 847 b 488 1061 453 1017 469 1039 b 494 1074 493 1067 494 1069 b 483 1086 494 1078 492 1082 b 461 1096 474 1093 467 1096 b 435 1079 453 1096 446 1090 b 251 831 367 1001 308 917 b 94 550 193 740 140 647 b 17 336 63 481 33 411 b 4 236 10 303 4 269 b 8 186 4 219 6 203 b 138 57 19 121 65 74 b 158 54 144 56 151 54 b 171 56 163 54 167 54 b 276 90 208 60 243 74 b 496 246 357 133 428 188 b 644 388 549 290 597 338 b 800 561 699 443 750 501 b 938 731 847 617 893 672 b 978 783 950 749 965 765 b 969 757 978 772 974 765 b 835 521 925 678 882 599 b 658 247 778 428 718 336 b 422 -90 581 133 504 21 b 225 -347 360 -178 294 -264 b 194 -378 217 -358 206 -368 b 176 -386 189 -382 183 -386 b 167 -383 174 -386 171 -385 b 158 -381 164 -382 161 -381 b 153 -383 157 -381 154 -381 b 150 -389 151 -385 150 -386 b 154 -399 150 -392 153 -394 b 169 -411 158 -404 164 -407 b 190 -428 176 -415 186 -419 z "},"Z":{"ha":999,"x_min":0,"x_max":0,"o":"m 357 -428 l 411 -428 b 439 -419 419 -425 429 -422 b 547 -371 478 -410 514 -394 b 736 -146 629 -312 685 -231 b 740 -135 739 -142 740 -139 b 731 -122 740 -131 738 -126 b 714 -114 722 -117 718 -114 b 699 -129 708 -114 704 -118 b 629 -232 676 -164 656 -200 b 435 -383 576 -297 518 -356 b 360 -396 410 -392 385 -396 b 238 -361 318 -396 276 -383 b 121 -231 185 -331 149 -285 b 71 -64 93 -178 81 -121 b 61 28 67 -33 61 -3 b 75 46 61 39 61 46 b 199 88 121 46 160 67 b 324 165 242 111 283 138 b 499 293 383 206 443 247 b 582 325 524 314 550 324 b 847 404 676 329 765 357 b 864 421 854 408 864 410 l 864 422 b 836 436 863 429 847 436 b 831 435 835 436 832 436 b 815 428 825 433 819 431 b 758 400 796 418 778 408 b 583 354 703 375 644 361 b 593 367 583 361 589 364 b 694 449 626 394 661 421 b 960 689 785 526 875 604 b 1104 853 1011 740 1061 793 b 1158 957 1128 885 1149 918 b 1163 988 1161 967 1163 978 b 1131 1049 1163 1011 1153 1032 b 1058 1088 1108 1064 1085 1079 b 965 1100 1028 1097 996 1100 b 888 1094 939 1100 913 1097 b 664 1036 811 1085 736 1065 b 494 957 606 1014 549 988 b 308 829 429 919 367 878 b 199 717 268 796 231 758 b 172 668 188 701 178 686 b 171 657 171 664 171 661 b 179 639 171 650 172 644 b 189 633 183 635 186 633 b 196 643 193 633 194 636 b 224 697 200 664 211 682 b 281 757 242 718 260 739 b 521 925 354 822 435 878 b 865 1053 631 985 743 1031 b 938 1063 889 1058 914 1058 b 990 1067 956 1065 974 1067 b 1081 1056 1021 1067 1050 1063 b 1111 1019 1104 1051 1110 1043 l 1111 1011 b 1099 961 1111 994 1107 976 b 988 806 1072 901 1029 853 b 818 638 933 746 876 692 b 493 363 714 542 604 451 b 463 353 483 356 475 353 b 378 364 433 353 406 358 b 336 386 363 367 349 374 b 292 407 325 396 313 406 b 440 328 332 356 385 339 b 425 308 439 317 431 313 b 310 224 386 281 347 251 b 133 110 253 182 194 143 b 74 83 115 100 94 92 b 65 82 71 82 68 82 b 56 89 61 82 57 83 b 28 115 50 103 38 107 b 14 122 24 118 19 122 b 8 121 13 122 11 122 b 1 107 3 117 1 113 b 3 99 1 104 1 101 b 8 83 3 93 4 88 b 19 39 17 69 18 54 b 25 -19 21 19 22 0 b 68 -192 33 -78 44 -136 b 301 -410 115 -297 196 -367 b 357 -428 319 -417 340 -418 z "},"[":{"ha":900,"x_min":0,"x_max":0,"o":"m 621 864 l 621 867 b 617 875 621 872 619 874 b 483 919 575 906 531 919 b 439 915 468 919 454 918 b 340 860 400 910 368 888 b 257 756 308 829 282 793 b 33 356 172 628 99 494 b 6 278 21 331 11 306 b 4 263 4 272 4 268 b 31 211 4 242 14 226 b 89 178 49 197 68 186 b 157 165 111 169 135 165 b 239 181 185 165 213 171 b 247 188 244 183 247 185 b 242 196 247 190 246 193 b 214 206 233 203 224 206 b 200 204 210 206 206 206 b 133 192 179 196 156 192 b 83 199 117 192 100 194 b 51 242 60 204 51 217 b 61 282 51 256 56 268 b 83 335 68 299 75 317 b 246 626 133 435 188 531 b 383 817 288 693 331 758 b 504 883 417 851 454 878 b 529 885 513 885 521 885 b 599 871 553 885 576 881 b 618 864 604 868 611 864 z "},"\\":{"ha":967,"x_min":0,"x_max":0,"o":"m 656 161 b 682 186 672 163 682 172 b 678 201 682 190 681 196 b 594 315 654 242 625 279 b 313 643 504 426 410 536 b 128 839 253 710 192 776 b 60 904 106 861 82 883 b 42 917 54 910 49 917 l 38 917 b 4 897 25 913 14 906 b 1 892 3 896 1 893 b 4 886 1 889 3 888 b 22 868 10 879 15 874 b 506 346 192 703 351 526 b 615 211 543 301 582 257 b 643 169 625 197 633 183 b 656 161 646 165 649 161 z "},"]":{"ha":900,"x_min":0,"x_max":0,"o":"m 1 219 l 1 217 b 6 208 1 213 3 211 b 142 164 47 179 93 164 b 183 168 156 164 169 165 b 282 225 222 175 254 197 b 364 329 314 256 339 292 b 589 729 450 456 524 590 b 617 807 601 754 611 779 b 618 822 618 813 618 817 b 592 872 618 842 608 858 b 532 907 574 888 554 899 b 464 919 510 915 486 919 b 383 904 438 919 410 914 b 375 897 378 901 375 900 b 381 889 375 894 376 892 b 408 879 389 882 399 879 b 422 881 413 879 417 879 b 490 892 444 888 468 892 b 539 886 507 892 524 890 b 571 843 563 881 571 867 b 561 803 571 829 567 815 b 538 750 554 785 547 767 b 376 458 489 650 435 553 b 238 268 335 392 292 326 b 118 200 206 233 168 207 b 96 199 111 199 103 199 b 24 214 71 199 47 204 b 6 221 18 217 13 221 b 1 219 4 221 3 219 z "},"^":{"ha":454,"x_min":0,"x_max":0,"o":"m 56 1058 l 93 1083 b 103 1065 100 1078 99 1071 b 138 1044 108 1053 125 1044 l 143 1044 b 151 1053 147 1046 150 1047 b 147 1060 151 1056 150 1058 b 131 1079 133 1064 131 1071 b 133 1097 131 1085 132 1092 b 156 1139 139 1113 144 1128 b 167 1157 164 1147 167 1153 b 146 1175 167 1165 158 1169 b 136 1178 143 1176 139 1178 b 118 1167 129 1178 124 1172 b 17 1085 86 1136 53 1108 b 7 1078 13 1082 10 1079 b 1 1069 4 1075 1 1072 b 7 1061 1 1067 4 1064 b 31 1049 15 1053 22 1049 b 56 1058 38 1049 46 1051 z "},"_":{"ha":744,"x_min":0,"x_max":0,"o":"m 0 253 b 86 211 22 228 57 211 b 371 215 254 213 319 215 l 460 215 b 467 221 463 215 465 215 b 464 225 465 222 465 224 b 458 229 463 226 460 228 b 349 261 426 256 388 261 l 38 261 b 0 253 25 261 13 260 z "},"`":{"ha":453,"x_min":0,"x_max":0,"o":"m 131 1058 b 168 1078 146 1061 157 1069 b 171 1082 169 1079 171 1081 b 163 1089 171 1086 167 1088 b 103 1125 142 1100 122 1111 b 68 1156 90 1135 78 1143 b 54 1163 64 1161 60 1163 b 44 1160 51 1163 47 1163 b 11 1140 33 1153 22 1147 b 3 1129 7 1138 3 1133 b 8 1122 3 1128 4 1125 b 121 1061 44 1099 81 1075 b 131 1058 125 1060 128 1060 z "},"a":{"ha":396,"x_min":0,"x_max":0,"o":"m 274 517 b 276 546 275 529 276 538 b 269 568 276 554 275 563 b 219 593 254 585 238 593 b 182 582 207 593 194 589 b 111 526 156 567 133 547 b -65 301 42 460 -15 383 b -112 203 -85 269 -101 238 b -117 182 -115 194 -117 188 b -103 160 -117 172 -112 167 b -75 147 -92 151 -83 147 b -51 156 -68 147 -61 150 b 11 206 -29 171 -8 188 b 154 344 61 250 107 299 b 171 356 158 349 163 354 b 150 301 164 336 157 319 b 132 219 140 275 133 249 l 132 218 b 181 174 132 196 157 174 b 200 179 188 174 194 175 b 231 200 210 186 221 192 b 413 375 297 251 358 310 l 425 392 b 428 399 426 394 428 397 b 424 407 428 401 426 404 b 415 410 421 410 418 410 b 407 407 413 410 410 410 b 393 390 403 401 397 396 b 229 232 344 332 289 279 b 189 204 215 222 203 213 b 174 196 185 201 179 196 b 169 197 172 196 171 196 b 165 206 165 199 165 201 b 167 218 165 210 167 214 b 192 296 171 246 181 271 b 315 496 224 368 267 435 b 333 519 321 504 326 511 b 335 528 335 522 335 525 l 335 531 b 310 544 331 539 319 544 b 293 539 303 544 297 543 b 274 517 288 532 282 526 z m -62 192 l -62 194 b -54 215 -62 204 -58 210 b 188 521 13 328 92 431 b 226 550 200 531 213 542 b 233 551 229 551 231 551 b 239 543 238 551 239 549 l 239 517 b 236 500 238 511 236 506 l 236 497 b 238 486 238 493 238 489 b 214 444 238 469 225 457 b 33 265 154 383 96 322 b -42 203 10 243 -15 222 b -62 192 -47 197 -53 192 z "},"b":{"ha":419,"x_min":0,"x_max":0,"o":"m 49 375 b 47 382 47 379 47 382 b 78 440 57 401 67 421 b 410 892 167 607 275 758 b 424 913 418 900 424 907 b 401 929 424 919 417 924 b 394 931 399 931 397 931 b 381 925 390 931 386 928 b 354 901 372 918 363 910 b 93 572 251 804 165 693 b -36 306 43 488 -1 399 b -60 208 -47 274 -56 242 b -61 196 -60 204 -61 199 b -24 139 -61 169 -49 153 b -3 133 -17 135 -10 133 b 29 143 8 133 19 138 b 110 203 60 160 85 181 b 140 215 118 211 128 215 b 276 257 189 218 233 233 b 399 344 319 282 360 313 b 453 393 417 360 435 376 b 460 403 457 396 460 399 b 457 410 460 406 460 407 b 447 415 454 413 451 415 b 438 413 444 415 440 414 l 429 404 b 294 301 386 367 340 333 b 181 244 258 276 222 257 b 153 239 172 242 163 240 b 243 340 183 274 214 306 b 332 461 275 378 307 417 b 349 501 339 474 346 488 b 351 517 350 507 351 511 b 346 535 351 522 350 529 b 290 560 335 549 310 560 b 279 558 286 560 282 560 b 222 532 258 554 240 543 b 74 406 168 496 119 453 b 49 375 65 396 57 386 z m 297 528 b 265 453 293 497 279 475 b 142 297 231 396 188 344 b 96 253 126 282 111 268 b 79 244 92 247 86 244 b 67 249 75 244 71 246 b 40 281 49 257 40 267 b 46 303 40 288 42 294 b 88 363 56 326 71 344 b 268 517 140 422 200 475 b 297 528 276 521 285 528 z m 6 282 b 67 232 21 257 46 247 b -19 169 53 213 8 178 b -21 183 -19 174 -21 179 b 6 282 -21 218 -7 250 z "},"c":{"ha":392,"x_min":0,"x_max":0,"o":"m 260 550 l 260 547 b 250 528 260 538 254 533 b 203 457 233 504 217 481 b 193 432 199 449 194 440 b 215 406 193 421 201 408 l 218 406 b 231 419 226 406 226 414 b 244 446 235 429 239 438 b 325 546 268 482 293 517 b 333 556 328 549 333 553 b 329 561 333 558 332 560 b 301 576 321 568 313 576 b 293 575 299 576 296 576 b 282 574 289 574 285 574 b 263 579 275 574 269 575 b 233 588 253 585 243 588 b 211 583 226 588 219 586 b 124 532 178 574 150 554 b -35 340 58 479 6 414 b -76 232 -54 306 -72 271 b -78 221 -76 228 -78 224 b -60 178 -78 204 -72 190 b 0 154 -42 164 -24 154 b 13 156 4 154 8 156 b 125 199 53 161 89 179 b 244 269 165 221 204 244 b 410 381 300 306 357 339 b 428 397 415 386 422 392 b 432 404 429 399 432 401 b 429 410 432 406 431 408 b 421 414 428 413 424 414 l 417 414 b 403 406 411 411 407 408 b 364 376 389 396 376 385 b 183 261 306 335 244 299 b 51 192 140 236 99 210 b -8 175 32 183 13 178 l -15 175 b -37 201 -31 175 -37 183 l -33 222 b -1 293 -25 247 -14 271 b 104 436 29 344 64 393 b 225 538 139 475 179 510 b 254 550 233 543 243 550 z "},"d":{"ha":418,"x_min":0,"x_max":0,"o":"m 144 332 l 219 415 b 224 413 221 414 222 413 b 215 390 221 406 218 397 b 154 156 185 314 165 236 b 153 122 153 144 153 133 b 154 97 153 114 153 106 b 190 61 157 76 174 67 b 199 60 193 60 196 60 b 225 78 211 60 218 68 b 267 135 240 96 254 114 b 269 144 268 138 269 142 b 263 156 269 149 268 153 b 249 161 257 160 253 161 b 238 154 244 161 242 160 b 206 111 226 140 217 125 b 196 101 203 107 201 101 l 192 101 b 190 114 190 106 190 110 l 190 126 b 210 224 196 160 200 192 b 342 550 240 339 288 446 b 357 572 346 558 351 565 b 471 706 396 617 433 660 b 576 839 507 749 544 792 b 607 892 588 856 599 872 b 611 904 610 897 611 901 b 599 919 611 910 607 914 b 572 931 588 926 581 931 b 547 918 565 931 558 926 b 490 865 526 903 508 885 b 317 613 422 788 367 703 b 297 581 311 601 306 590 b 288 589 292 582 290 586 b 238 615 271 607 254 615 b 194 601 224 615 210 611 b 133 554 172 589 151 572 b -76 272 47 472 -19 376 b -112 190 -90 246 -104 219 b -115 174 -114 185 -115 179 b -104 153 -115 167 -112 158 b -71 138 -93 146 -83 138 b -53 143 -65 138 -60 139 b -7 178 -36 153 -21 165 b 144 332 47 225 96 279 z m -57 181 l -61 185 b -8 279 -46 218 -26 249 b 196 538 50 374 115 463 b 240 574 210 551 224 564 b 249 576 244 575 247 576 b 256 565 253 576 254 574 b 247 494 256 542 251 518 b 235 475 246 488 240 481 b -24 208 153 382 71 289 b -57 181 -35 199 -46 190 z m 525 825 b 458 736 503 796 481 765 b 522 829 475 771 499 799 b 525 825 522 828 524 826 z "},"e":{"ha":393,"x_min":0,"x_max":0,"o":"m 110 356 l 114 356 b 183 381 142 356 163 367 b 290 504 229 413 264 454 b 300 531 294 513 297 522 b 301 542 301 535 301 538 b 294 558 301 547 300 554 b 232 588 275 574 256 588 b 210 583 225 588 218 586 b 140 546 185 575 161 561 b -56 301 54 481 -10 397 b -76 232 -65 279 -74 256 b -78 221 -76 228 -78 224 b -60 178 -78 204 -72 190 b -1 154 -42 164 -24 154 b 11 156 3 154 7 156 b 125 199 53 161 89 179 b 243 269 165 221 204 244 b 411 382 300 306 358 340 b 428 397 417 388 422 392 b 432 404 429 399 432 401 b 429 410 432 406 431 408 b 421 414 428 413 424 414 l 417 414 b 403 406 411 411 407 408 b 374 383 393 397 383 390 b 104 217 286 322 197 268 b -8 175 69 197 32 181 l -15 175 b -37 197 -31 175 -37 182 l -37 201 b -29 236 -36 213 -33 225 b 46 367 -11 283 18 325 b 58 375 50 372 54 375 b 71 369 63 375 67 372 b 110 356 82 363 96 356 z m 257 550 b 175 424 236 499 210 458 b 132 390 163 410 149 399 b 111 381 125 386 118 383 b 96 378 106 379 100 378 b 78 386 88 378 82 381 b 75 396 75 390 75 393 b 86 415 75 404 81 410 b 217 533 124 461 167 501 b 257 550 228 540 239 547 z "},"f":{"ha":296,"x_min":0,"x_max":0,"o":"m 271 689 b 261 667 269 678 264 672 b 243 629 254 654 247 643 b 239 614 240 624 239 618 b 257 592 239 604 244 599 b 267 589 261 589 264 589 b 275 600 271 589 272 592 b 293 640 278 615 286 628 l 335 703 b 411 803 360 736 385 771 b 419 817 417 810 419 813 b 407 829 419 821 415 824 b 378 835 400 833 389 835 b 344 828 365 835 353 833 b 318 810 335 822 326 815 b 151 633 256 757 201 697 b -74 232 56 511 -17 375 b -133 22 -101 164 -122 94 b -136 -15 -135 10 -136 -3 b -135 -39 -136 -24 -136 -31 b -94 -76 -131 -61 -112 -71 b -87 -78 -92 -76 -90 -78 b -61 -57 -75 -78 -67 -67 b -37 -19 -53 -46 -44 -33 b 32 146 -10 33 13 89 b 72 278 47 189 60 233 b 96 303 78 296 83 303 b 106 301 99 303 101 301 b 139 299 117 299 128 299 b 183 301 153 299 168 300 b 274 333 215 307 247 315 b 322 385 294 347 310 364 b 326 393 325 388 326 390 b 321 401 326 397 325 400 b 310 406 317 404 313 406 b 301 401 307 406 304 404 b 292 390 297 397 294 393 b 218 336 272 364 247 346 b 126 319 189 325 158 319 b 89 322 114 319 101 321 b 71 324 82 324 76 324 b 36 290 53 324 44 315 b 15 218 29 267 22 243 b -76 -7 -10 142 -35 64 b -93 -26 -81 -14 -82 -22 l -93 -21 b 271 689 -93 129 131 569 z "},"g":{"ha":394,"x_min":0,"x_max":0,"o":"m 171 361 b 174 358 171 360 172 360 b 164 340 171 353 168 346 b -44 -25 96 218 28 96 b -197 -268 -93 -107 -143 -189 b -206 -287 -203 -275 -206 -282 b -183 -304 -206 -296 -199 -301 l -178 -304 b -160 -293 -169 -304 -164 -299 b -112 -228 -142 -272 -128 -250 b 307 488 38 4 174 246 b 328 532 315 501 322 517 b 332 543 329 536 332 540 b 329 550 332 546 331 549 b 292 572 319 560 307 572 l 288 572 b 279 571 285 572 282 571 b 256 581 269 571 264 575 b 206 597 239 592 222 597 b 161 585 192 597 176 593 b 115 553 144 576 129 565 b 71 504 99 538 85 522 b -51 300 22 442 -17 372 b -85 214 -64 272 -76 244 b -92 176 -89 201 -92 190 l -92 171 b -47 133 -90 149 -68 133 b -28 139 -40 133 -33 135 b -3 161 -18 144 -10 153 b 119 300 40 206 81 253 b 171 361 136 319 154 340 z m -40 181 b -29 221 -40 196 -35 208 b 114 472 8 310 56 394 b 174 535 131 494 151 515 b 225 565 189 549 206 560 b 238 568 231 567 235 568 b 251 554 243 568 246 564 b 256 533 254 547 256 540 b 246 504 256 524 253 514 b 75 292 192 431 133 361 b -17 196 46 258 15 226 b -40 181 -24 190 -28 182 z "},"h":{"ha":401,"x_min":0,"x_max":0,"o":"m 51 368 b 108 468 67 404 88 436 b 197 604 138 514 167 558 b 343 807 243 674 292 742 b 414 892 367 836 390 864 b 422 908 418 896 422 901 l 422 913 b 392 928 418 922 404 928 b 374 924 385 928 378 926 b 340 888 361 914 351 900 b 218 735 296 840 257 788 b 38 461 154 646 93 554 b -62 276 1 401 -33 340 b -97 194 -75 250 -89 222 b -100 179 -99 188 -100 183 b -82 157 -100 168 -94 164 b -69 153 -76 154 -72 153 b -51 171 -64 153 -60 158 l -47 179 b 150 428 8 271 75 353 b 243 511 181 457 213 483 b 263 521 247 515 253 521 b 257 508 260 517 258 513 b 174 350 228 457 197 406 b 135 238 157 314 143 276 b 133 221 135 232 133 226 b 135 203 133 215 135 210 b 185 161 138 182 161 161 b 207 168 192 161 200 164 b 247 199 221 178 235 188 b 410 363 304 250 358 306 b 431 393 418 372 424 382 b 433 400 432 396 433 397 b 426 410 433 404 432 407 b 419 413 424 411 422 413 b 410 407 417 413 413 410 b 401 396 407 403 404 399 b 368 357 390 382 381 368 b 214 208 318 306 268 254 b 183 188 204 200 194 193 b 176 186 181 186 178 186 b 169 196 171 186 169 189 b 178 236 169 210 174 224 b 232 361 192 281 211 321 b 299 483 254 403 276 443 b 325 538 308 501 317 519 b 329 551 328 543 329 547 b 324 565 329 557 328 561 b 292 582 315 576 303 582 b 268 575 283 582 275 579 b 229 542 253 565 243 553 b 108 429 188 506 146 469 b 51 368 90 408 69 390 z "},"i":{"ha":242,"x_min":0,"x_max":0,"o":"m -61 201 b -50 164 -61 190 -61 176 b -10 144 -37 151 -25 144 b 18 151 -1 144 8 147 b 86 203 43 165 65 183 b 233 351 136 251 186 300 b 269 390 246 364 257 378 b 274 400 271 394 274 397 b 271 406 274 401 272 404 b 261 411 268 408 265 411 b 254 408 258 411 257 410 b 233 390 247 404 240 397 b 76 235 183 338 131 286 b 10 179 56 215 33 196 b -11 169 3 176 -4 172 l -14 169 b -24 179 -19 169 -24 172 b -21 196 -24 185 -22 190 b 7 279 -14 225 -4 253 b 149 533 44 369 96 453 b 161 558 157 546 161 554 b 138 578 161 565 154 569 b 133 581 136 579 135 581 b 119 585 128 583 124 585 b 106 574 115 585 111 582 b 69 519 92 557 81 538 b -49 272 21 442 -22 361 b -61 201 -56 250 -61 228 z m 221 651 l 221 657 b 214 668 221 661 218 665 l 185 685 b 175 689 181 688 178 689 b 160 679 169 689 164 685 b 129 622 149 661 138 642 b 126 610 128 618 126 614 b 133 597 126 606 128 601 b 158 583 140 592 149 583 b 165 586 160 583 163 585 b 221 651 190 603 208 625 z "},"j":{"ha":196,"x_min":0,"x_max":0,"o":"m -492 -237 b -479 -278 -492 -253 -487 -268 b -417 -308 -462 -297 -440 -308 b -379 -299 -404 -308 -392 -306 b -326 -260 -360 -289 -342 -275 b -183 -76 -269 -206 -224 -143 b 64 403 -89 78 -7 238 b 106 515 79 440 93 476 b 110 535 108 524 110 529 b 88 557 110 543 104 547 b 86 558 88 557 86 557 b 68 565 78 563 72 565 b 56 547 63 565 61 560 b 13 428 42 507 28 467 b -168 51 -39 299 -103 174 b -301 -161 -207 -24 -250 -94 b -399 -261 -331 -197 -361 -233 b -429 -278 -408 -268 -418 -275 b -437 -279 -432 -279 -435 -279 b -451 -264 -444 -279 -450 -274 b -453 -247 -451 -258 -453 -253 b -450 -225 -453 -240 -451 -232 b -389 -57 -439 -165 -418 -110 b -253 86 -356 3 -314 53 b -240 97 -249 89 -240 90 l -240 99 b -256 111 -240 107 -250 108 b -264 114 -258 113 -261 114 b -276 110 -268 114 -272 111 b -375 32 -314 90 -349 64 b -476 -156 -422 -24 -454 -87 b -492 -237 -485 -183 -490 -211 z m 76 614 l 76 600 b 104 574 78 583 93 581 b 111 572 107 572 110 572 b 128 585 119 572 124 579 b 157 633 140 600 150 615 b 161 647 160 639 161 643 b 147 665 161 654 157 658 b 117 682 138 671 126 676 b 107 685 114 683 110 685 b 97 676 103 685 100 682 b 76 614 88 656 79 633 z "},"k":{"ha":394,"x_min":0,"x_max":0,"o":"m 90 313 b 96 310 93 311 94 311 b 97 296 96 306 96 300 b 138 136 101 240 115 188 b 210 60 153 103 175 76 b 228 56 217 57 222 56 b 254 67 238 56 246 58 b 286 118 269 81 278 99 b 288 125 288 121 288 122 b 281 136 288 129 285 132 b 265 143 275 140 269 143 b 251 131 261 143 256 139 b 228 94 243 118 236 106 b 210 82 221 86 215 82 b 192 96 203 82 197 86 b 165 150 181 113 172 131 b 138 318 146 204 138 261 l 138 332 b 158 381 138 353 144 367 b 340 550 219 438 279 493 b 354 564 344 554 350 558 b 357 571 357 567 357 568 b 351 581 357 574 356 578 b 335 586 346 585 340 586 b 315 581 328 586 322 585 b 196 525 276 560 236 543 b 172 513 189 521 181 517 b 108 433 140 496 119 468 b 97 376 103 415 100 396 b 85 351 96 367 92 358 l -3 260 b -18 251 -7 257 -10 251 b -10 267 -14 258 -12 263 b 94 456 25 329 58 393 b 357 839 172 590 256 721 b 411 899 374 860 392 879 b 415 908 414 903 415 906 b 408 918 415 911 413 915 b 381 931 394 926 388 931 b 356 914 374 931 368 926 b 263 808 321 882 292 846 b -74 253 129 636 21 449 b -94 200 -82 235 -89 218 b -99 182 -97 192 -99 186 b -81 160 -99 172 -93 167 b -62 153 -72 156 -68 153 b -42 167 -57 153 -51 157 b 21 236 -19 190 0 213 b 90 313 44 261 68 288 z m 157 422 b 247 507 167 471 204 492 b 157 422 217 479 188 450 z "},"l":{"ha":246,"x_min":0,"x_max":0,"o":"m -46 219 l -46 203 b 11 149 -42 171 -17 149 b 40 157 21 149 31 151 b 76 182 54 164 65 172 b 222 325 128 226 176 275 b 268 382 239 343 254 363 b 276 394 272 386 276 390 b 271 403 276 397 275 400 b 263 406 268 404 265 406 b 249 396 257 406 253 401 b 238 383 244 392 242 388 b 50 197 182 314 117 254 b 15 174 39 188 28 179 b 4 171 11 172 7 171 b -8 189 -4 171 -7 176 b -7 204 -8 194 -7 199 b 14 283 -3 231 4 257 b 231 688 67 429 144 560 b 381 886 278 757 329 821 b 390 901 386 893 390 897 b 375 915 390 906 385 908 b 365 921 372 917 368 919 b 346 929 357 926 350 929 b 326 914 340 929 335 924 b 110 613 247 819 174 719 b -26 319 54 519 6 424 b -46 219 -36 288 -46 254 z "},"m":{"ha":699,"x_min":0,"x_max":0,"o":"m 344 553 b 336 538 342 547 339 543 b 224 331 296 471 256 403 b 207 285 217 315 211 300 b 206 278 207 282 206 281 b 219 258 206 269 211 264 b 233 254 224 256 229 254 b 247 261 238 254 243 256 b 260 272 251 265 256 268 b 429 444 314 333 368 390 b 568 554 472 483 518 521 b 586 561 572 557 578 561 b 560 517 576 544 569 531 b 417 278 511 439 461 360 b 354 132 392 231 368 183 b 347 94 350 119 347 108 l 347 89 b 376 54 347 69 361 63 b 390 50 382 51 386 50 b 413 58 397 50 406 53 b 456 100 429 69 442 85 b 463 114 460 106 463 110 b 450 126 463 118 458 122 b 439 129 446 129 443 129 b 426 122 435 129 431 128 b 392 89 415 111 403 100 b 389 96 390 92 389 94 b 390 103 389 99 390 100 b 424 183 399 132 410 158 b 553 410 465 261 508 335 b 622 531 578 450 603 488 b 635 560 626 539 631 549 b 636 568 636 563 636 565 b 629 585 636 574 633 579 b 596 600 619 594 608 600 b 572 594 588 600 581 599 b 519 557 553 585 536 571 b 299 351 440 493 368 424 b 279 333 292 346 286 340 b 292 364 282 346 286 354 b 383 521 322 417 353 468 b 413 578 393 539 403 558 b 417 593 414 582 417 588 b 414 603 417 597 415 600 b 378 619 408 613 392 619 b 364 617 374 619 368 619 b 333 593 353 610 343 601 b 226 497 297 561 261 529 b 38 299 160 433 99 365 b 15 279 31 292 25 283 l 15 282 b 21 297 15 289 18 293 b 108 451 49 349 78 401 b 125 483 118 467 125 476 b 92 507 125 493 114 497 b 81 511 88 510 83 511 b 67 503 75 511 71 508 b 54 485 63 497 58 492 b -39 314 18 431 -12 374 b -74 215 -53 282 -67 250 b -76 201 -75 210 -76 206 b -53 176 -76 190 -69 185 b -37 171 -46 174 -42 171 b -17 186 -31 171 -26 176 b -12 192 -15 189 -14 190 b 231 457 65 283 144 374 b 344 553 267 492 303 524 z "},"n":{"ha":447,"x_min":0,"x_max":0,"o":"m 133 69 b 132 82 132 76 132 79 b 138 104 133 90 135 97 b 204 251 153 156 178 204 b 328 444 243 318 286 381 b 390 549 350 478 374 511 b 396 571 394 558 396 565 b 372 597 396 582 389 589 b 360 600 368 600 364 600 b 347 597 356 600 351 600 b 321 583 338 593 329 589 b 92 400 243 525 163 467 b 49 363 78 386 64 375 b 97 444 63 392 79 418 b 107 464 103 454 107 460 b 89 481 107 469 101 472 b 85 483 88 482 86 482 b 64 490 75 488 69 490 b 47 475 58 490 54 486 l -3 396 b -103 222 -37 339 -74 282 b -110 203 -107 214 -110 207 b -90 183 -110 194 -104 190 b -78 179 -85 181 -82 179 b -58 194 -72 179 -68 183 b 113 375 -6 258 51 318 b 328 546 181 436 253 493 b 336 550 329 547 332 550 b 343 549 339 550 340 550 b 315 503 333 533 325 518 b 164 261 264 422 210 344 b 100 101 136 211 113 158 b 97 82 99 96 97 89 l 97 75 b 136 42 100 56 118 42 b 150 44 140 42 146 43 b 214 96 176 54 194 75 b 217 101 215 97 217 100 b 211 110 217 104 214 107 b 199 115 207 114 203 115 b 185 110 194 115 190 114 b 133 69 169 96 156 79 z "},"o":{"ha":407,"x_min":0,"x_max":0,"o":"m 226 550 b 244 564 235 556 239 560 b 250 572 249 567 250 569 b 244 581 250 575 249 578 b 217 594 233 590 225 594 b 192 585 210 594 201 592 b -15 375 107 529 40 458 b -65 278 -35 344 -53 313 b -75 215 -71 257 -75 238 l -75 214 b -1 147 -75 179 -37 147 b 21 153 6 147 14 149 b 82 193 43 164 63 178 b 188 306 122 225 156 265 b 210 318 194 314 200 318 b 218 317 213 318 215 317 b 260 313 232 314 246 313 b 415 368 317 313 367 333 b 439 394 425 375 433 383 b 442 401 440 397 442 400 b 433 411 442 406 438 410 b 428 413 431 413 429 413 b 415 406 422 413 419 410 b 288 336 382 367 338 347 b 247 333 275 333 261 333 b 214 335 236 333 225 333 b 226 358 217 347 222 353 b 288 481 251 397 276 435 b 290 500 289 488 290 494 b 247 546 290 526 271 536 b 226 550 243 549 236 549 z m 178 510 b 147 424 164 482 151 454 b 146 401 146 417 146 408 b 161 349 146 382 150 365 b 165 336 164 344 165 340 b 160 321 165 331 164 326 b 33 197 122 274 82 232 b -4 176 22 189 10 181 b -19 174 -10 175 -15 174 b -33 196 -29 174 -33 181 b -19 257 -33 218 -28 238 b 69 399 4 310 35 356 b 178 510 103 440 139 476 z m 175 389 b 235 513 181 438 197 481 b 246 519 238 515 242 519 b 251 518 249 519 250 519 b 256 507 256 515 256 511 l 256 501 b 244 457 256 486 250 472 b 196 371 232 426 215 399 b 186 363 193 367 192 363 l 183 363 b 178 375 178 364 178 369 b 175 389 176 379 176 385 z "},"p":{"ha":415,"x_min":0,"x_max":0,"o":"m 250 347 b 264 369 251 357 258 363 b 317 474 285 403 306 435 b 319 494 318 481 319 488 b 257 556 319 529 293 556 b 243 554 253 556 247 556 b 169 522 217 550 193 538 b 160 517 167 521 164 518 b 153 513 158 515 156 513 b 150 514 153 513 151 513 b 163 538 158 525 163 532 b 140 557 163 543 156 547 b 133 560 139 557 136 558 b 122 564 129 563 125 564 b 107 554 117 564 111 561 b 74 510 96 539 85 525 b -247 -60 -47 328 -153 138 b -307 -208 -271 -108 -292 -157 b -317 -246 -311 -221 -315 -233 l -317 -251 b -262 -303 -317 -279 -292 -303 l -260 -303 b -269 -271 -267 -293 -269 -282 b -267 -249 -269 -264 -268 -256 b -253 -207 -262 -235 -258 -221 b -112 78 -214 -108 -164 -15 b -68 157 -99 104 -86 132 b -58 151 -64 154 -61 153 b -14 133 -44 139 -29 133 b 33 149 1 133 18 139 b 63 167 43 154 53 160 b 204 296 115 203 163 246 b 256 322 218 313 233 319 b 383 351 299 326 342 335 b 447 394 408 360 429 374 b 451 404 449 397 451 401 b 450 410 451 407 451 408 b 439 415 447 413 443 415 b 431 413 436 415 433 415 b 421 404 426 410 424 407 b 361 368 404 386 383 376 b 282 349 336 358 308 351 b 261 344 275 347 268 344 b 250 347 257 344 254 344 z m 4 279 b 89 424 29 329 57 378 b 185 501 114 458 150 481 b 244 528 204 513 224 522 b 261 531 250 529 256 531 b 279 518 274 531 279 528 b 278 511 279 517 278 514 b 274 493 278 506 276 499 b 176 343 251 436 215 389 b 160 335 172 338 167 335 b 4 279 103 331 51 314 z m -28 168 b 140 306 -22 222 72 300 b -28 168 122 268 7 174 z "},"q":{"ha":393,"x_min":0,"x_max":0,"o":"m 85 247 l 85 244 b 78 224 85 235 81 229 b -35 -19 40 143 3 63 b -68 -54 -42 -35 -51 -47 b -156 -112 -100 -69 -129 -89 b -167 -129 -164 -119 -167 -125 b -151 -144 -167 -135 -162 -139 b -143 -150 -149 -146 -146 -147 b -135 -153 -140 -151 -137 -153 b -125 -146 -132 -153 -128 -150 b -79 -110 -112 -131 -99 -118 l -79 -114 b -85 -132 -79 -121 -82 -126 b -136 -265 -103 -176 -122 -219 b -139 -278 -137 -271 -139 -275 b -111 -304 -139 -292 -129 -297 b -106 -306 -108 -306 -107 -306 b -97 -297 -100 -306 -97 -303 b -99 -293 -97 -296 -99 -294 b -100 -285 -99 -290 -100 -287 b -94 -262 -100 -276 -97 -269 b -14 -79 -69 -200 -42 -140 b 10 -57 -8 -68 -1 -61 b 97 -26 38 -44 67 -33 b 121 -24 104 -25 113 -24 b 138 -42 135 -24 138 -28 b 129 -75 138 -53 132 -64 l 129 -79 b 146 -96 129 -89 139 -92 b 151 -97 147 -97 150 -97 b 163 -86 157 -97 160 -92 b 172 -53 165 -75 169 -64 b 174 -44 172 -50 174 -47 b 163 -22 174 -36 169 -28 b 104 3 146 -8 126 3 b 93 1 100 3 97 1 b 39 -10 75 -1 57 -4 b 28 -14 35 -11 32 -14 b 21 -11 25 -14 24 -12 l 21 -8 b 24 0 21 -6 22 -3 b 124 197 56 67 88 133 b 315 517 183 306 244 414 b 321 528 318 521 321 525 b 310 539 321 532 317 535 b 251 574 290 551 271 561 b 213 586 239 583 225 586 b 174 576 200 586 188 583 b 101 522 146 563 124 543 b -76 269 28 449 -29 363 b -99 200 -87 247 -94 224 l -99 192 b -78 154 -99 176 -92 164 b -44 142 -64 146 -54 142 b -11 156 -35 142 -24 146 b 56 215 14 172 36 193 b 85 247 65 225 74 235 z m -44 178 l -49 178 b -50 186 -50 181 -50 183 b -40 213 -50 194 -44 204 b 15 314 -25 247 -6 281 b 163 500 57 382 104 446 b 224 546 181 518 200 533 b 236 551 228 547 232 551 b 242 549 239 551 240 551 b 253 525 246 542 253 535 b 251 519 253 524 253 522 b 246 511 250 517 249 514 b 17 222 181 407 104 310 b -26 186 3 210 -11 197 b -44 178 -32 182 -37 178 z "},"r":{"ha":421,"x_min":0,"x_max":0,"o":"m 75 446 b 82 464 75 456 79 460 b 119 513 94 481 107 496 b 142 558 129 526 138 542 b 144 571 143 563 144 567 b 136 589 144 578 142 583 b 100 606 124 600 111 606 b 71 596 90 606 81 603 b -26 447 18 560 -15 511 b -28 436 -28 443 -28 440 b -17 411 -28 428 -25 418 b 31 389 -3 397 13 389 b 56 394 39 389 47 390 b 108 424 75 403 92 414 b 288 536 168 463 226 501 b 313 549 296 542 303 547 b 301 529 313 539 306 535 b 186 372 263 478 221 428 b 78 147 142 301 103 228 b 68 88 72 128 68 107 l 68 78 b 107 42 69 56 88 42 b 129 49 114 42 122 44 b 158 74 139 56 150 64 b 243 161 188 103 214 132 b 443 367 311 229 374 300 b 450 378 446 369 450 374 b 449 382 450 379 450 381 b 435 389 444 386 440 389 b 428 388 433 389 431 389 b 408 372 421 383 414 378 b 293 254 369 333 331 294 b 124 83 238 197 181 140 b 103 71 118 78 113 71 b 101 78 101 74 101 75 b 103 86 101 81 101 83 b 129 171 107 115 117 143 b 263 406 163 256 210 332 b 365 540 296 451 331 496 b 381 565 371 549 376 557 b 383 575 382 568 383 572 b 374 590 383 581 381 586 b 344 601 364 597 354 601 b 324 596 338 601 331 600 b 296 582 315 592 306 586 b 115 471 233 549 175 510 b 75 446 103 463 90 456 z m 17 418 l 17 424 b 103 565 17 469 61 543 l 103 563 b 17 418 103 532 56 451 z "},"s":{"ha":443,"x_min":0,"x_max":0,"o":"m 253 357 b 246 378 249 367 246 372 b 254 397 246 382 249 388 b 272 429 260 408 267 418 b 349 518 296 461 322 489 b 378 538 357 526 364 535 b 389 560 385 538 389 550 b 386 569 389 564 389 568 b 361 583 379 575 369 583 l 357 583 b 346 582 353 582 350 582 b 313 589 335 582 324 586 b 286 592 304 590 296 592 b 271 590 282 592 276 592 b 100 531 210 582 153 561 b 33 482 76 517 53 501 b -1 413 10 458 -1 436 b 18 356 -1 394 6 376 b 60 293 31 333 46 314 b 90 226 74 272 86 251 b 92 210 92 219 92 214 b 63 179 92 193 85 188 b 33 168 53 175 43 171 b -35 136 10 158 -14 149 b -75 93 -53 126 -68 113 b -78 79 -76 88 -78 83 b -69 61 -78 72 -75 67 b -12 35 -54 46 -35 35 b 1 36 -8 35 -4 35 b 139 160 69 51 117 93 b 174 201 146 181 156 192 b 415 342 257 243 339 288 b 476 393 438 357 458 374 b 482 406 479 397 482 401 b 479 413 482 408 482 410 b 469 417 476 415 474 417 b 456 410 465 417 461 414 b 433 389 449 403 442 396 b 160 222 350 321 254 272 b 147 218 154 219 150 218 b 135 231 142 218 139 222 b 93 301 124 257 108 279 b 64 350 82 317 71 332 b 57 382 60 361 57 371 b 75 429 57 399 63 415 b 106 458 85 440 94 450 b 289 549 161 500 222 531 b 300 550 293 550 296 550 b 311 546 303 550 307 550 b 297 528 308 538 301 533 b 233 444 274 501 251 474 b 211 399 224 429 217 415 b 208 385 210 393 208 389 b 215 369 208 379 210 374 b 242 354 222 363 231 354 b 253 357 246 354 249 356 z m 74 151 b -19 64 53 111 24 79 b -31 61 -22 63 -26 61 b -40 65 -33 61 -37 63 b -43 74 -43 68 -43 71 b -39 88 -43 79 -42 83 b -15 114 -33 99 -25 108 b 74 151 13 132 42 143 z "},"t":{"ha":210,"x_min":0,"x_max":0,"o":"m 419 1007 l 404 1007 b 351 944 386 986 368 965 b 168 696 285 865 224 782 b 138 678 160 685 151 678 l 106 678 b 18 672 76 678 47 676 b -42 663 -3 669 -22 665 b -50 656 -46 661 -50 658 b -47 650 -50 654 -50 651 b -10 632 -37 642 -25 632 l -4 632 b 69 644 21 636 44 640 b 101 646 81 646 92 646 l 104 646 b 124 649 110 646 117 649 b 132 647 126 649 129 649 b 121 624 131 636 125 631 b 13 424 81 558 44 492 b -57 185 -24 347 -51 269 l -57 169 b -51 124 -57 154 -56 139 b -6 85 -44 99 -25 85 b 35 103 8 85 22 90 b 57 131 43 111 50 121 b 63 142 61 135 63 138 b 56 153 63 146 61 150 b 42 158 50 157 46 158 b 28 151 36 158 33 157 b 3 122 19 143 13 132 b -8 114 0 118 -3 114 l -11 114 b -17 125 -17 115 -17 119 l -17 131 b -18 142 -18 135 -18 138 b 10 289 -18 193 -7 242 b 106 489 36 358 69 425 b 193 632 133 538 163 585 b 226 651 201 644 211 651 l 282 651 b 336 650 300 651 318 651 b 397 628 358 649 382 650 b 410 621 399 625 404 622 b 415 619 411 619 414 619 b 421 621 417 619 419 619 b 424 628 424 624 424 625 b 422 635 424 629 424 632 b 411 647 419 640 415 643 b 363 668 396 656 381 665 b 258 678 328 675 293 678 l 244 678 b 231 679 239 678 235 678 l 231 682 b 236 696 231 689 233 692 b 385 892 283 764 332 829 b 449 968 406 918 428 943 b 454 979 453 972 454 976 b 446 990 454 983 451 986 b 419 1007 436 994 428 1001 z "},"u":{"ha":415,"x_min":0,"x_max":0,"o":"m 181 336 b 183 335 182 336 182 335 b 167 282 178 317 171 300 b 160 233 163 265 160 250 b 161 210 160 225 160 218 b 208 167 167 183 186 167 b 239 176 218 167 229 169 b 261 194 247 182 254 189 b 433 381 324 253 383 313 b 444 396 438 386 440 390 b 447 403 446 399 447 400 b 442 411 447 406 444 408 b 433 414 439 413 436 414 b 426 411 431 414 429 414 l 418 403 b 342 311 394 371 368 342 b 221 199 304 271 264 233 b 206 190 217 196 211 190 b 201 192 204 190 203 190 b 194 207 196 194 194 201 l 194 213 b 196 225 194 217 196 221 b 240 343 201 268 221 306 b 347 506 271 400 307 454 b 358 526 354 515 358 521 b 338 544 358 533 351 538 b 328 546 335 546 331 546 b 308 533 319 546 314 540 b 249 457 289 508 271 481 b 51 249 186 385 121 315 b -17 190 31 228 8 207 b -42 178 -25 185 -32 178 b -44 186 -43 181 -44 183 b -40 200 -44 192 -42 196 b -10 268 -33 224 -21 246 b 118 464 29 335 72 400 b 188 560 140 496 164 528 b 194 572 190 564 194 568 b 192 579 194 575 194 576 b 156 599 182 589 169 597 l 153 599 b 132 582 143 599 138 589 b 74 504 111 556 92 531 b -65 278 21 432 -28 358 b -89 204 -76 254 -85 231 l -89 197 b -75 164 -89 185 -86 174 b -37 146 -62 153 -50 146 b -6 158 -28 146 -17 150 b 22 178 4 164 14 171 b 89 242 46 197 68 219 b 181 336 119 274 150 304 z "},"v":{"ha":354,"x_min":0,"x_max":0,"o":"m -1 557 b 17 501 14 539 17 521 b 4 413 17 471 10 442 b -35 253 -8 360 -25 307 b -39 215 -37 240 -39 228 b -37 194 -39 208 -37 201 b 1 154 -35 171 -17 163 b 13 151 6 151 10 151 b 40 167 24 151 32 158 b 76 206 53 179 64 192 b 203 379 121 261 160 321 b 353 553 247 440 296 500 b 432 614 378 575 403 597 b 446 619 438 617 442 619 b 460 613 451 619 456 617 b 474 603 463 608 468 603 b 481 607 475 603 478 604 b 482 613 482 608 482 611 b 474 629 482 618 478 624 b 467 635 472 632 469 633 b 436 646 457 642 446 646 b 406 636 426 646 415 642 b 279 533 357 608 317 572 b 153 374 232 483 192 429 b 35 215 114 319 78 265 b 7 190 28 206 19 196 l 7 196 b 17 243 7 213 13 228 l 50 360 b 68 469 60 396 68 433 b 67 492 68 478 67 485 b -1 557 65 528 42 551 z "},"w":{"ha":625,"x_min":0,"x_max":0,"o":"m 267 442 l 267 436 b 263 415 267 428 264 421 b 218 222 244 351 228 288 b 214 181 215 208 214 194 b 215 156 214 172 215 164 b 253 107 218 132 232 117 b 269 103 258 104 264 103 b 304 118 282 103 293 110 b 349 163 321 131 336 146 b 510 433 415 246 465 338 b 546 567 529 476 542 521 b 547 592 547 575 547 583 b 539 646 547 610 544 628 b 482 689 529 674 507 689 b 442 674 469 689 454 683 b 408 635 429 663 418 650 b 406 625 407 632 406 628 b 411 617 406 622 407 619 b 425 611 417 614 421 611 b 435 615 428 611 432 613 b 447 631 439 621 443 626 b 476 658 456 642 465 651 b 494 665 485 664 489 665 b 508 647 500 665 504 660 b 513 618 511 638 511 628 l 513 606 b 494 501 513 569 507 535 b 332 196 456 392 403 289 b 276 139 315 175 297 156 b 263 132 271 135 265 132 b 253 149 257 132 254 138 l 253 157 b 260 210 253 175 256 192 b 332 468 276 297 300 385 b 349 511 338 483 343 497 b 351 522 350 515 351 519 b 349 531 351 525 351 528 b 318 549 342 540 331 546 b 314 550 317 550 315 550 b 297 536 307 550 301 542 b 129 343 242 472 186 407 b -12 200 85 293 40 243 b -33 188 -18 196 -22 188 b -12 250 -29 210 -21 231 b 71 401 13 303 42 353 b 149 525 94 443 119 486 b 154 536 151 529 154 532 b 151 544 154 539 154 542 b 122 560 142 556 132 560 b 92 542 111 560 101 554 b 78 522 86 536 82 529 b -25 351 40 467 7 410 b -69 249 -43 318 -58 285 b -78 204 -74 233 -78 219 b -76 192 -78 200 -76 196 b -31 153 -74 169 -53 153 b -12 157 -25 153 -18 154 b 24 185 1 164 13 175 b 193 363 83 242 139 301 b 267 442 217 389 240 414 z "},"x":{"ha":343,"x_min":0,"x_max":0,"o":"m 29 271 b 44 233 35 256 39 244 b 69 186 50 217 58 200 b 108 154 79 171 92 161 b 121 151 113 153 117 151 b 136 160 126 151 132 154 b 151 203 147 172 150 188 l 151 204 b 136 219 151 213 144 217 l 135 219 b 122 208 128 219 125 214 b 117 193 121 203 119 197 b 106 178 115 186 114 179 l 104 178 b 93 190 99 178 96 185 b 81 214 89 197 85 206 b 60 279 72 235 67 257 b 58 290 58 283 58 286 b 71 317 58 300 63 308 b 268 513 136 383 201 449 b 335 572 290 533 313 551 b 343 583 340 576 343 581 b 335 594 343 588 340 590 b 304 610 321 604 313 610 b 274 592 296 610 288 603 b 267 585 271 589 268 588 b 60 383 196 519 126 453 b 46 372 56 379 53 372 l 44 372 b 40 383 40 375 42 379 b 26 518 35 428 29 474 b 3 554 25 536 18 547 b -10 560 -1 556 -6 560 b -14 558 -11 560 -12 560 b -18 550 -17 556 -18 553 b -17 542 -18 547 -17 544 b 8 364 -10 482 -6 422 b 11 347 10 358 11 353 b -7 310 11 333 6 322 b -114 188 -44 271 -79 229 b -175 103 -136 160 -158 133 b -179 85 -178 97 -179 90 b -147 56 -179 69 -168 57 l -144 56 b -139 61 -142 56 -140 58 b -117 104 -137 79 -126 90 b -39 197 -93 136 -67 167 b 29 271 -18 221 3 246 z "},"y":{"ha":404,"x_min":0,"x_max":0,"o":"m -33 178 b -10 244 -29 206 -19 225 b 143 538 39 343 90 440 b 156 565 151 551 156 560 b 131 588 156 572 147 578 b 111 594 122 592 117 594 b 94 576 106 594 101 589 b -37 319 49 492 3 407 b -74 214 -53 285 -67 251 b -76 188 -76 206 -76 196 b -33 150 -74 164 -54 150 b -10 157 -25 150 -17 151 b 24 185 3 164 13 174 b 160 343 72 233 115 289 l 185 376 b 174 343 185 364 179 353 b 0 35 118 239 60 136 b -187 -268 -61 -68 -122 -168 b -194 -282 -190 -272 -194 -276 l -194 -285 b -171 -304 -190 -296 -179 -299 b -164 -306 -168 -306 -167 -306 b -151 -299 -158 -306 -154 -303 b -125 -262 -142 -286 -133 -275 b 38 -3 -68 -178 -15 -90 b 292 460 129 147 215 300 b 321 528 303 482 314 504 b 324 543 322 533 324 538 b 319 554 324 546 322 550 b 293 568 310 564 301 568 b 268 550 285 568 276 563 b 247 518 261 540 254 529 b 60 264 190 429 129 343 b -33 178 32 233 6 204 z "},"z":{"ha":399,"x_min":0,"x_max":0,"o":"m -43 278 b -17 232 -25 265 -21 249 b 3 188 -14 215 -7 200 b 90 133 29 153 58 133 b 176 182 118 133 147 149 b 181 190 179 185 181 188 b 172 201 181 194 178 199 b 161 206 168 204 164 206 b 146 197 156 206 151 203 b 94 158 131 182 115 167 b 72 154 86 156 79 154 b 36 178 58 154 47 161 b 10 250 21 200 17 225 b 8 256 10 251 8 253 b 17 265 8 260 13 263 b 69 304 35 279 53 290 b 115 322 83 317 97 322 l 136 322 b 217 332 164 322 192 325 b 264 357 235 338 250 344 b 269 367 267 360 269 364 b 268 371 269 368 268 369 b 256 376 265 374 260 376 l 253 376 b 240 369 249 376 244 374 b 182 347 224 357 203 350 b 136 342 168 346 153 342 b 119 343 131 342 125 342 b 142 367 126 354 135 360 b 272 508 188 413 235 457 b 299 554 283 522 293 538 b 300 568 300 558 300 564 b 293 583 300 574 299 579 b 229 611 275 599 254 611 b 214 610 225 611 219 611 b 56 532 154 596 103 569 b -8 460 31 511 7 489 b -15 438 -12 451 -15 444 b 31 401 -15 418 1 403 b 22 421 25 408 22 415 b 36 450 22 431 29 440 b 46 461 39 453 42 457 b 219 572 94 513 153 550 b 242 578 226 575 233 578 b 250 576 244 578 247 576 b 222 528 244 557 233 542 b 74 371 176 471 126 419 b 56 354 68 365 61 360 b 44 350 51 351 49 350 b 33 357 42 350 38 353 b 22 369 31 361 28 367 b 13 374 19 371 15 374 b 7 369 11 374 8 372 b 6 365 6 368 6 367 b 10 357 6 363 8 358 b 24 346 14 353 18 350 b 32 336 29 342 32 339 b 24 326 32 333 29 332 b -43 278 4 308 -17 293 z "},"{":{"ha":819,"x_min":0,"x_max":0,"o":"m 168 533 b 163 528 165 529 164 528 b 10 358 83 497 38 436 b 3 321 6 346 3 333 b 14 272 3 304 7 289 b 142 161 38 215 83 181 b 167 157 150 158 158 157 b 218 174 185 157 203 163 b 225 182 222 176 225 179 b 218 190 225 185 222 188 b 194 199 210 196 203 199 b 178 194 189 199 183 197 b 138 183 165 188 151 183 b 106 193 126 183 115 186 b 56 281 76 215 56 244 b 57 296 56 285 56 290 b 200 493 72 383 119 451 b 221 508 208 497 219 497 b 201 529 221 519 210 524 b 188 538 197 532 192 535 b 163 557 179 543 169 546 l 221 557 b 258 593 246 558 256 568 l 258 694 b 472 893 264 814 363 893 l 475 893 b 515 871 492 892 508 890 b 519 865 515 869 518 867 b 531 861 524 864 526 861 b 536 864 532 861 535 863 b 540 874 539 867 540 871 b 538 882 540 876 539 879 b 519 897 533 889 526 893 b 410 928 482 918 446 928 b 286 890 368 928 326 915 b 197 728 225 851 197 796 b 199 704 197 721 197 713 b 211 622 201 678 207 650 b 213 606 213 617 213 611 b 172 579 213 585 203 579 b 129 583 158 579 143 581 b 118 576 124 583 119 582 l 118 574 b 122 565 118 571 119 568 b 138 554 126 561 132 557 b 168 533 147 547 157 540 z "},"|":{"ha":889,"x_min":0,"x_max":0,"o":"m 611 979 b 606 990 611 985 608 988 b 585 1003 599 994 590 997 b 574 1006 581 1004 576 1006 b 560 996 568 1006 564 1003 b 518 936 546 976 532 957 b 411 774 482 882 446 829 b 183 403 335 650 258 526 b 10 113 124 307 65 211 b 3 99 6 106 3 101 b 14 88 3 94 7 92 b 33 79 22 82 28 79 b 47 88 39 79 43 82 b 71 125 56 100 63 113 b 454 736 196 331 325 533 b 600 958 503 811 551 885 b 611 979 604 965 610 971 z "},"}":{"ha":819,"x_min":0,"x_max":0,"o":"m 372 551 b 379 557 376 554 378 556 b 532 726 458 588 504 649 b 538 763 536 739 538 750 b 528 811 538 779 535 794 b 400 924 504 869 458 904 b 375 928 392 926 383 928 b 324 911 357 928 340 922 b 318 903 319 908 318 906 b 324 894 318 901 319 899 b 347 886 332 889 339 886 b 364 890 353 886 358 888 b 404 901 376 896 390 901 b 436 890 415 901 426 897 b 485 807 465 869 485 840 b 483 789 485 800 485 794 b 342 592 468 700 422 633 b 321 576 333 588 322 586 b 340 556 321 565 332 561 b 354 547 344 553 350 550 b 379 528 363 542 372 538 l 321 528 b 283 492 296 526 286 517 l 283 390 b 69 192 278 271 178 192 l 67 192 b 26 214 50 192 33 193 b 22 218 26 215 24 217 b 11 224 19 221 15 224 b 4 219 10 224 7 222 b 1 211 3 218 1 215 b 4 201 1 208 3 206 b 22 188 8 194 15 190 b 133 157 60 167 97 157 b 256 194 175 157 215 169 b 343 354 317 232 343 288 b 342 379 343 363 343 371 b 331 461 340 407 335 435 b 329 479 329 468 329 474 b 368 504 329 500 339 504 b 413 501 383 504 397 503 l 415 501 b 424 508 418 501 422 504 l 424 511 b 419 518 424 514 422 515 b 404 531 415 522 410 526 b 372 551 394 538 385 544 z "},"~":{"ha":497,"x_min":0,"x_max":0,"o":"m 83 376 l 79 376 b 57 371 71 376 64 374 b 13 326 39 360 24 344 b 6 307 8 318 6 313 b 25 285 6 297 11 292 b 35 282 29 283 32 282 b 47 292 40 282 43 285 b 89 339 58 310 72 325 b 100 343 93 342 97 343 b 111 335 104 343 108 340 b 118 325 113 332 115 328 b 158 303 129 310 144 303 b 196 318 171 303 183 307 b 208 329 200 321 204 325 b 215 340 211 333 215 336 b 211 349 215 343 214 346 b 199 354 207 353 204 354 b 188 349 196 354 192 353 l 172 333 b 154 325 164 328 158 325 b 136 342 147 325 143 331 b 83 376 124 363 103 369 z "},"¡":{"ha":776,"x_min":0,"x_max":0,"o":"m 408 197 l 408 201 b 386 225 408 217 396 219 b 374 229 381 228 376 229 b 365 217 369 229 368 226 b 339 160 358 197 350 178 b 22 -325 243 -8 138 -169 b 7 -353 13 -339 7 -347 b 35 -375 7 -361 15 -365 b 47 -378 39 -378 43 -378 b 63 -369 53 -378 58 -375 b 99 -324 75 -354 88 -340 b 282 -43 163 -232 224 -137 b 392 151 321 21 360 85 b 408 197 399 167 406 182 z m 394 304 b 421 271 396 288 403 281 b 431 268 425 269 428 268 b 450 281 439 268 444 275 b 490 335 467 297 481 315 b 496 354 493 342 496 349 b 485 372 496 361 492 367 b 461 382 476 379 468 382 b 442 374 456 382 449 379 b 404 333 426 363 414 349 b 394 304 399 324 396 314 z "},"¢":{"ha":793,"x_min":0,"x_max":0,"o":"m 376 413 b 382 407 381 413 382 410 b 394 394 383 401 386 394 b 406 406 400 394 403 400 b 422 440 414 417 419 428 b 447 481 425 457 435 469 b 469 503 456 488 463 496 b 508 540 482 515 496 528 b 513 550 510 543 513 547 b 511 556 513 553 513 554 b 482 571 506 565 493 571 b 461 564 475 571 467 569 b 410 518 444 549 426 533 b 396 511 406 514 400 511 b 388 514 393 511 390 511 b 340 528 371 524 356 528 b 282 513 321 528 301 522 b 117 354 210 479 154 425 b 106 328 113 346 108 338 b 99 290 101 315 99 303 b 110 246 99 275 103 260 b 114 233 113 240 114 238 b 106 218 114 228 111 224 b 21 135 76 190 49 163 b 7 113 13 126 7 118 b 31 94 7 106 15 99 l 36 94 b 54 104 44 94 50 100 b 133 181 81 129 107 156 b 154 194 144 190 149 194 b 174 186 158 194 164 192 b 247 164 197 171 222 164 b 304 175 267 164 285 168 b 424 267 353 194 389 229 b 428 275 425 268 428 271 b 426 279 428 276 428 278 b 400 292 421 288 410 292 b 381 285 393 292 386 290 b 368 274 376 282 372 278 b 274 207 340 246 310 222 b 215 194 254 200 235 194 b 197 196 210 194 203 194 b 172 208 188 197 176 199 l 172 211 b 186 231 172 221 181 225 b 368 406 247 289 307 347 b 376 413 371 408 374 411 z m 378 492 b 153 271 369 479 172 282 b 367 493 158 358 304 493 b 378 492 371 493 375 493 z "},"£":{"ha":924,"x_min":0,"x_max":0,"o":"m 533 706 b 492 724 519 718 507 724 l 483 724 b 358 708 442 717 400 714 l 351 708 b 338 721 340 708 338 711 l 338 726 b 376 822 340 763 351 796 b 525 899 417 864 469 885 b 565 904 539 903 551 904 l 578 904 b 601 882 594 903 601 897 l 601 878 b 600 861 601 872 600 867 b 611 847 600 854 604 849 b 615 846 613 847 614 846 b 625 854 619 846 622 850 b 633 878 631 863 633 869 b 619 903 633 888 629 896 b 550 932 599 919 576 931 l 538 932 b 346 867 468 932 404 908 b 290 778 317 844 299 814 b 286 735 288 764 286 749 b 256 703 286 704 286 704 l 246 703 b 232 696 240 701 233 703 l 232 694 b 243 683 232 689 238 688 b 274 672 253 678 263 672 b 292 653 286 671 290 664 b 293 615 292 640 292 628 b 296 571 294 600 296 585 b 172 310 296 467 250 383 b 143 300 164 301 154 300 l 135 300 b 117 301 129 301 122 301 b 17 260 78 301 46 286 b 3 238 11 253 6 246 b 1 228 1 235 1 232 b 7 217 1 224 3 219 b 61 190 22 204 39 190 b 76 193 65 190 71 192 b 178 243 114 201 147 221 b 203 257 190 253 197 257 b 226 243 208 257 215 253 b 343 169 261 214 300 189 b 458 144 379 153 417 144 b 640 249 539 146 594 189 b 644 257 643 251 644 254 l 644 260 b 621 274 642 268 631 274 b 608 268 617 274 611 271 b 568 225 596 253 582 239 b 428 168 525 188 479 168 b 358 179 406 168 382 172 b 215 268 301 196 261 238 b 229 286 217 278 225 281 b 344 497 290 344 333 413 b 347 540 347 511 347 526 b 340 638 347 574 343 606 b 338 663 339 649 338 656 b 375 681 338 674 344 676 b 486 692 413 683 450 686 b 533 706 501 693 517 693 z m 125 272 b 54 229 104 254 82 239 b 125 272 67 253 88 267 z "},"¤":{"ha":904,"x_min":0,"x_max":0,"o":"m 543 149 b 528 171 542 163 533 165 l 457 238 b 442 257 446 247 442 251 b 450 276 442 261 444 267 b 488 404 469 317 488 358 l 488 410 b 507 435 488 425 496 431 b 604 479 539 450 571 465 b 619 486 610 482 614 483 b 625 493 622 489 625 490 b 621 500 625 496 624 497 b 585 517 610 511 599 517 b 563 511 578 517 571 515 b 482 469 535 499 508 486 b 453 460 472 464 463 460 b 426 469 444 460 436 463 b 357 492 406 483 383 492 l 346 492 b 257 461 315 488 285 478 b 231 449 244 453 238 449 b 206 467 224 449 218 454 b 133 515 183 486 160 501 b 122 521 129 518 126 521 b 115 518 121 521 118 519 b 132 499 117 508 125 503 b 190 450 151 482 171 465 b 211 431 206 439 211 435 b 194 407 211 425 206 421 b 140 271 163 367 140 324 b 124 246 140 257 133 251 b 24 186 90 226 57 207 b 3 168 15 182 3 178 l 3 165 b 32 146 6 154 21 150 b 38 144 33 144 36 144 b 57 156 44 144 51 151 b 135 207 83 172 108 189 b 146 211 139 210 142 211 b 157 203 150 211 153 208 b 222 150 172 176 197 161 b 265 139 236 143 251 139 b 276 140 269 139 272 140 b 371 182 313 144 343 160 b 415 224 388 194 401 208 b 426 233 421 231 424 233 b 438 225 429 233 432 231 b 490 178 456 208 471 192 b 543 149 506 165 521 154 z m 186 229 l 186 240 b 260 389 189 301 217 349 b 375 451 292 419 331 443 l 400 456 l 404 456 b 435 436 418 456 428 450 b 446 419 436 429 440 424 b 457 401 454 415 457 408 b 454 388 457 397 456 392 b 354 208 438 319 408 257 b 269 165 329 188 301 171 b 246 163 261 164 253 163 b 186 229 206 163 190 190 z "},"¥":{"ha":874,"x_min":0,"x_max":0,"o":"m 376 688 l 381 683 l 381 679 b 233 424 329 594 281 510 b 207 410 226 414 219 410 b 100 389 171 406 135 400 b 86 381 94 388 88 386 l 86 379 b 99 367 86 372 93 369 b 117 361 104 364 110 361 l 121 361 b 147 367 131 363 139 365 b 194 374 163 368 178 374 l 203 374 b 199 363 201 368 200 365 b 160 331 192 344 182 331 l 157 331 b 117 322 143 331 129 325 b 107 315 113 321 108 319 b 114 306 107 310 111 308 b 149 294 125 299 135 294 b 158 288 156 294 158 292 b 157 282 158 286 158 285 b 150 267 154 276 151 271 b 114 181 138 238 122 211 b 113 165 113 175 113 171 b 146 129 113 146 124 133 b 151 128 147 129 150 128 b 160 135 156 128 160 131 b 157 142 160 136 158 139 b 154 153 156 146 154 150 b 158 169 154 158 156 164 b 219 296 175 213 197 254 b 235 308 222 303 228 308 b 286 314 253 311 269 313 b 314 315 296 315 304 315 b 342 314 322 315 332 315 b 289 342 328 331 310 340 l 257 342 b 249 349 253 342 249 343 b 279 386 249 360 269 386 b 325 389 294 386 310 389 b 365 379 339 389 351 386 b 372 376 368 378 369 376 b 376 379 374 376 375 378 b 378 383 378 381 378 382 b 372 392 378 386 375 389 b 315 414 356 404 338 414 l 303 414 b 290 417 299 414 294 415 l 290 421 b 297 436 290 428 293 432 b 544 843 375 574 458 710 b 586 908 558 865 572 888 b 593 922 589 913 593 918 b 592 926 593 924 593 925 b 561 946 585 938 572 942 l 558 946 b 544 935 551 946 549 939 b 464 838 518 903 490 871 b 201 564 383 740 297 649 b 85 478 165 532 128 501 b 58 464 76 472 68 464 b 50 468 56 464 53 465 b 44 482 46 472 44 476 b 49 504 44 489 47 497 b 108 653 60 558 85 606 b 239 872 147 729 193 800 b 250 900 246 886 250 894 b 224 924 250 910 242 915 b 217 926 221 925 219 925 b 211 928 215 928 213 928 b 201 922 207 928 204 926 b 190 907 197 918 194 913 b 79 725 150 847 113 788 b 14 578 54 678 31 629 b 1 507 7 554 1 531 l 1 499 b 18 458 1 483 6 468 b 67 436 39 443 53 436 b 106 449 78 436 90 440 b 178 499 132 461 154 479 b 360 667 242 550 301 607 b 376 688 365 672 371 681 z "},"¦":{"ha":886,"x_min":0,"x_max":0,"o":"m 239 499 l 224 474 b 181 403 208 450 194 426 b 165 381 176 396 171 388 b 7 113 111 293 58 203 b 1 99 3 107 1 101 l 1 96 b 11 88 1 94 4 92 b 31 79 19 82 26 79 b 44 88 35 79 40 82 b 65 122 51 99 58 110 l 68 125 b 301 499 144 250 222 375 z m 331 546 b 451 736 371 610 411 674 b 547 883 483 785 515 835 l 597 958 b 600 963 599 960 599 961 b 608 979 604 968 607 974 b 603 990 608 983 607 988 l 592 996 b 582 1003 588 997 585 1000 b 572 1006 578 1004 575 1006 b 557 996 567 1006 561 1003 b 536 967 550 986 543 976 b 515 936 529 957 522 946 b 486 893 506 921 496 907 l 408 774 b 268 546 361 697 314 622 z "},"§":{"ha":783,"x_min":0,"x_max":0,"o":"m 371 488 b 361 513 364 497 361 506 b 372 544 361 525 367 535 b 393 576 379 556 386 567 b 476 678 419 613 447 647 b 499 704 485 686 492 696 b 504 713 501 706 504 710 b 503 717 504 714 504 715 b 476 731 500 725 488 731 b 465 728 472 731 468 731 b 453 721 461 724 457 721 b 438 726 449 721 443 724 b 400 736 426 733 413 736 b 386 735 396 736 390 736 b 224 681 328 726 275 707 b 161 638 201 669 179 657 b 140 590 147 624 140 607 b 147 560 140 581 143 569 b 171 518 154 544 163 531 b 240 400 196 479 221 442 b 257 340 249 381 257 360 b 238 292 257 324 251 307 b 236 286 236 290 236 288 b 238 281 236 283 236 282 b 263 267 244 271 253 267 b 286 279 271 267 279 271 b 300 322 296 293 300 307 b 294 354 300 332 297 343 b 264 425 289 379 278 403 b 206 525 244 458 224 492 b 192 567 197 540 192 554 b 225 621 192 585 203 601 b 243 633 231 625 238 629 b 383 699 288 661 335 682 b 422 707 396 703 410 704 b 428 708 424 707 426 708 b 435 704 431 708 433 707 l 435 701 b 432 693 435 697 433 694 b 410 667 425 683 417 675 b 332 550 381 629 350 593 b 326 526 328 542 326 533 b 371 488 326 507 340 496 z m 72 72 b 140 96 97 75 119 82 b 219 244 192 131 219 185 b 213 297 219 261 218 279 b 207 315 210 303 207 310 l 207 318 b 210 326 208 321 210 325 b 197 342 210 333 204 338 b 185 358 192 346 189 353 b 150 410 174 375 163 392 b 119 458 140 425 128 440 b 114 476 115 465 114 472 b 140 492 114 488 122 492 b 150 497 144 493 147 493 l 150 500 b 147 508 150 504 149 507 b 108 526 135 518 124 526 l 106 526 b 69 492 83 526 69 511 b 74 474 69 486 71 481 b 108 419 83 454 96 436 b 150 353 124 397 138 376 b 156 339 153 346 156 342 b 142 326 156 333 151 332 b 64 263 113 310 86 288 b 1 138 32 226 8 186 l 1 126 b 10 101 1 118 3 108 b 72 72 28 85 49 74 z m 168 303 b 174 258 172 288 174 272 b 136 154 174 219 160 186 b 63 101 117 129 93 111 b 51 100 58 100 54 100 b 39 118 42 100 39 104 b 43 150 39 129 40 139 b 157 299 63 214 103 261 b 168 303 160 300 163 300 z "},"¨":{"ha":489,"x_min":0,"x_max":0,"o":"m 0 1099 b 29 1063 0 1075 17 1071 b 40 1060 33 1060 36 1060 b 54 1065 44 1060 50 1061 b 89 1114 69 1079 82 1094 b 93 1128 92 1119 93 1124 b 79 1149 93 1136 89 1142 b 56 1161 72 1154 64 1157 b 46 1163 53 1163 50 1163 b 35 1158 42 1163 38 1161 b 0 1099 14 1142 4 1119 z m 115 1099 b 144 1063 115 1075 132 1071 b 156 1060 149 1060 151 1060 b 169 1065 160 1060 165 1061 b 204 1114 185 1079 197 1094 b 208 1128 207 1119 208 1124 b 194 1149 208 1136 204 1142 b 171 1161 188 1154 179 1157 b 161 1163 168 1163 165 1163 b 150 1158 157 1163 153 1161 b 115 1099 129 1142 119 1119 z "},"©":{"ha":719,"x_min":0,"x_max":0,"o":"m 283 540 l 264 540 b 165 513 228 540 196 529 b 7 303 82 465 25 399 b 4 267 6 290 4 279 b 32 185 4 238 11 208 b 164 118 67 143 111 118 b 200 122 175 118 188 119 b 331 190 250 132 293 157 b 433 368 383 238 421 296 b 436 400 435 379 436 389 b 390 497 436 438 424 471 b 283 540 358 522 324 540 z m 142 146 l 138 146 b 56 221 86 146 61 169 b 54 242 56 228 54 235 b 71 324 54 269 60 297 b 242 494 107 403 163 460 b 329 510 269 507 300 510 b 378 481 351 508 367 499 b 400 407 393 458 400 433 b 397 379 400 399 399 389 b 179 149 379 271 286 172 b 142 146 165 146 153 146 z m 256 399 l 258 396 b 247 375 256 389 251 382 b 242 358 244 369 242 364 b 258 342 243 349 250 344 b 263 340 260 342 261 340 b 268 344 265 340 267 342 b 317 414 279 371 299 392 b 319 419 318 415 319 418 b 315 426 319 422 318 424 b 268 444 304 439 286 444 b 235 436 256 444 244 442 b 164 358 206 417 182 390 b 133 282 150 335 138 310 l 133 275 b 169 219 133 250 146 231 b 193 213 178 215 186 213 b 228 231 204 213 215 218 l 242 244 b 249 257 246 249 249 253 b 244 264 249 258 247 261 b 232 271 240 268 236 271 b 221 265 228 271 225 269 b 203 249 215 260 210 254 b 181 236 196 244 189 236 b 175 238 179 236 178 236 b 168 250 169 240 168 246 b 172 269 168 257 171 264 b 256 399 188 321 219 361 z "},"ª":{"ha":569,"x_min":0,"x_max":0,"o":"m 147 719 b 150 718 149 719 150 718 b 144 685 149 707 146 696 l 144 682 b 161 657 144 671 151 664 b 175 653 165 654 171 653 b 190 658 181 653 185 654 b 210 675 197 664 204 669 b 215 685 213 678 215 681 b 213 690 215 686 214 689 b 201 696 208 694 206 696 b 194 694 199 696 197 696 b 175 683 189 692 185 683 b 196 733 178 703 186 718 b 276 844 219 772 243 811 b 286 860 283 851 286 856 b 269 875 286 865 281 869 b 250 885 263 878 257 881 b 200 910 229 901 215 910 b 151 889 186 910 172 903 b 142 881 149 886 144 883 b 29 753 96 844 60 801 b 3 694 18 735 7 715 b 1 682 1 690 1 686 b 14 656 1 672 4 663 b 40 646 22 649 31 646 b 60 651 46 646 53 647 b 89 672 69 657 81 664 b 147 719 108 688 128 704 z m 207 867 b 211 860 210 865 211 863 b 210 856 211 858 210 857 b 172 781 203 828 194 801 b 69 689 139 750 106 718 b 40 672 61 682 53 675 b 207 867 47 721 157 847 z "},"«":{"ha":761,"x_min":0,"x_max":0,"o":"m 300 204 b 272 222 293 217 282 218 b 172 253 239 232 206 242 b 85 288 142 263 113 272 b 63 307 75 292 63 296 l 63 308 b 85 331 63 321 75 325 b 236 406 135 356 186 381 b 292 436 256 415 274 425 b 299 443 296 439 299 442 b 290 451 299 447 296 449 b 257 458 279 456 268 458 b 222 447 244 458 233 456 b 186 429 211 440 199 436 b 26 351 133 403 79 379 b 0 319 14 343 0 338 b 26 290 0 304 14 297 b 92 263 47 278 68 269 b 265 207 149 243 207 225 b 288 201 272 206 279 201 b 300 204 292 201 296 203 z m 482 204 b 454 222 475 217 464 218 b 354 253 421 232 388 242 b 267 288 324 263 294 272 b 244 307 257 292 244 296 l 244 308 b 267 331 244 321 257 325 b 418 406 317 356 368 381 b 474 436 438 415 456 425 b 481 443 478 439 481 442 b 472 451 481 447 478 449 b 439 458 461 456 450 458 b 404 447 426 458 415 456 b 368 429 393 440 381 436 b 208 351 315 403 261 379 b 182 319 196 343 182 338 b 208 290 182 304 196 297 b 274 263 229 278 250 269 b 447 207 331 243 389 225 b 469 201 454 206 461 201 b 482 204 474 201 478 203 z "},"¬":{"ha":682,"x_min":0,"x_max":0,"o":"m 207 415 l 174 415 b 139 417 163 417 150 417 b 46 411 108 417 76 414 b 13 406 35 410 24 407 b 3 397 7 404 3 401 b 6 393 3 396 4 394 b 65 363 24 379 42 364 b 115 368 82 363 99 365 b 272 375 167 372 219 375 b 329 374 292 375 310 375 l 333 374 b 351 361 347 371 351 368 b 349 347 351 357 351 353 b 304 278 339 321 322 299 b 294 261 299 271 294 265 b 311 247 294 257 300 253 b 321 244 315 246 318 244 b 333 250 325 244 329 246 b 354 269 340 256 347 263 b 399 339 372 290 389 313 b 401 356 400 346 401 350 b 390 374 401 363 399 368 b 321 407 369 388 347 401 b 207 415 283 414 246 415 z "},"®":{"ha":713,"x_min":0,"x_max":0,"o":"m 432 847 l 432 864 b 394 947 432 893 422 924 b 272 994 358 978 317 994 b 226 989 257 994 242 993 b 8 768 113 957 40 882 b 3 728 4 754 3 742 b 10 679 3 713 6 696 b 167 571 24 621 97 571 b 196 574 176 571 186 572 b 367 682 267 589 322 628 b 432 847 404 728 432 779 z m 156 599 l 142 599 b 56 665 88 599 67 615 b 51 697 53 676 51 686 b 60 744 51 714 54 729 b 256 953 92 846 157 915 b 311 961 274 960 293 961 l 332 961 b 368 944 347 961 358 954 b 396 881 385 926 393 904 b 397 858 396 872 397 865 b 383 785 397 832 393 808 b 181 601 344 692 279 629 b 156 599 172 599 164 599 z m 194 742 b 203 721 201 736 200 728 b 226 686 208 707 215 694 b 257 675 238 678 247 675 b 289 694 268 675 279 681 b 294 706 292 699 294 701 b 292 711 294 707 294 710 b 281 717 289 714 285 717 b 271 713 276 717 274 715 b 253 697 264 707 258 701 b 246 694 250 696 247 694 b 236 701 242 694 239 697 b 228 740 231 714 228 726 b 232 768 228 749 229 758 b 244 778 235 775 239 778 l 249 778 b 281 781 260 778 269 779 b 333 822 306 786 322 801 b 339 840 338 829 339 835 b 321 867 339 851 332 860 b 296 875 313 872 304 875 b 276 869 290 875 283 874 b 264 867 272 867 268 867 b 247 872 258 867 253 868 b 235 879 244 875 239 876 b 224 883 231 882 226 883 b 208 874 218 883 213 879 b 196 856 203 868 199 863 b 144 760 176 825 160 793 b 118 692 135 738 125 715 b 117 682 117 688 117 685 b 133 664 117 674 122 668 b 140 661 136 663 139 661 b 154 676 147 661 151 669 b 174 713 161 689 167 701 b 194 742 179 724 185 735 z m 254 801 l 247 801 b 294 844 260 819 276 833 b 301 847 296 846 299 847 b 306 844 303 847 304 846 b 307 840 307 843 307 842 b 304 833 307 839 306 836 b 254 801 293 813 278 801 z "},"¯":{"ha":454,"x_min":0,"x_max":0,"o":"m 149 1088 b 172 1121 161 1096 167 1108 b 174 1125 174 1122 174 1124 b 163 1131 174 1129 167 1131 b 136 1129 154 1129 144 1129 b 92 1132 121 1129 107 1131 b 47 1142 76 1135 61 1136 b 39 1143 44 1143 42 1143 b 25 1135 33 1143 29 1140 l 4 1101 b 1 1093 3 1099 1 1096 b 11 1085 1 1089 4 1086 b 83 1081 35 1082 60 1081 b 140 1085 103 1081 121 1082 b 149 1088 143 1085 146 1086 z "},"°":{"ha":414,"x_min":0,"x_max":0,"o":"m 135 1118 l 135 1122 b 131 1147 135 1129 133 1138 b 96 1179 125 1168 113 1179 b 75 1175 89 1179 82 1178 b 63 1172 71 1174 67 1174 b 3 1110 29 1167 6 1143 l 3 1103 b 32 1054 3 1082 14 1067 b 68 1040 44 1046 56 1040 b 96 1050 78 1040 86 1043 b 135 1118 118 1067 135 1088 z m 47 1082 b 85 1136 47 1101 67 1129 b 93 1138 88 1138 90 1138 b 103 1135 97 1138 100 1138 b 106 1128 106 1132 106 1129 b 104 1118 106 1124 106 1121 b 67 1068 100 1096 88 1079 b 57 1065 63 1067 60 1065 b 47 1082 51 1065 47 1071 z "},"±":{"ha":606,"x_min":0,"x_max":0,"o":"m 207 471 b 256 539 224 499 240 519 b 264 551 258 543 264 547 b 263 556 264 553 264 554 b 233 575 257 567 244 571 b 228 576 232 576 231 576 b 214 564 222 576 217 569 b 164 489 197 540 179 515 b 133 471 157 476 147 471 l 36 471 b 0 461 24 471 11 469 b 44 429 13 446 31 439 b 81 419 56 421 68 419 l 99 419 b 117 418 104 419 111 419 l 117 415 b 108 392 117 406 113 399 b 97 347 103 378 97 363 b 119 325 97 338 107 328 l 124 325 b 133 340 132 325 132 335 b 163 404 140 364 153 383 b 193 424 169 418 178 424 l 313 424 b 328 429 318 424 324 424 b 207 471 296 464 254 467 z m 207 278 l 36 278 b 0 268 24 278 11 276 b 44 236 13 253 31 246 b 81 226 56 228 68 226 l 99 226 b 117 225 104 226 111 226 b 192 231 117 225 169 231 l 313 231 b 328 236 318 231 324 231 b 207 278 296 271 254 274 z "},"²":{"ha":553,"x_min":0,"x_max":0,"o":"m 157 668 b 124 700 140 668 131 679 b 122 707 122 703 122 704 b 138 721 122 715 132 718 b 226 796 168 744 199 769 b 268 850 243 813 258 829 b 272 867 271 857 272 863 b 256 892 272 876 267 885 b 215 907 242 901 229 907 b 178 897 203 907 190 903 b 124 853 156 886 136 875 b 121 844 122 850 121 847 b 126 833 121 840 122 836 b 133 831 129 832 132 831 b 144 838 138 831 140 833 b 199 874 158 856 178 865 b 224 883 207 878 215 883 b 233 879 228 883 231 882 b 235 872 235 876 235 875 b 218 846 235 864 225 854 b 157 790 200 825 179 807 b 32 704 117 760 79 725 b 7 688 22 700 14 694 b 1 679 4 685 1 682 b 8 669 1 675 4 672 b 33 661 15 664 24 661 b 50 665 39 661 44 663 b 88 688 63 672 75 679 b 97 692 92 690 94 692 b 107 685 101 692 104 689 b 146 654 117 669 131 661 b 169 649 153 651 161 649 b 217 675 188 649 206 658 b 219 682 218 678 219 679 b 213 690 219 685 217 688 b 206 692 210 692 207 692 b 190 685 199 692 194 689 b 157 668 181 676 169 668 z "},"³":{"ha":522,"x_min":0,"x_max":0,"o":"m 185 876 l 188 876 b 169 854 185 865 176 860 b 101 811 149 838 125 824 b 93 804 96 808 93 807 b 100 794 93 801 96 797 b 121 786 107 790 113 786 b 132 789 124 786 128 788 b 154 794 139 792 147 794 l 160 794 b 178 796 165 794 172 796 b 193 788 185 796 190 794 b 196 778 194 785 196 782 b 183 753 196 769 189 760 b 64 676 156 710 113 689 l 54 676 b 43 690 46 678 43 683 b 54 711 44 699 49 706 b 74 725 61 717 68 721 b 79 733 78 728 79 731 b 75 740 79 736 78 738 b 56 749 68 746 63 749 b 25 735 46 749 36 744 b 4 700 11 724 4 711 b 8 686 4 696 6 690 b 11 682 10 685 10 683 b 81 650 31 665 53 650 b 94 651 85 650 89 650 b 210 719 140 661 179 683 b 229 750 218 728 224 739 b 233 768 232 757 233 763 b 213 800 233 781 226 790 b 185 817 204 806 194 811 b 204 835 190 826 197 829 b 233 864 214 843 225 851 b 240 879 238 869 240 875 b 226 897 240 886 236 892 b 192 907 218 903 206 907 b 142 888 174 907 153 900 b 136 878 138 883 136 881 b 144 867 136 874 139 869 b 156 864 149 865 151 864 b 165 867 158 864 163 865 b 185 876 171 871 176 876 z "},"´":{"ha":451,"x_min":0,"x_max":0,"o":"m 43 1058 b 53 1061 47 1060 50 1060 b 165 1122 93 1075 131 1099 b 171 1131 169 1125 171 1128 b 164 1140 171 1133 168 1138 b 131 1160 153 1147 142 1153 b 119 1163 126 1163 124 1163 b 107 1156 115 1163 111 1161 b 72 1125 97 1143 85 1135 b 11 1089 53 1111 33 1100 b 4 1083 7 1088 4 1086 b 7 1078 4 1082 4 1079 b 43 1058 18 1069 29 1061 z "},"µ":{"ha":415,"x_min":0,"x_max":0,"o":"m -132 199 b -200 75 -158 158 -182 118 b -203 63 -203 71 -203 67 b -197 46 -203 57 -201 51 b -174 38 -193 40 -186 38 b -167 42 -171 39 -168 40 b -162 47 -165 43 -164 46 b -158 58 -161 51 -160 54 b -140 92 -151 71 -146 82 b -86 179 -122 121 -104 150 b -75 164 -83 174 -79 168 b -39 146 -64 153 -51 146 b -6 158 -28 146 -17 150 b 22 178 4 165 14 171 b 89 242 46 199 68 219 l 153 308 l 181 336 b 183 335 182 336 182 336 l 178 318 l 167 282 b 160 235 161 267 160 250 b 161 210 160 226 160 218 b 190 171 165 189 175 176 b 208 167 196 168 201 167 b 239 176 218 167 228 171 b 261 194 247 182 254 188 b 433 381 324 251 382 313 b 444 396 438 386 440 392 b 447 403 446 399 447 400 b 442 411 447 406 444 408 b 435 415 440 413 438 414 b 426 411 432 415 429 414 l 418 403 b 342 311 394 371 368 340 b 221 199 304 271 264 233 b 218 197 219 199 219 199 b 211 192 217 194 214 193 b 207 190 210 190 208 190 b 201 192 206 190 203 190 b 196 200 197 193 196 196 b 194 210 194 203 194 206 l 194 213 b 196 221 194 215 194 218 l 196 225 b 240 343 204 267 219 306 b 347 506 271 400 307 454 b 358 528 354 515 358 522 l 357 532 b 338 544 356 535 350 539 b 328 547 333 546 331 547 b 319 543 325 547 322 546 b 308 533 315 542 313 538 b 289 507 301 525 296 517 b 249 457 276 489 263 472 b 51 249 186 385 119 315 b -17 190 31 228 7 208 b -21 188 -18 189 -19 189 b -31 181 -24 185 -26 182 b -42 178 -35 179 -37 178 b -43 185 -43 181 -43 182 b -43 189 -43 186 -43 188 b -42 196 -43 190 -43 193 b -40 200 -42 197 -42 199 b -10 268 -33 224 -22 246 b 118 464 29 336 72 401 b 165 529 133 485 150 507 l 188 560 l 189 561 b 194 571 192 564 193 567 l 194 574 b 192 579 194 575 194 578 b 156 599 182 589 169 596 l 153 599 b 143 596 149 599 146 597 b 133 585 139 593 136 589 b 132 582 132 583 132 583 b 74 504 111 556 92 531 b 4 403 49 472 25 438 b -132 199 -42 335 -87 267 z "},"¶":{"ha":938,"x_min":0,"x_max":0,"o":"m 472 608 b 492 615 478 615 485 614 b 581 628 521 622 551 624 b 593 631 585 629 589 631 b 603 625 597 631 601 629 b 604 621 604 624 604 622 b 594 606 604 614 597 610 b 572 581 588 597 581 588 b 531 542 558 567 544 554 b 524 532 528 539 524 536 b 525 528 524 531 525 529 b 560 511 531 518 546 511 b 576 517 565 511 572 513 b 643 581 600 536 624 556 b 657 603 649 588 654 594 b 658 613 658 606 658 610 b 650 629 658 619 657 625 b 583 661 629 643 610 660 b 543 664 571 663 557 664 b 503 661 529 664 517 663 b 214 592 404 649 307 626 b 76 524 165 574 119 553 b 21 467 54 507 35 490 b 7 425 13 453 7 439 b 31 374 7 407 15 389 b 46 361 35 369 40 365 b 176 306 85 333 128 311 b 207 303 186 304 197 304 b 219 296 215 301 219 300 b 217 286 219 293 218 290 l 200 257 b 136 136 176 217 154 178 b 121 100 131 125 125 113 b 118 83 119 93 118 88 b 146 50 118 68 126 58 b 156 47 150 47 153 47 b 161 58 158 47 160 50 b 179 111 163 76 169 94 b 214 176 190 133 201 154 b 475 575 294 314 379 449 b 483 590 481 583 483 588 b 472 608 483 596 479 600 z m 199 24 b 231 -11 199 8 217 -11 l 233 -11 b 239 -4 238 -11 239 -8 b 275 85 243 28 260 57 b 507 465 344 217 422 343 b 518 483 514 475 518 481 b 500 499 518 489 513 492 b 492 504 497 501 494 503 b 478 508 486 507 482 508 b 463 499 474 508 469 506 b 426 447 449 483 438 465 b 267 178 369 360 317 269 b 213 71 247 143 228 108 b 199 24 206 56 200 39 z "},"·":{"ha":417,"x_min":0,"x_max":0,"o":"m 28 440 b 40 446 32 440 36 443 b 57 467 46 451 51 458 b 61 481 60 472 61 476 b 49 499 61 488 57 493 b 33 504 42 501 38 504 b 19 490 29 504 25 500 b 7 471 14 485 11 478 b 4 461 6 468 4 465 b 28 440 4 450 14 442 z "},"∙":{"ha":417,"x_min":0,"x_max":0,"o":"m 28 440 b 40 446 32 440 36 443 b 57 467 46 451 51 458 b 61 481 60 472 61 476 b 49 499 61 488 57 493 b 33 504 42 501 38 504 b 19 490 29 504 25 500 b 7 471 14 485 11 478 b 4 461 6 468 4 465 b 28 440 4 450 14 442 z "},"¸":{"ha":382,"x_min":0,"x_max":0,"o":"m 0 -96 b 31 -115 13 -110 21 -115 b 50 -110 36 -115 42 -114 b 81 -90 61 -106 72 -99 b 99 -64 93 -81 99 -72 b 82 -37 99 -56 93 -47 b 71 -25 75 -31 71 -28 b 81 -11 71 -21 75 -18 b 92 1 83 -7 88 -3 b 94 11 94 4 94 7 b 61 31 93 18 72 31 b 56 29 58 31 57 31 b 26 -4 42 22 31 11 b 25 -8 26 -6 25 -7 b 44 -29 25 -19 38 -24 b 51 -33 47 -31 49 -32 b 61 -49 57 -39 61 -43 b 53 -62 61 -53 58 -57 b 0 -96 39 -78 22 -89 z "},"¹":{"ha":457,"x_min":0,"x_max":0,"o":"m 113 871 l 125 871 b 117 858 121 864 118 861 b 17 706 82 807 47 758 b 4 679 11 697 7 689 b 3 674 3 678 3 675 b 19 656 3 667 10 660 b 24 654 21 656 22 654 b 36 665 31 654 33 660 b 146 825 68 721 108 772 b 172 863 156 838 164 850 b 176 875 175 868 176 871 b 165 890 176 881 172 885 b 132 901 156 897 143 901 b 113 899 125 901 119 900 b 94 886 106 896 94 896 l 94 885 b 113 871 94 875 104 872 z "},"º":{"ha":494,"x_min":0,"x_max":0,"o":"m 1 715 l 1 706 b 33 654 1 683 13 665 b 60 646 43 649 51 646 b 94 660 72 646 83 651 b 108 671 100 664 104 667 b 174 744 135 692 156 718 b 206 801 186 763 199 781 b 211 828 210 811 211 819 b 185 868 211 843 203 856 b 161 889 176 874 168 879 b 132 906 151 900 142 906 b 103 892 122 906 114 901 b 19 779 68 858 40 821 b 1 715 10 758 1 739 z m 181 838 b 171 804 179 826 176 815 b 88 692 149 763 122 724 b 60 672 79 683 69 676 b 50 669 56 671 53 669 b 40 682 43 669 40 674 l 40 688 b 49 724 42 700 43 711 b 128 847 67 769 94 810 b 150 861 135 854 142 858 b 160 863 153 863 157 863 b 181 838 172 863 181 853 z "},"»":{"ha":761,"x_min":0,"x_max":0,"o":"m 183 456 b 211 439 190 443 201 442 b 311 408 244 428 278 418 b 399 374 342 399 371 388 b 421 353 408 368 421 364 l 421 351 b 399 329 421 339 408 335 b 247 254 349 304 297 279 b 192 224 228 244 210 235 b 185 217 188 222 185 219 b 193 208 185 214 188 211 b 228 203 206 206 217 203 b 261 213 239 203 250 206 b 297 231 272 219 285 225 b 457 310 350 258 404 281 b 483 340 469 317 483 324 b 457 369 483 356 469 363 b 392 397 436 382 415 390 b 218 453 335 417 276 435 b 196 458 211 454 204 458 b 183 456 192 458 188 457 z m 1 456 b 29 439 8 443 19 442 b 129 408 63 428 96 418 b 217 374 160 399 189 388 b 239 353 226 368 239 364 l 239 351 b 217 329 239 339 226 335 b 65 254 167 304 115 279 b 10 224 46 244 28 235 b 3 217 6 222 3 219 b 11 208 3 214 6 211 b 46 203 24 206 35 203 b 79 213 57 203 68 206 b 115 231 90 219 103 225 b 275 310 168 258 222 281 b 301 340 288 317 301 324 b 275 369 301 356 288 363 b 210 397 254 382 233 390 b 36 453 153 417 94 435 b 14 458 29 454 22 458 b 1 456 10 458 6 457 z "},"¼":{"ha":843,"x_min":0,"x_max":0,"o":"m 565 693 b 563 697 564 694 564 696 b 525 718 551 707 539 714 l 521 718 b 501 704 513 718 507 710 b 383 575 460 663 422 619 b 108 249 290 467 199 358 b 10 124 74 207 40 167 b 3 108 6 117 3 113 b 14 96 3 104 7 100 b 36 85 24 89 31 85 b 50 94 40 85 44 88 b 132 194 78 128 104 161 b 478 592 246 329 360 463 b 556 679 504 621 531 650 b 565 693 560 683 564 686 z m 383 211 l 383 208 b 378 196 383 204 381 200 b 354 149 371 181 363 164 b 349 128 351 142 349 135 l 349 124 b 369 101 349 113 357 106 b 375 100 371 101 374 100 b 385 117 383 100 382 111 b 403 151 392 129 397 140 b 490 289 429 200 458 244 b 496 303 493 293 496 297 b 489 314 496 306 494 310 b 468 324 481 319 474 324 b 454 317 463 324 458 321 b 436 292 447 308 442 300 b 344 228 411 261 383 236 b 335 225 342 226 338 225 b 329 229 332 225 331 226 b 328 235 328 231 328 232 b 332 244 328 238 331 242 b 375 281 343 260 358 271 b 507 367 418 310 463 338 b 524 376 513 369 518 374 b 526 385 525 378 526 381 l 526 388 b 490 406 521 397 503 406 b 479 403 486 406 482 404 b 321 303 426 369 371 340 b 292 274 310 294 300 285 b 285 253 288 267 285 260 b 299 226 285 243 289 235 b 347 206 313 213 329 206 b 367 208 353 206 360 207 b 379 213 371 210 374 213 b 383 211 381 213 382 211 z m 129 474 b 161 439 129 458 147 439 l 163 439 b 171 450 168 440 169 444 b 204 525 178 476 192 500 b 263 617 222 556 242 586 l 275 638 b 278 647 276 642 278 644 b 269 661 278 653 275 657 b 228 678 256 669 243 678 b 203 669 219 678 211 676 b 185 661 197 667 192 665 b 171 649 175 657 171 653 b 182 635 171 644 175 640 b 196 619 192 628 196 624 b 188 601 196 615 193 610 b 144 519 172 575 157 547 b 129 474 138 504 131 489 z "},"½":{"ha":842,"x_min":0,"x_max":0,"o":"m 564 692 b 557 701 563 696 560 699 b 538 713 550 706 544 710 b 522 719 531 717 526 719 b 506 708 518 719 513 715 b 456 657 489 692 471 675 b 36 161 311 496 172 329 b 8 121 26 149 17 135 b 1 110 6 118 1 114 b 3 106 1 108 3 107 b 32 86 8 94 21 90 b 36 85 33 85 35 85 b 50 96 42 85 46 90 b 175 247 90 147 133 197 b 414 522 254 340 333 432 b 554 678 461 575 506 628 b 564 692 558 682 563 686 z m 440 351 b 426 319 439 336 432 328 b 322 204 397 275 361 239 b 276 174 308 192 296 179 b 267 164 269 171 267 168 b 274 154 267 161 269 157 b 289 146 278 151 283 147 b 324 126 303 144 313 135 b 379 104 344 111 363 104 b 450 146 407 104 429 121 b 456 156 453 149 456 151 b 451 163 456 157 454 160 b 442 167 449 165 446 167 b 432 163 439 167 435 165 b 421 151 428 160 425 156 b 378 125 408 139 394 131 b 365 124 374 124 369 124 b 339 133 356 124 347 126 b 328 150 332 140 328 146 b 340 164 328 154 332 157 b 465 296 389 201 432 244 b 485 335 474 308 481 321 b 486 346 486 339 486 342 b 481 360 486 351 485 357 b 436 385 468 372 454 385 b 425 383 432 385 429 385 b 368 342 400 379 382 364 b 365 332 365 339 365 335 b 372 319 365 328 367 322 b 386 310 376 315 382 313 b 394 307 389 308 392 307 b 401 314 397 307 399 310 b 440 351 408 331 421 342 z m 126 469 l 126 468 b 151 442 126 453 140 449 b 161 439 156 440 160 439 b 171 450 167 439 168 442 b 193 504 175 469 183 488 b 258 611 213 542 235 576 b 274 636 264 619 268 628 b 276 647 276 640 276 643 b 268 661 276 651 274 657 b 228 678 254 671 242 678 b 199 668 218 678 208 675 b 178 657 192 664 185 661 b 169 649 172 654 169 651 b 175 639 169 646 171 643 b 185 632 178 636 182 635 b 196 621 193 626 196 624 b 190 607 196 618 194 614 b 143 519 174 578 157 550 b 126 469 136 504 131 488 z "},"¾":{"ha":842,"x_min":0,"x_max":0,"o":"m 564 693 b 563 694 564 693 564 694 b 526 718 554 707 540 711 b 521 719 525 719 522 719 b 506 710 515 719 510 714 b 417 614 474 679 446 646 b 199 358 342 529 271 444 b 19 138 138 286 76 214 b 6 118 14 131 10 125 b 3 110 3 115 3 113 b 11 97 3 104 6 100 b 25 89 15 94 21 92 b 36 85 29 86 32 85 b 49 93 40 85 44 88 b 69 119 54 101 61 111 b 479 594 203 281 339 439 b 556 679 504 622 529 650 b 564 693 558 683 564 686 z m 383 211 b 381 201 382 207 382 204 b 350 139 369 181 360 160 b 346 125 347 133 346 129 b 361 104 346 117 351 111 b 372 100 365 101 369 100 b 382 113 376 100 379 104 b 403 153 388 126 396 140 b 488 286 428 200 457 243 b 496 303 493 294 496 299 b 481 318 496 308 490 313 b 465 324 474 322 469 324 b 449 311 460 324 456 319 b 435 292 444 306 440 299 b 371 238 418 268 396 251 b 336 226 360 231 349 228 l 333 226 b 326 232 329 226 326 228 b 328 238 326 233 326 235 b 338 251 329 243 333 247 b 376 283 349 264 363 274 b 508 367 421 311 464 339 b 522 376 513 369 518 374 b 526 383 524 378 526 381 b 525 388 526 385 526 386 b 489 406 522 396 503 406 b 479 403 485 406 482 404 b 317 300 424 369 368 339 b 292 274 307 293 299 285 b 285 253 288 267 285 260 b 297 226 285 243 289 235 b 346 206 311 213 328 206 b 365 208 351 206 358 207 b 378 213 369 210 372 213 b 383 211 379 213 382 211 z m 206 583 b 238 607 217 592 228 600 b 263 631 247 614 256 621 b 267 643 265 635 267 639 b 261 654 267 647 265 651 b 207 676 246 668 228 676 b 182 672 199 676 190 675 b 165 657 174 669 165 667 l 165 656 b 186 638 165 644 176 642 b 190 636 188 636 189 636 b 199 640 193 636 196 639 b 222 647 206 643 211 647 b 153 597 200 625 176 611 b 136 581 147 593 136 590 b 156 565 138 572 149 569 b 169 563 160 563 164 563 l 178 563 b 200 561 185 563 192 563 b 210 550 206 561 210 557 l 210 547 b 201 531 208 542 206 535 b 121 475 182 501 154 485 b 114 474 118 474 117 474 b 106 485 108 474 106 478 l 106 489 b 135 524 110 506 121 515 b 154 536 142 528 150 528 b 135 550 143 546 139 550 b 129 549 133 550 131 549 b 76 508 107 542 88 531 b 72 492 74 503 72 497 b 82 468 72 482 76 474 b 124 450 94 458 107 450 l 129 450 b 240 518 175 457 214 479 b 246 538 244 525 246 532 b 231 564 246 547 240 556 b 206 583 222 569 213 572 z "},"¿":{"ha":885,"x_min":0,"x_max":0,"o":"m 438 -46 l 401 -46 b 383 -54 394 -47 385 -44 b 400 -64 383 -62 393 -62 l 419 -64 b 471 -68 438 -64 454 -64 b 508 -115 496 -75 507 -89 l 508 -121 b 494 -165 508 -136 503 -151 b 443 -229 482 -190 464 -211 b 178 -356 367 -297 278 -337 b 118 -362 158 -360 139 -362 b 79 -358 106 -362 92 -361 b 56 -331 64 -354 56 -346 l 56 -324 b 64 -296 57 -314 60 -304 b 101 -244 74 -276 86 -260 b 208 -150 135 -210 172 -181 b 482 117 306 -67 397 21 b 529 182 499 138 515 158 b 536 204 532 189 536 196 b 535 213 536 207 536 210 b 488 238 531 225 504 238 b 479 236 485 238 482 238 b 468 226 472 233 468 231 b 475 218 468 224 471 221 b 483 207 482 214 483 210 b 478 194 483 203 482 199 b 439 144 465 178 453 160 b 172 -111 357 51 267 -32 b 49 -221 131 -146 86 -181 b 11 -281 33 -239 19 -257 b 6 -307 8 -290 6 -299 b 35 -354 6 -325 15 -340 b 131 -393 64 -375 96 -390 b 158 -394 140 -394 149 -394 b 208 -390 175 -394 192 -393 b 492 -257 317 -374 411 -331 b 550 -165 519 -232 540 -201 b 553 -143 551 -158 553 -150 b 519 -79 553 -118 542 -96 b 438 -46 494 -60 468 -46 z m 607 351 b 585 378 607 365 596 371 b 572 382 581 381 576 382 b 557 374 567 382 561 379 b 531 346 547 364 539 356 b 515 313 524 336 517 325 l 515 307 b 528 283 515 297 518 289 b 551 272 535 278 542 272 b 561 275 554 272 557 274 b 607 351 582 285 607 328 z "},"À":{"ha":1133,"x_min":0,"x_max":0,"o":"m 861 367 b 863 363 861 365 863 364 b 858 353 863 360 860 356 b 821 268 846 325 833 296 b 708 -78 772 157 731 43 b 697 -164 703 -107 697 -135 b 700 -196 697 -175 699 -185 b 753 -247 706 -228 728 -247 b 789 -235 765 -247 778 -243 b 894 -111 832 -201 865 -158 b 899 -100 897 -107 899 -103 b 882 -85 899 -93 893 -86 l 878 -85 b 864 -97 871 -85 868 -92 b 817 -161 849 -119 833 -142 b 761 -214 800 -181 782 -199 b 743 -222 753 -219 747 -222 b 733 -201 738 -222 735 -215 b 732 -183 733 -194 732 -189 b 735 -157 732 -175 733 -165 b 768 7 740 -101 751 -47 b 924 386 808 138 865 263 b 949 408 929 397 938 404 b 1022 451 974 421 999 436 b 1033 463 1026 454 1033 457 b 1032 467 1033 464 1033 465 b 1014 478 1029 474 1022 478 b 1008 476 1013 478 1010 476 b 990 465 1001 474 996 468 b 956 447 979 460 969 450 b 968 478 957 460 964 469 b 1157 857 1031 604 1094 731 b 1208 982 1176 897 1196 939 b 1219 1028 1214 997 1218 1013 b 1221 1038 1219 1032 1221 1035 b 1156 1101 1221 1074 1192 1101 b 1142 1100 1151 1101 1147 1101 b 1078 1078 1119 1096 1099 1088 b 978 1019 1043 1061 1010 1042 b 960 1013 971 1015 965 1013 b 946 1018 956 1013 950 1014 b 935 1022 942 1021 939 1022 b 917 1011 928 1022 922 1018 b 885 968 907 997 896 983 b 842 919 872 951 860 933 b 592 682 753 846 668 768 b 425 482 535 617 476 551 b 296 294 379 422 336 358 b 260 275 286 281 276 275 b 146 285 221 275 183 279 b 61 367 99 293 72 322 b 56 407 57 381 56 393 b 65 465 56 426 60 446 b 124 565 76 503 94 536 b 131 576 128 571 131 574 b 119 588 131 581 126 583 b 100 596 111 593 106 596 b 78 582 93 596 86 592 b 21 475 50 551 31 515 b 15 428 17 458 15 443 b 131 272 15 356 56 301 b 238 253 165 260 201 256 l 247 253 b 263 250 253 253 258 253 l 263 247 b 260 238 263 243 261 240 b 203 138 239 204 221 171 b 110 -74 168 69 133 0 b 97 -137 103 -94 99 -115 l 97 -143 b 121 -182 97 -160 104 -172 b 140 -187 128 -186 135 -187 b 169 -176 151 -187 160 -183 b 228 -119 192 -160 211 -140 b 396 115 286 -44 343 35 b 482 250 425 160 454 206 b 513 272 490 263 499 269 b 844 363 626 290 738 321 b 857 368 849 365 853 368 b 861 367 858 368 860 367 z m 519 303 l 519 306 b 531 325 519 313 525 318 b 747 674 603 442 674 558 b 889 892 794 746 842 819 b 965 972 911 922 935 950 b 1124 1063 1015 1007 1067 1039 b 1156 1074 1133 1067 1144 1071 b 1168 1075 1161 1075 1165 1075 b 1183 1051 1181 1075 1183 1068 b 1175 1014 1182 1038 1178 1026 b 1132 906 1163 976 1149 940 l 978 601 b 893 429 949 544 919 488 b 868 401 888 417 881 407 b 532 300 758 357 647 324 l 526 300 b 519 303 525 300 522 300 z m 771 810 b 764 793 771 801 767 797 b 549 454 690 681 619 567 b 465 314 521 407 493 361 b 418 283 454 294 442 285 b 343 276 393 281 368 282 b 335 275 340 276 338 275 b 328 279 332 275 329 276 b 326 283 328 281 326 282 b 332 293 326 286 329 290 b 408 403 357 329 382 367 b 629 671 475 497 550 586 b 750 793 668 713 708 754 b 771 810 756 799 760 806 z m 424 256 b 417 238 424 247 421 243 b 175 -117 342 115 264 -4 b 135 -156 164 -131 150 -144 b 129 -142 131 -151 129 -147 b 131 -128 129 -137 131 -132 b 151 -51 135 -101 142 -76 b 233 126 175 10 203 69 b 293 233 253 163 272 199 b 324 253 300 246 310 253 l 344 253 b 392 257 361 253 376 254 b 407 258 397 258 401 258 b 424 256 413 258 418 258 z m 1225 1150 b 1263 1169 1240 1153 1251 1161 b 1265 1174 1264 1171 1265 1172 b 1257 1181 1265 1178 1261 1179 b 1197 1217 1236 1192 1217 1203 b 1163 1247 1185 1226 1172 1235 b 1149 1254 1158 1253 1154 1254 b 1139 1251 1146 1254 1142 1254 b 1106 1232 1128 1244 1117 1239 b 1097 1221 1101 1229 1097 1225 b 1103 1214 1097 1219 1099 1217 b 1215 1153 1139 1190 1175 1167 b 1225 1150 1219 1151 1222 1151 z "},"Á":{"ha":1133,"x_min":0,"x_max":0,"o":"m 861 367 b 863 363 861 365 863 364 b 858 353 863 360 860 356 b 821 268 846 325 833 296 b 708 -78 772 157 731 43 b 697 -164 703 -107 697 -135 b 700 -196 697 -175 699 -185 b 753 -247 706 -228 728 -247 b 789 -235 765 -247 778 -243 b 894 -111 832 -201 865 -158 b 899 -100 897 -107 899 -103 b 882 -85 899 -93 893 -86 l 878 -85 b 864 -97 871 -85 868 -92 b 817 -161 849 -119 833 -142 b 761 -214 800 -181 782 -199 b 743 -222 753 -219 747 -222 b 733 -201 738 -222 735 -215 b 732 -183 733 -194 732 -189 b 735 -157 732 -175 733 -165 b 768 7 740 -101 751 -47 b 924 386 808 138 865 263 b 949 408 929 397 938 404 b 1022 451 974 421 999 436 b 1033 463 1026 454 1033 457 b 1032 467 1033 464 1033 465 b 1014 478 1029 474 1022 478 b 1008 476 1013 478 1010 476 b 990 465 1001 474 996 468 b 956 447 979 460 969 450 b 968 478 957 460 964 469 b 1157 857 1031 604 1094 731 b 1208 982 1176 897 1196 939 b 1219 1028 1214 997 1218 1013 b 1221 1038 1219 1032 1221 1035 b 1156 1101 1221 1074 1192 1101 b 1142 1100 1151 1101 1147 1101 b 1078 1078 1119 1096 1099 1088 b 978 1019 1043 1061 1010 1042 b 960 1013 971 1015 965 1013 b 946 1018 956 1013 950 1014 b 935 1022 942 1021 939 1022 b 917 1011 928 1022 922 1018 b 885 968 907 997 896 983 b 842 919 872 951 860 933 b 592 682 753 846 668 768 b 425 482 535 617 476 551 b 296 294 379 422 336 358 b 260 275 286 281 276 275 b 146 285 221 275 183 279 b 61 367 99 293 72 322 b 56 407 57 381 56 393 b 65 465 56 426 60 446 b 124 565 76 503 94 536 b 131 576 128 571 131 574 b 119 588 131 581 126 583 b 100 596 111 593 106 596 b 78 582 93 596 86 592 b 21 475 50 551 31 515 b 15 428 17 458 15 443 b 131 272 15 356 56 301 b 238 253 165 260 201 256 l 247 253 b 263 250 253 253 258 253 l 263 247 b 260 238 263 243 261 240 b 203 138 239 204 221 171 b 110 -74 168 69 133 0 b 97 -137 103 -94 99 -115 l 97 -143 b 121 -182 97 -160 104 -172 b 140 -187 128 -186 135 -187 b 169 -176 151 -187 160 -183 b 228 -119 192 -160 211 -140 b 396 115 286 -44 343 35 b 482 250 425 160 454 206 b 513 272 490 263 499 269 b 844 363 626 290 738 321 b 857 368 849 365 853 368 b 861 367 858 368 860 367 z m 519 303 l 519 306 b 531 325 519 313 525 318 b 747 674 603 442 674 558 b 889 892 794 746 842 819 b 965 972 911 922 935 950 b 1124 1063 1015 1007 1067 1039 b 1156 1074 1133 1067 1144 1071 b 1168 1075 1161 1075 1165 1075 b 1183 1051 1181 1075 1183 1068 b 1175 1014 1182 1038 1178 1026 b 1132 906 1163 976 1149 940 l 978 601 b 893 429 949 544 919 488 b 868 401 888 417 881 407 b 532 300 758 357 647 324 l 526 300 b 519 303 525 300 522 300 z m 771 810 b 764 793 771 801 767 797 b 549 454 690 681 619 567 b 465 314 521 407 493 361 b 418 283 454 294 442 285 b 343 276 393 281 368 282 b 335 275 340 276 338 275 b 328 279 332 275 329 276 b 326 283 328 281 326 282 b 332 293 326 286 329 290 b 408 403 357 329 382 367 b 629 671 475 497 550 586 b 750 793 668 713 708 754 b 771 810 756 799 760 806 z m 424 256 b 417 238 424 247 421 243 b 175 -117 342 115 264 -4 b 135 -156 164 -131 150 -144 b 129 -142 131 -151 129 -147 b 131 -128 129 -137 131 -132 b 151 -51 135 -101 142 -76 b 233 126 175 10 203 69 b 293 233 253 163 272 199 b 324 253 300 246 310 253 l 344 253 b 392 257 361 253 376 254 b 407 258 397 258 401 258 b 424 256 413 258 418 258 z m 1136 1153 b 1146 1156 1140 1154 1143 1154 b 1258 1217 1186 1169 1224 1193 b 1264 1225 1263 1219 1264 1222 b 1257 1235 1264 1228 1261 1232 b 1224 1254 1246 1242 1235 1247 b 1213 1257 1219 1257 1217 1257 b 1200 1250 1208 1257 1204 1256 b 1165 1219 1190 1238 1178 1229 b 1104 1183 1146 1206 1126 1194 b 1097 1178 1100 1182 1097 1181 b 1100 1172 1097 1176 1097 1174 b 1136 1153 1111 1164 1122 1156 z "},"Â":{"ha":1133,"x_min":0,"x_max":0,"o":"m 861 367 b 863 363 861 365 863 364 b 858 353 863 360 860 356 b 821 268 846 325 833 296 b 708 -78 772 157 731 43 b 697 -164 703 -107 697 -135 b 700 -196 697 -175 699 -185 b 753 -247 706 -228 728 -247 b 789 -235 765 -247 778 -243 b 894 -111 832 -201 865 -158 b 899 -100 897 -107 899 -103 b 882 -85 899 -93 893 -86 l 878 -85 b 864 -97 871 -85 868 -92 b 817 -161 849 -119 833 -142 b 761 -214 800 -181 782 -199 b 743 -222 753 -219 747 -222 b 733 -201 738 -222 735 -215 b 732 -183 733 -194 732 -189 b 735 -157 732 -175 733 -165 b 768 7 740 -101 751 -47 b 924 386 808 138 865 263 b 949 408 929 397 938 404 b 1022 451 974 421 999 436 b 1033 463 1026 454 1033 457 b 1032 467 1033 464 1033 465 b 1014 478 1029 474 1022 478 b 1008 476 1013 478 1010 476 b 990 465 1001 474 996 468 b 956 447 979 460 969 450 b 968 478 957 460 964 469 b 1157 857 1031 604 1094 731 b 1208 982 1176 897 1196 939 b 1219 1028 1214 997 1218 1013 b 1221 1038 1219 1032 1221 1035 b 1156 1101 1221 1074 1192 1101 b 1142 1100 1151 1101 1147 1101 b 1078 1078 1119 1096 1099 1088 b 978 1019 1043 1061 1010 1042 b 960 1013 971 1015 965 1013 b 946 1018 956 1013 950 1014 b 935 1022 942 1021 939 1022 b 917 1011 928 1022 922 1018 b 885 968 907 997 896 983 b 842 919 872 951 860 933 b 592 682 753 846 668 768 b 425 482 535 617 476 551 b 296 294 379 422 336 358 b 260 275 286 281 276 275 b 146 285 221 275 183 279 b 61 367 99 293 72 322 b 56 407 57 381 56 393 b 65 465 56 426 60 446 b 124 565 76 503 94 536 b 131 576 128 571 131 574 b 119 588 131 581 126 583 b 100 596 111 593 106 596 b 78 582 93 596 86 592 b 21 475 50 551 31 515 b 15 428 17 458 15 443 b 131 272 15 356 56 301 b 238 253 165 260 201 256 l 247 253 b 263 250 253 253 258 253 l 263 247 b 260 238 263 243 261 240 b 203 138 239 204 221 171 b 110 -74 168 69 133 0 b 97 -137 103 -94 99 -115 l 97 -143 b 121 -182 97 -160 104 -172 b 140 -187 128 -186 135 -187 b 169 -176 151 -187 160 -183 b 228 -119 192 -160 211 -140 b 396 115 286 -44 343 35 b 482 250 425 160 454 206 b 513 272 490 263 499 269 b 844 363 626 290 738 321 b 857 368 849 365 853 368 b 861 367 858 368 860 367 z m 519 303 l 519 306 b 531 325 519 313 525 318 b 747 674 603 442 674 558 b 889 892 794 746 842 819 b 965 972 911 922 935 950 b 1124 1063 1015 1007 1067 1039 b 1156 1074 1133 1067 1144 1071 b 1168 1075 1161 1075 1165 1075 b 1183 1051 1181 1075 1183 1068 b 1175 1014 1182 1038 1178 1026 b 1132 906 1163 976 1149 940 l 978 601 b 893 429 949 544 919 488 b 868 401 888 417 881 407 b 532 300 758 357 647 324 l 526 300 b 519 303 525 300 522 300 z m 771 810 b 764 793 771 801 767 797 b 549 454 690 681 619 567 b 465 314 521 407 493 361 b 418 283 454 294 442 285 b 343 276 393 281 368 282 b 335 275 340 276 338 275 b 328 279 332 275 329 276 b 326 283 328 281 326 282 b 332 293 326 286 329 290 b 408 403 357 329 382 367 b 629 671 475 497 550 586 b 750 793 668 713 708 754 b 771 810 756 799 760 806 z m 424 256 b 417 238 424 247 421 243 b 175 -117 342 115 264 -4 b 135 -156 164 -131 150 -144 b 129 -142 131 -151 129 -147 b 131 -128 129 -137 131 -132 b 151 -51 135 -101 142 -76 b 233 126 175 10 203 69 b 293 233 253 163 272 199 b 324 253 300 246 310 253 l 344 253 b 392 257 361 253 376 254 b 407 258 397 258 401 258 b 424 256 413 258 418 258 z m 1158 1156 l 1196 1181 b 1206 1163 1203 1175 1201 1168 b 1240 1142 1211 1150 1228 1142 l 1246 1142 b 1254 1150 1250 1143 1253 1144 b 1250 1157 1254 1153 1253 1156 b 1233 1176 1236 1161 1233 1168 b 1236 1194 1233 1182 1235 1189 b 1258 1236 1242 1210 1247 1225 b 1269 1254 1267 1244 1269 1250 b 1249 1272 1269 1263 1261 1267 b 1239 1275 1246 1274 1242 1275 b 1221 1264 1232 1275 1226 1269 b 1119 1182 1189 1233 1156 1206 b 1110 1175 1115 1179 1113 1176 b 1104 1167 1107 1172 1104 1169 b 1110 1158 1104 1164 1107 1161 b 1133 1146 1118 1150 1125 1146 b 1158 1156 1140 1146 1149 1149 z "},"Ã":{"ha":1133,"x_min":0,"x_max":0,"o":"m 861 367 b 863 363 861 365 863 364 b 858 353 863 360 860 356 b 821 268 846 325 833 296 b 708 -78 772 157 731 43 b 697 -164 703 -107 697 -135 b 700 -196 697 -175 699 -185 b 753 -247 706 -228 728 -247 b 789 -235 765 -247 778 -243 b 894 -111 832 -201 865 -158 b 899 -100 897 -107 899 -103 b 882 -85 899 -93 893 -86 l 878 -85 b 864 -97 871 -85 868 -92 b 817 -161 849 -119 833 -142 b 761 -214 800 -181 782 -199 b 743 -222 753 -219 747 -222 b 733 -201 738 -222 735 -215 b 732 -183 733 -194 732 -189 b 735 -157 732 -175 733 -165 b 768 7 740 -101 751 -47 b 924 386 808 138 865 263 b 949 408 929 397 938 404 b 1022 451 974 421 999 436 b 1033 463 1026 454 1033 457 b 1032 467 1033 464 1033 465 b 1014 478 1029 474 1022 478 b 1008 476 1013 478 1010 476 b 990 465 1001 474 996 468 b 956 447 979 460 969 450 b 968 478 957 460 964 469 b 1157 857 1031 604 1094 731 b 1208 982 1176 897 1196 939 b 1219 1028 1214 997 1218 1013 b 1221 1038 1219 1032 1221 1035 b 1156 1101 1221 1074 1192 1101 b 1142 1100 1151 1101 1147 1101 b 1078 1078 1119 1096 1099 1088 b 978 1019 1043 1061 1010 1042 b 960 1013 971 1015 965 1013 b 946 1018 956 1013 950 1014 b 935 1022 942 1021 939 1022 b 917 1011 928 1022 922 1018 b 885 968 907 997 896 983 b 842 919 872 951 860 933 b 592 682 753 846 668 768 b 425 482 535 617 476 551 b 296 294 379 422 336 358 b 260 275 286 281 276 275 b 146 285 221 275 183 279 b 61 367 99 293 72 322 b 56 407 57 381 56 393 b 65 465 56 426 60 446 b 124 565 76 503 94 536 b 131 576 128 571 131 574 b 119 588 131 581 126 583 b 100 596 111 593 106 596 b 78 582 93 596 86 592 b 21 475 50 551 31 515 b 15 428 17 458 15 443 b 131 272 15 356 56 301 b 238 253 165 260 201 256 l 247 253 b 263 250 253 253 258 253 l 263 247 b 260 238 263 243 261 240 b 203 138 239 204 221 171 b 110 -74 168 69 133 0 b 97 -137 103 -94 99 -115 l 97 -143 b 121 -182 97 -160 104 -172 b 140 -187 128 -186 135 -187 b 169 -176 151 -187 160 -183 b 228 -119 192 -160 211 -140 b 396 115 286 -44 343 35 b 482 250 425 160 454 206 b 513 272 490 263 499 269 b 844 363 626 290 738 321 b 857 368 849 365 853 368 b 861 367 858 368 860 367 z m 519 303 l 519 306 b 531 325 519 313 525 318 b 747 674 603 442 674 558 b 889 892 794 746 842 819 b 965 972 911 922 935 950 b 1124 1063 1015 1007 1067 1039 b 1156 1074 1133 1067 1144 1071 b 1168 1075 1161 1075 1165 1075 b 1183 1051 1181 1075 1183 1068 b 1175 1014 1182 1038 1178 1026 b 1132 906 1163 976 1149 940 l 978 601 b 893 429 949 544 919 488 b 868 401 888 417 881 407 b 532 300 758 357 647 324 l 526 300 b 519 303 525 300 522 300 z m 771 810 b 764 793 771 801 767 797 b 549 454 690 681 619 567 b 465 314 521 407 493 361 b 418 283 454 294 442 285 b 343 276 393 281 368 282 b 335 275 340 276 338 275 b 328 279 332 275 329 276 b 326 283 328 281 326 282 b 332 293 326 286 329 290 b 408 403 357 329 382 367 b 629 671 475 497 550 586 b 750 793 668 713 708 754 b 771 810 756 799 760 806 z m 424 256 b 417 238 424 247 421 243 b 175 -117 342 115 264 -4 b 135 -156 164 -131 150 -144 b 129 -142 131 -151 129 -147 b 131 -128 129 -137 131 -132 b 151 -51 135 -101 142 -76 b 233 126 175 10 203 69 b 293 233 253 163 272 199 b 324 253 300 246 310 253 l 344 253 b 392 257 361 253 376 254 b 407 258 397 258 401 258 b 424 256 413 258 418 258 z m 1169 1236 l 1165 1236 b 1143 1231 1157 1236 1150 1233 b 1099 1186 1125 1219 1110 1204 b 1092 1167 1094 1178 1092 1172 b 1111 1144 1092 1157 1097 1151 b 1121 1142 1115 1143 1118 1142 b 1133 1151 1126 1142 1129 1144 b 1175 1199 1144 1169 1158 1185 b 1186 1203 1179 1201 1183 1203 b 1197 1194 1190 1203 1194 1200 b 1204 1185 1199 1192 1201 1188 b 1244 1163 1215 1169 1231 1163 b 1282 1178 1257 1163 1269 1167 b 1294 1189 1286 1181 1290 1185 b 1301 1200 1297 1193 1301 1196 b 1297 1208 1301 1203 1300 1206 b 1285 1214 1293 1213 1290 1214 b 1274 1208 1282 1214 1278 1213 l 1258 1193 b 1240 1185 1250 1188 1244 1185 b 1222 1201 1233 1185 1229 1190 b 1169 1236 1210 1222 1189 1229 z "},"Ä":{"ha":1133,"x_min":0,"x_max":0,"o":"m 861 367 b 863 363 861 365 863 364 b 858 353 863 360 860 356 b 821 268 846 325 833 296 b 708 -78 772 157 731 43 b 697 -164 703 -107 697 -135 b 700 -196 697 -175 699 -185 b 753 -247 706 -228 728 -247 b 789 -235 765 -247 778 -243 b 894 -111 832 -201 865 -158 b 899 -100 897 -107 899 -103 b 882 -85 899 -93 893 -86 l 878 -85 b 864 -97 871 -85 868 -92 b 817 -161 849 -119 833 -142 b 761 -214 800 -181 782 -199 b 743 -222 753 -219 747 -222 b 733 -201 738 -222 735 -215 b 732 -183 733 -194 732 -189 b 735 -157 732 -175 733 -165 b 768 7 740 -101 751 -47 b 924 386 808 138 865 263 b 949 408 929 397 938 404 b 1022 451 974 421 999 436 b 1033 463 1026 454 1033 457 b 1032 467 1033 464 1033 465 b 1014 478 1029 474 1022 478 b 1008 476 1013 478 1010 476 b 990 465 1001 474 996 468 b 956 447 979 460 969 450 b 968 478 957 460 964 469 b 1157 857 1031 604 1094 731 b 1208 982 1176 897 1196 939 b 1219 1028 1214 997 1218 1013 b 1221 1038 1219 1032 1221 1035 b 1156 1101 1221 1074 1192 1101 b 1142 1100 1151 1101 1147 1101 b 1078 1078 1119 1096 1099 1088 b 978 1019 1043 1061 1010 1042 b 960 1013 971 1015 965 1013 b 946 1018 956 1013 950 1014 b 935 1022 942 1021 939 1022 b 917 1011 928 1022 922 1018 b 885 968 907 997 896 983 b 842 919 872 951 860 933 b 592 682 753 846 668 768 b 425 482 535 617 476 551 b 296 294 379 422 336 358 b 260 275 286 281 276 275 b 146 285 221 275 183 279 b 61 367 99 293 72 322 b 56 407 57 381 56 393 b 65 465 56 426 60 446 b 124 565 76 503 94 536 b 131 576 128 571 131 574 b 119 588 131 581 126 583 b 100 596 111 593 106 596 b 78 582 93 596 86 592 b 21 475 50 551 31 515 b 15 428 17 458 15 443 b 131 272 15 356 56 301 b 238 253 165 260 201 256 l 247 253 b 263 250 253 253 258 253 l 263 247 b 260 238 263 243 261 240 b 203 138 239 204 221 171 b 110 -74 168 69 133 0 b 97 -137 103 -94 99 -115 l 97 -143 b 121 -182 97 -160 104 -172 b 140 -187 128 -186 135 -187 b 169 -176 151 -187 160 -183 b 228 -119 192 -160 211 -140 b 396 115 286 -44 343 35 b 482 250 425 160 454 206 b 513 272 490 263 499 269 b 844 363 626 290 738 321 b 857 368 849 365 853 368 b 861 367 858 368 860 367 z m 519 303 l 519 306 b 531 325 519 313 525 318 b 747 674 603 442 674 558 b 889 892 794 746 842 819 b 965 972 911 922 935 950 b 1124 1063 1015 1007 1067 1039 b 1156 1074 1133 1067 1144 1071 b 1168 1075 1161 1075 1165 1075 b 1183 1051 1181 1075 1183 1068 b 1175 1014 1182 1038 1178 1026 b 1132 906 1163 976 1149 940 l 978 601 b 893 429 949 544 919 488 b 868 401 888 417 881 407 b 532 300 758 357 647 324 l 526 300 b 519 303 525 300 522 300 z m 771 810 b 764 793 771 801 767 797 b 549 454 690 681 619 567 b 465 314 521 407 493 361 b 418 283 454 294 442 285 b 343 276 393 281 368 282 b 335 275 340 276 338 275 b 328 279 332 275 329 276 b 326 283 328 281 326 282 b 332 293 326 286 329 290 b 408 403 357 329 382 367 b 629 671 475 497 550 586 b 750 793 668 713 708 754 b 771 810 756 799 760 806 z m 424 256 b 417 238 424 247 421 243 b 175 -117 342 115 264 -4 b 135 -156 164 -131 150 -144 b 129 -142 131 -151 129 -147 b 131 -128 129 -137 131 -132 b 151 -51 135 -101 142 -76 b 233 126 175 10 203 69 b 293 233 253 163 272 199 b 324 253 300 246 310 253 l 344 253 b 392 257 361 253 376 254 b 407 258 397 258 401 258 b 424 256 413 258 418 258 z m 1086 1176 b 1115 1140 1086 1153 1103 1149 b 1126 1138 1119 1138 1122 1138 b 1140 1143 1131 1138 1136 1139 b 1175 1192 1156 1157 1168 1172 b 1179 1206 1178 1197 1179 1201 b 1165 1226 1179 1214 1175 1219 b 1142 1239 1158 1232 1150 1235 b 1132 1240 1139 1240 1136 1240 b 1121 1236 1128 1240 1124 1239 b 1086 1176 1100 1219 1090 1197 z m 1201 1176 b 1231 1140 1201 1153 1218 1149 b 1242 1138 1235 1138 1238 1138 b 1256 1143 1246 1138 1251 1139 b 1290 1192 1271 1157 1283 1172 b 1294 1206 1293 1197 1294 1201 b 1281 1226 1294 1214 1290 1219 b 1257 1239 1274 1232 1265 1235 b 1247 1240 1254 1240 1251 1240 b 1236 1236 1243 1240 1239 1239 b 1201 1176 1215 1219 1206 1197 z "},"Å":{"ha":1133,"x_min":0,"x_max":0,"o":"m 861 367 b 863 363 861 365 863 364 b 858 353 863 360 860 356 b 821 268 846 325 833 296 b 708 -78 772 157 731 43 b 697 -164 703 -107 697 -135 b 700 -196 697 -175 699 -185 b 753 -247 706 -228 728 -247 b 789 -235 765 -247 778 -243 b 894 -111 832 -201 865 -158 b 899 -100 897 -107 899 -103 b 882 -85 899 -93 893 -86 l 878 -85 b 864 -97 871 -85 868 -92 b 817 -161 849 -119 833 -142 b 761 -214 800 -181 782 -199 b 743 -222 753 -219 747 -222 b 733 -201 738 -222 735 -215 b 732 -183 733 -194 732 -189 b 735 -157 732 -175 733 -165 b 768 7 740 -101 751 -47 b 924 386 808 138 865 263 b 949 408 929 397 938 404 b 1022 451 974 421 999 436 b 1033 463 1026 454 1033 457 b 1032 467 1033 464 1033 465 b 1014 478 1029 474 1022 478 b 1008 476 1013 478 1010 476 b 990 465 1001 474 996 468 b 956 447 979 460 969 450 b 968 478 957 460 964 469 b 1157 857 1031 604 1094 731 b 1208 982 1176 897 1196 939 b 1219 1028 1214 997 1218 1013 b 1221 1038 1219 1032 1221 1035 b 1156 1101 1221 1074 1192 1101 b 1142 1100 1151 1101 1147 1101 b 1078 1078 1119 1096 1099 1088 b 978 1019 1043 1061 1010 1042 b 960 1013 971 1015 965 1013 b 946 1018 956 1013 950 1014 b 935 1022 942 1021 939 1022 b 917 1011 928 1022 922 1018 b 885 968 907 997 896 983 b 842 919 872 951 860 933 b 592 682 753 846 668 768 b 425 482 535 617 476 551 b 296 294 379 422 336 358 b 260 275 286 281 276 275 b 146 285 221 275 183 279 b 61 367 99 293 72 322 b 56 407 57 381 56 393 b 65 465 56 426 60 446 b 124 565 76 503 94 536 b 131 576 128 571 131 574 b 119 588 131 581 126 583 b 100 596 111 593 106 596 b 78 582 93 596 86 592 b 21 475 50 551 31 515 b 15 428 17 458 15 443 b 131 272 15 356 56 301 b 238 253 165 260 201 256 l 247 253 b 263 250 253 253 258 253 l 263 247 b 260 238 263 243 261 240 b 203 138 239 204 221 171 b 110 -74 168 69 133 0 b 97 -137 103 -94 99 -115 l 97 -143 b 121 -182 97 -160 104 -172 b 140 -187 128 -186 135 -187 b 169 -176 151 -187 160 -183 b 228 -119 192 -160 211 -140 b 396 115 286 -44 343 35 b 482 250 425 160 454 206 b 513 272 490 263 499 269 b 844 363 626 290 738 321 b 857 368 849 365 853 368 b 861 367 858 368 860 367 z m 519 303 l 519 306 b 531 325 519 313 525 318 b 747 674 603 442 674 558 b 889 892 794 746 842 819 b 965 972 911 922 935 950 b 1124 1063 1015 1007 1067 1039 b 1156 1074 1133 1067 1144 1071 b 1168 1075 1161 1075 1165 1075 b 1183 1051 1181 1075 1183 1068 b 1175 1014 1182 1038 1178 1026 b 1132 906 1163 976 1149 940 l 978 601 b 893 429 949 544 919 488 b 868 401 888 417 881 407 b 532 300 758 357 647 324 l 526 300 b 519 303 525 300 522 300 z m 771 810 b 764 793 771 801 767 797 b 549 454 690 681 619 567 b 465 314 521 407 493 361 b 418 283 454 294 442 285 b 343 276 393 281 368 282 b 335 275 340 276 338 275 b 328 279 332 275 329 276 b 326 283 328 281 326 282 b 332 293 326 286 329 290 b 408 403 357 329 382 367 b 629 671 475 497 550 586 b 750 793 668 713 708 754 b 771 810 756 799 760 806 z m 424 256 b 417 238 424 247 421 243 b 175 -117 342 115 264 -4 b 135 -156 164 -131 150 -144 b 129 -142 131 -151 129 -147 b 131 -128 129 -137 131 -132 b 151 -51 135 -101 142 -76 b 233 126 175 10 203 69 b 293 233 253 163 272 199 b 324 253 300 246 310 253 l 344 253 b 392 257 361 253 376 254 b 407 258 397 258 401 258 b 424 256 413 258 418 258 z m 1254 1229 l 1254 1233 b 1250 1258 1254 1240 1253 1249 b 1215 1290 1244 1279 1232 1290 b 1194 1286 1208 1290 1201 1289 b 1182 1283 1190 1285 1186 1285 b 1122 1221 1149 1278 1125 1254 l 1122 1214 b 1151 1165 1122 1193 1133 1178 b 1188 1151 1164 1157 1175 1151 b 1215 1161 1197 1151 1206 1154 b 1254 1229 1238 1178 1254 1199 z m 1167 1193 b 1204 1247 1167 1213 1186 1240 b 1213 1249 1207 1249 1210 1249 b 1222 1246 1217 1249 1219 1249 b 1225 1239 1225 1243 1225 1240 b 1224 1229 1225 1235 1225 1232 b 1186 1179 1219 1207 1207 1190 b 1176 1176 1182 1178 1179 1176 b 1167 1193 1171 1176 1167 1182 z "},"Æ":{"ha":2213,"x_min":0,"x_max":0,"o":"m 519 303 b 522 313 519 306 521 308 b 526 321 524 315 525 318 l 531 325 l 600 439 b 747 674 649 518 699 596 b 889 892 794 747 842 819 b 965 972 910 924 936 950 b 1124 1063 1015 1007 1068 1038 b 1156 1074 1133 1067 1144 1071 b 1168 1076 1160 1075 1164 1076 b 1183 1057 1178 1076 1183 1069 l 1183 1051 b 1175 1014 1182 1039 1179 1026 b 1132 906 1163 976 1149 940 l 993 631 b 978 601 988 621 982 611 b 971 586 975 597 972 592 b 893 429 944 535 918 482 b 868 401 889 417 881 408 b 532 300 758 357 647 324 b 525 300 529 300 526 300 b 519 303 524 300 521 301 z m 424 256 b 422 247 424 251 424 249 b 418 240 421 244 419 242 b 417 238 418 239 418 239 b 175 -117 343 114 263 -4 b 135 -156 164 -132 150 -144 b 129 -143 131 -151 129 -147 l 129 -132 b 131 -128 131 -131 131 -129 b 151 -51 135 -101 142 -76 b 233 126 175 10 201 69 b 293 233 253 163 272 199 b 325 253 300 246 311 253 l 340 253 b 392 257 357 253 375 254 b 406 258 396 258 400 258 b 424 256 411 258 417 258 z m 771 810 b 769 801 771 806 771 803 b 765 796 768 799 767 797 b 764 793 764 794 764 794 b 583 508 703 699 643 604 b 549 454 572 490 561 472 b 465 314 519 408 492 361 b 418 283 456 296 440 285 b 396 282 411 282 403 282 b 343 276 378 282 361 281 l 342 276 b 335 275 339 275 336 275 b 328 279 332 275 329 276 l 328 282 b 328 286 328 283 328 285 b 331 290 329 288 329 289 b 332 293 332 292 332 292 b 349 317 338 300 343 308 b 408 403 368 346 388 374 b 629 671 476 497 550 586 b 750 793 668 714 708 754 b 753 797 751 794 751 796 b 771 810 757 801 763 806 z m 918 -144 b 1126 -233 982 -187 1051 -218 b 1222 -247 1158 -240 1190 -246 l 1244 -250 b 1308 -253 1265 -251 1288 -253 b 1444 -240 1354 -253 1400 -249 b 1704 -154 1536 -225 1622 -197 b 1853 -67 1756 -128 1804 -99 l 1856 -64 b 1864 -57 1858 -62 1861 -60 b 1868 -49 1867 -56 1868 -53 b 1863 -39 1867 -44 1865 -42 b 1853 -33 1860 -37 1857 -35 b 1846 -31 1850 -32 1847 -32 b 1838 -29 1843 -29 1840 -29 b 1828 -33 1833 -31 1831 -32 l 1826 -33 b 1797 -53 1817 -40 1807 -46 b 1553 -176 1721 -104 1640 -146 b 1281 -221 1465 -206 1374 -219 l 1265 -221 b 1143 -211 1224 -221 1183 -218 b 969 -160 1083 -203 1025 -186 b 914 -101 942 -144 924 -125 b 903 -51 907 -85 903 -68 b 904 -32 903 -44 903 -39 b 942 72 910 6 922 40 b 1074 228 978 131 1022 182 b 1272 379 1136 282 1203 333 b 1401 464 1315 408 1358 436 b 1464 504 1422 476 1443 490 l 1533 549 b 1557 565 1542 554 1550 560 b 1586 590 1568 572 1578 581 b 1601 621 1597 601 1601 611 b 1582 651 1601 632 1596 642 b 1565 663 1578 656 1572 660 b 1435 726 1524 689 1481 710 b 1363 760 1410 736 1386 747 b 1340 790 1347 768 1340 779 b 1350 817 1340 799 1343 807 b 1365 833 1354 822 1360 828 b 1371 838 1367 835 1369 836 b 1481 910 1404 867 1440 892 b 1489 914 1483 911 1486 913 b 1779 1026 1582 960 1679 997 b 1979 1063 1844 1044 1911 1057 b 2011 1064 1990 1064 2001 1064 b 2097 1056 2040 1064 2069 1061 b 2139 1033 2117 1053 2131 1046 b 2156 990 2147 1021 2153 1007 b 2157 978 2156 986 2157 982 b 2153 951 2157 968 2156 960 b 2113 879 2144 925 2131 901 b 2100 864 2108 875 2104 869 b 2060 814 2086 847 2072 831 b 2056 803 2057 810 2056 807 b 2061 792 2056 799 2057 796 b 2071 788 2064 789 2068 788 b 2082 794 2075 788 2078 790 b 2111 825 2092 804 2101 815 b 2167 885 2131 843 2149 864 b 2194 936 2179 900 2189 918 b 2199 968 2197 947 2199 958 b 2160 1042 2199 997 2186 1022 b 2038 1096 2124 1071 2083 1089 l 2015 1097 l 1992 1096 l 1951 1096 b 1871 1090 1924 1096 1897 1094 b 1771 1069 1844 1086 1811 1079 b 1418 932 1647 1039 1531 993 b 1331 875 1388 915 1358 896 b 1300 840 1318 865 1308 854 b 1292 814 1294 831 1292 822 b 1308 779 1292 801 1297 790 b 1325 767 1313 775 1318 771 l 1333 761 b 1431 711 1364 740 1396 724 b 1442 707 1435 710 1438 708 b 1536 663 1474 693 1504 678 b 1553 642 1547 657 1553 650 b 1543 622 1553 636 1550 629 b 1525 607 1538 617 1532 611 l 1519 601 b 1429 540 1490 579 1461 558 b 1393 519 1417 533 1406 526 b 1388 515 1392 518 1389 517 b 1238 418 1338 483 1288 451 b 1011 243 1158 367 1082 308 b 903 117 969 206 933 163 b 860 14 882 85 867 51 b 854 -26 857 0 854 -14 b 869 -89 854 -49 860 -69 b 865 -96 868 -90 867 -93 b 864 -97 864 -96 864 -96 b 817 -161 849 -121 833 -142 b 761 -214 800 -182 782 -199 b 743 -222 754 -219 749 -222 b 733 -201 736 -222 733 -215 l 733 -186 b 735 -157 733 -176 733 -167 b 768 7 740 -101 751 -47 b 924 386 811 138 863 264 b 949 408 929 396 938 404 b 1022 451 974 421 999 436 b 1025 453 1024 453 1024 453 b 1032 458 1028 454 1031 457 b 1033 463 1033 460 1033 461 b 1032 467 1033 464 1033 465 b 1024 475 1031 471 1028 474 b 1014 476 1021 476 1017 476 l 1008 476 b 997 469 1004 475 1001 472 b 990 465 996 468 993 467 b 979 458 986 464 983 461 b 956 447 972 454 964 450 b 965 472 957 457 961 465 l 968 478 b 1039 621 992 526 1015 574 b 1157 857 1079 700 1118 778 b 1208 982 1178 897 1194 939 b 1219 1028 1214 997 1218 1013 l 1219 1039 b 1201 1085 1219 1057 1214 1072 b 1157 1101 1189 1096 1174 1101 b 1142 1100 1151 1101 1147 1101 b 1078 1078 1119 1096 1099 1088 b 978 1019 1043 1061 1010 1042 b 963 1013 972 1015 967 1014 l 960 1013 b 946 1018 956 1013 950 1014 b 933 1022 942 1021 938 1022 b 917 1011 928 1022 922 1018 l 906 994 b 885 968 899 986 892 978 l 882 965 b 842 919 871 947 857 932 b 592 682 751 847 668 768 b 425 482 533 618 478 551 b 296 294 379 421 336 358 b 263 275 288 282 276 275 l 260 275 b 146 285 222 275 183 278 b 61 367 100 294 71 321 b 56 410 57 381 56 396 b 65 465 56 428 58 447 b 124 565 76 503 96 536 b 131 576 128 569 131 574 b 119 588 129 579 126 583 b 99 596 111 593 104 596 b 78 582 92 594 85 590 b 21 475 49 551 31 515 b 15 426 18 458 15 442 b 131 272 15 356 54 304 b 238 253 165 260 201 254 l 246 253 b 254 253 249 253 251 253 b 263 250 257 253 260 251 b 263 243 263 247 263 244 b 260 238 261 240 261 239 b 203 138 239 204 221 171 b 110 -74 165 69 135 0 b 97 -137 103 -94 99 -115 l 97 -143 b 121 -182 97 -160 106 -172 b 142 -187 128 -186 135 -187 b 169 -176 151 -187 161 -183 b 228 -119 192 -160 211 -140 b 396 115 288 -43 343 35 b 482 250 425 160 454 204 b 513 272 489 263 500 269 b 844 363 626 290 738 321 b 849 365 846 364 847 364 b 854 368 850 367 853 367 b 861 367 856 368 858 368 b 863 361 863 365 863 363 b 860 356 861 360 861 357 b 858 353 858 354 858 354 l 844 322 b 821 268 836 304 828 286 b 708 -78 769 157 732 42 b 707 -82 708 -79 708 -81 b 699 -161 701 -108 699 -135 b 700 -196 699 -172 699 -185 b 733 -243 704 -219 715 -236 b 754 -247 740 -246 747 -247 b 789 -235 765 -247 776 -243 b 890 -118 829 -203 864 -164 b 918 -144 897 -128 907 -136 z "},"Ç":{"ha":1026,"x_min":0,"x_max":0,"o":"m 350 -260 l 350 -264 b 353 -272 350 -267 351 -271 b 363 -281 356 -275 358 -278 b 368 -285 364 -282 367 -283 l 371 -287 b 375 -289 372 -289 374 -289 b 385 -303 381 -294 383 -299 b 376 -318 385 -307 382 -311 b 324 -351 364 -333 346 -344 b 350 -371 333 -362 343 -369 l 356 -371 b 374 -365 361 -371 367 -369 b 404 -346 385 -361 394 -354 b 422 -319 417 -337 422 -328 b 406 -293 422 -310 417 -301 b 396 -281 399 -287 396 -283 l 396 -279 b 404 -267 396 -276 399 -272 b 410 -260 406 -264 408 -261 l 415 -254 b 418 -249 417 -253 418 -250 b 436 -247 425 -249 431 -249 b 674 -169 521 -237 600 -212 b 942 50 774 -110 863 -36 b 943 53 942 51 942 51 l 944 54 b 949 63 947 57 949 60 b 943 71 949 65 947 68 b 926 79 936 76 931 79 b 907 67 921 78 914 74 b 765 -65 863 19 815 -25 b 550 -189 697 -119 626 -160 b 356 -225 489 -212 425 -225 b 303 -222 338 -225 321 -224 b 153 -179 249 -218 199 -204 b 58 -64 104 -154 74 -115 b 50 8 53 -40 50 -15 b 54 63 50 26 51 44 b 124 267 67 133 90 201 b 429 685 203 424 304 563 b 640 864 494 750 564 810 b 936 1035 732 932 831 989 b 1047 1069 972 1050 1010 1063 b 1060 1071 1051 1071 1056 1071 b 1076 1054 1071 1071 1076 1065 b 1075 1040 1076 1050 1076 1046 b 1050 979 1069 1019 1061 999 b 932 807 1015 919 975 861 l 915 788 b 832 675 886 750 858 713 b 826 660 828 669 826 664 b 826 654 826 658 826 657 b 842 643 828 651 832 647 b 851 640 846 642 849 640 b 864 646 856 640 860 642 b 865 647 864 647 864 647 l 881 664 b 967 760 910 696 938 728 l 1158 974 b 1167 983 1161 978 1164 981 b 1201 1015 1176 996 1188 1007 b 1211 1028 1207 1018 1210 1022 l 1211 1032 b 1208 1042 1211 1036 1211 1039 b 1183 1056 1200 1051 1192 1056 b 1158 1043 1175 1056 1167 1051 b 1124 1007 1146 1031 1135 1019 b 1108 990 1119 1001 1114 996 b 1107 992 1108 992 1108 992 l 1106 992 b 1110 1003 1107 996 1108 999 b 1117 1025 1113 1010 1115 1017 b 1118 1039 1118 1031 1118 1035 b 1114 1058 1118 1046 1117 1051 b 1094 1078 1111 1065 1104 1071 b 1029 1099 1074 1092 1051 1099 b 997 1094 1018 1099 1008 1097 b 789 1015 924 1079 854 1053 b 124 374 507 864 285 650 b 8 56 63 275 24 169 b 6 21 7 43 6 32 b 97 -158 6 -51 36 -111 b 354 -250 176 -215 261 -246 b 350 -260 353 -253 351 -256 z "},"È":{"ha":1133,"x_min":0,"x_max":0,"o":"m 1190 1096 l 1107 1096 b 924 1069 1043 1096 1000 1089 b 571 932 800 1039 682 993 b 483 875 540 917 511 896 b 453 840 471 865 461 854 b 443 813 447 831 443 821 b 460 779 443 800 449 789 b 486 761 468 772 478 767 b 594 707 518 736 557 722 b 689 663 626 693 658 678 b 706 642 700 657 706 650 b 696 622 706 635 703 629 b 672 601 689 614 679 608 b 546 519 632 569 588 546 b 390 418 494 486 442 453 b 164 243 311 365 235 308 b 56 117 124 206 86 164 b 13 14 36 85 19 51 b 8 -29 10 -1 8 -17 b 71 -144 8 -75 25 -111 b 279 -233 133 -190 204 -217 b 397 -250 318 -243 357 -246 b 454 -253 417 -251 435 -253 b 597 -240 501 -253 550 -247 b 857 -154 689 -226 775 -197 b 1006 -67 908 -128 957 -97 b 1021 -49 1011 -62 1021 -57 b 999 -31 1019 -37 1007 -36 b 992 -29 996 -29 994 -29 b 981 -33 988 -29 985 -31 b 950 -53 969 -40 960 -46 b 706 -176 874 -104 792 -146 b 433 -221 618 -207 526 -218 b 408 -222 425 -221 417 -222 b 296 -211 371 -222 332 -217 b 122 -160 235 -201 176 -187 b 56 -51 72 -135 56 -93 b 57 -32 56 -44 56 -37 b 94 72 61 6 75 40 b 226 228 129 132 175 182 b 425 379 289 283 356 332 b 617 504 488 422 553 463 b 710 565 647 524 679 544 b 739 590 721 572 731 581 b 754 621 750 601 754 611 b 735 651 754 631 749 642 b 718 663 729 656 724 660 b 588 726 676 688 633 710 b 515 760 563 736 539 747 b 493 792 500 768 493 779 b 503 817 493 799 496 808 b 524 838 510 825 517 831 b 642 914 557 872 600 892 b 932 1026 735 961 832 997 b 1132 1063 997 1044 1064 1057 b 1163 1064 1142 1064 1153 1064 b 1250 1056 1192 1064 1221 1061 b 1307 990 1289 1050 1303 1024 b 1308 976 1308 986 1308 982 b 1304 951 1308 968 1307 960 b 1265 879 1297 925 1283 901 b 1213 814 1247 858 1229 836 b 1208 803 1210 811 1208 807 b 1214 792 1208 799 1210 796 b 1222 789 1217 789 1219 789 b 1235 794 1226 789 1231 790 b 1319 885 1263 825 1293 853 b 1347 936 1332 900 1342 917 b 1351 967 1350 947 1351 957 b 1313 1042 1351 997 1339 1024 b 1190 1096 1276 1068 1236 1092 z m 1150 1183 b 1188 1203 1165 1186 1176 1194 b 1190 1207 1189 1204 1190 1206 b 1182 1214 1190 1211 1186 1213 b 1122 1250 1161 1225 1142 1236 b 1088 1281 1110 1260 1097 1268 b 1074 1288 1083 1286 1079 1288 b 1064 1285 1071 1288 1067 1288 b 1031 1265 1053 1278 1042 1272 b 1022 1254 1026 1263 1022 1258 b 1028 1247 1022 1253 1024 1250 b 1140 1186 1064 1224 1100 1200 b 1150 1183 1144 1185 1147 1185 z "},"É":{"ha":1133,"x_min":0,"x_max":0,"o":"m 1190 1096 l 1107 1096 b 924 1069 1043 1096 1000 1089 b 571 932 800 1039 682 993 b 483 875 540 917 511 896 b 453 840 471 865 461 854 b 443 813 447 831 443 821 b 460 779 443 800 449 789 b 486 761 468 772 478 767 b 594 707 518 736 557 722 b 689 663 626 693 658 678 b 706 642 700 657 706 650 b 696 622 706 635 703 629 b 672 601 689 614 679 608 b 546 519 632 569 588 546 b 390 418 494 486 442 453 b 164 243 311 365 235 308 b 56 117 124 206 86 164 b 13 14 36 85 19 51 b 8 -29 10 -1 8 -17 b 71 -144 8 -75 25 -111 b 279 -233 133 -190 204 -217 b 397 -250 318 -243 357 -246 b 454 -253 417 -251 435 -253 b 597 -240 501 -253 550 -247 b 857 -154 689 -226 775 -197 b 1006 -67 908 -128 957 -97 b 1021 -49 1011 -62 1021 -57 b 999 -31 1019 -37 1007 -36 b 992 -29 996 -29 994 -29 b 981 -33 988 -29 985 -31 b 950 -53 969 -40 960 -46 b 706 -176 874 -104 792 -146 b 433 -221 618 -207 526 -218 b 408 -222 425 -221 417 -222 b 296 -211 371 -222 332 -217 b 122 -160 235 -201 176 -187 b 56 -51 72 -135 56 -93 b 57 -32 56 -44 56 -37 b 94 72 61 6 75 40 b 226 228 129 132 175 182 b 425 379 289 283 356 332 b 617 504 488 422 553 463 b 710 565 647 524 679 544 b 739 590 721 572 731 581 b 754 621 750 601 754 611 b 735 651 754 631 749 642 b 718 663 729 656 724 660 b 588 726 676 688 633 710 b 515 760 563 736 539 747 b 493 792 500 768 493 779 b 503 817 493 799 496 808 b 524 838 510 825 517 831 b 642 914 557 872 600 892 b 932 1026 735 961 832 997 b 1132 1063 997 1044 1064 1057 b 1163 1064 1142 1064 1153 1064 b 1250 1056 1192 1064 1221 1061 b 1307 990 1289 1050 1303 1024 b 1308 976 1308 986 1308 982 b 1304 951 1308 968 1307 960 b 1265 879 1297 925 1283 901 b 1213 814 1247 858 1229 836 b 1208 803 1210 811 1208 807 b 1214 792 1208 799 1210 796 b 1222 789 1217 789 1219 789 b 1235 794 1226 789 1231 790 b 1319 885 1263 825 1293 853 b 1347 936 1332 900 1342 917 b 1351 967 1350 947 1351 957 b 1313 1042 1351 997 1339 1024 b 1190 1096 1276 1068 1236 1092 z m 1047 1179 b 1057 1182 1051 1181 1054 1181 b 1169 1243 1097 1196 1135 1219 b 1175 1251 1174 1246 1175 1249 b 1168 1261 1175 1254 1172 1258 b 1135 1281 1157 1268 1146 1274 b 1124 1283 1131 1283 1128 1283 b 1111 1276 1119 1283 1115 1282 b 1076 1246 1101 1264 1089 1256 b 1015 1210 1057 1232 1038 1221 b 1008 1204 1011 1208 1008 1207 b 1011 1199 1008 1203 1008 1200 b 1047 1179 1022 1190 1033 1182 z "}}}
